<svg width="124" height="124" viewBox="0 0 124 124" fill="none" xmlns="http://www.w3.org/2000/svg">
<rect x="1" y="1" width="122" height="122" rx="29" fill="#92EDC3" fill-opacity="0.15" stroke="#231F20" stroke-width="2"/>
<path d="M88.0929 60.9496C87.6219 60.2524 76.3909 43.7795 62.012 43.7795C47.633 43.7795 36.4009 60.2528 35.9311 60.9496C35.5035 61.5856 35.5035 62.417 35.9311 63.0524C36.402 63.7594 47.633 80.2325 62.012 80.2325C76.3909 80.2325 87.6231 63.7592 88.0929 63.0625C88.5244 62.4245 88.5244 61.5878 88.0929 60.9498V60.9496ZM62.012 76.4612C51.5643 76.4612 42.4559 65.4946 39.8241 62.0059C42.4551 58.5171 51.536 47.5505 62.012 47.5505C72.4879 47.5505 81.568 58.5171 84.1998 62.0059C81.5781 65.4946 72.4879 76.4612 62.012 76.4612Z" fill="#92EDC3"/>
<path d="M62.0117 51.6331C59.261 51.6331 56.6228 52.7262 54.6771 54.6712C52.7321 56.6169 51.639 59.2551 51.639 62.0058C51.639 64.7565 52.7322 67.3948 54.6771 69.3404C56.6228 71.2854 59.261 72.3786 62.0117 72.3786C64.7624 72.3786 67.4007 71.2854 69.3463 69.3404C71.2913 67.3948 72.3845 64.7565 72.3845 62.0058C72.3845 59.2551 71.2913 56.6169 69.3463 54.6712C67.4007 52.7262 64.7624 51.6331 62.0117 51.6331V51.6331ZM62.0117 68.6061C60.2609 68.6061 58.5823 67.9109 57.3443 66.6731C56.1064 65.4353 55.4113 63.7567 55.4113 62.0056C55.4113 60.2546 56.1065 58.5762 57.3443 57.3382C58.5821 56.1003 60.2607 55.4052 62.0117 55.4052C63.7627 55.4052 65.4412 56.1004 66.6791 57.3382C67.9171 58.576 68.6122 60.2546 68.6122 62.0056C68.6122 63.7567 67.9169 65.4351 66.6791 66.6731C65.4413 67.911 63.7627 68.6061 62.0117 68.6061Z" fill="#92EDC3"/>
</svg>
