<svg width="98" height="98" viewBox="0 0 98 98" fill="none" xmlns="http://www.w3.org/2000/svg">
<rect x="1" y="1" width="96" height="96" rx="29" fill="#92EDC3" fill-opacity="0.15" stroke="#231F20" stroke-width="2"/>
<path d="M69.6216 48.1699C69.2494 47.6188 60.3733 34.6 49.0093 34.6C37.6453 34.6 28.7683 47.6192 28.397 48.1699C28.0591 48.6725 28.0591 49.3296 28.397 49.8317C28.7692 50.3905 37.6453 63.4096 49.0093 63.4096C60.3733 63.4096 69.2503 50.3904 69.6216 49.8397C69.9626 49.3355 69.9626 48.6742 69.6216 48.17V48.1699ZM49.0093 60.4291C40.7523 60.4291 33.5537 51.7619 31.4737 49.0046C33.5531 46.2474 40.7299 37.5802 49.0093 37.5802C57.2887 37.5802 64.4649 46.2474 66.5449 49.0046C64.4729 51.7619 57.2887 60.4291 49.0093 60.4291Z" fill="#3AE295"/>
<path d="M49.0093 40.8067C46.8354 40.8067 44.7503 41.6707 43.2126 43.2078C41.6755 44.7455 40.8115 46.8306 40.8115 49.0045C40.8115 51.1785 41.6755 53.2635 43.2126 54.8012C44.7503 56.3384 46.8354 57.2023 49.0093 57.2023C51.1833 57.2023 53.2683 56.3384 54.806 54.8012C56.3432 53.2635 57.2072 51.1785 57.2072 49.0045C57.2072 46.8306 56.3432 44.7455 54.806 43.2078C53.2683 41.6706 51.1833 40.8067 49.0093 40.8067V40.8067ZM49.0093 54.2209C47.6256 54.2209 46.299 53.6714 45.3206 52.6932C44.3422 51.7149 43.7928 50.3883 43.7928 49.0044C43.7928 47.6205 44.3423 46.294 45.3206 45.3156C46.2988 44.3372 47.6255 43.7879 49.0093 43.7879C50.3932 43.7879 51.7197 44.3374 52.6981 45.3156C53.6765 46.2939 54.2258 47.6205 54.2258 49.0044C54.2258 50.3883 53.6764 51.7148 52.6981 52.6932C51.7198 53.6715 50.3932 54.2209 49.0093 54.2209Z" fill="#3AE295"/>
</svg>
