<svg width="98" height="98" viewBox="0 0 98 98" fill="none" xmlns="http://www.w3.org/2000/svg">
<rect x="1" y="1" width="96" height="96" rx="29" fill="#F3D25F" fill-opacity="0.15" stroke="#231F20" stroke-width="2"/>
<path d="M53.8444 50.0676H50.9811V47.2043C50.9811 46.1504 50.127 45.2957 49.0725 45.2957C48.018 45.2957 47.1639 46.1504 47.1639 47.2043V50.0676H44.3006C43.2461 50.0676 42.392 50.9224 42.392 51.9762C42.392 53.0307 43.2461 53.8848 44.3006 53.8848H47.1639V56.7481C47.1639 57.8026 48.018 58.6567 49.0725 58.6567C50.127 58.6567 50.9811 57.8026 50.9811 56.7481V53.8848H53.8444C54.8989 53.8848 55.753 53.0306 55.753 51.9762C55.753 50.9223 54.8989 50.0676 53.8444 50.0676Z" fill="#F3D25F"/>
<path d="M68.6374 47.0033C68.5249 42.0935 66.2155 37.4934 62.3457 34.4703C58.4751 31.448 53.4529 30.3208 48.6617 31.4013C43.8712 32.4818 39.8181 35.6546 37.62 40.0458C36.9376 39.9406 36.2486 39.886 35.5582 39.8834C30.4999 39.8834 25.826 42.5822 23.2969 46.9627C20.7678 51.3431 20.7678 56.7402 23.2969 61.1213C25.826 65.5018 30.5001 68.1999 35.5582 68.1999H65.6212C69.1223 68.1999 72.4062 66.5043 74.4341 63.6504C76.4618 60.7965 76.9825 57.1369 75.8315 53.831C74.6798 50.5244 71.999 47.9806 68.637 47.0034L68.6374 47.0033ZM65.6117 64.3833H35.5486C32.5655 64.3926 29.7242 63.1124 27.7551 60.8728C25.7851 58.6326 24.8791 55.6515 25.2699 52.6945C25.66 49.7372 27.3091 47.0931 29.7928 45.4413C32.2759 43.789 35.3523 43.2911 38.2303 44.0739C39.1676 44.3123 40.1356 43.8123 40.4831 42.9096C41.8625 39.1854 44.9222 36.3335 48.7341 35.2184C52.546 34.1033 56.6603 34.857 59.8297 37.2503C62.9986 39.6435 64.8492 43.395 64.8192 47.3666C64.8192 47.7101 64.8192 48.0536 64.762 48.3971C64.6781 49.4216 65.421 50.329 66.4423 50.4488C68.8083 50.7531 70.8566 52.2422 71.8759 54.3993C72.8952 56.5569 72.7447 59.0847 71.4765 61.1059C70.2083 63.127 67.9974 64.3626 65.6115 64.3832L65.6117 64.3833Z" fill="#F3D25F"/>
</svg>
