<svg width="124" height="124" viewBox="0 0 124 124" fill="none" xmlns="http://www.w3.org/2000/svg">
<rect x="1" y="1" width="122" height="122" rx="29" fill="#F3D25F" fill-opacity="0.15" stroke="#231F20" stroke-width="2"/>
<path d="M68.1297 63.3507H64.5067V59.7277C64.5067 58.3943 63.426 57.3127 62.0917 57.3127C60.7575 57.3127 59.6768 58.3943 59.6768 59.7277V63.3507H56.0538C54.7195 63.3507 53.6389 64.4322 53.6389 65.7656C53.6389 67.0999 54.7196 68.1806 56.0538 68.1806H59.6768V71.8036C59.6768 73.1378 60.7575 74.2185 62.0917 74.2185C63.426 74.2185 64.5067 73.1378 64.5067 71.8036V68.1806H68.1297C69.464 68.1806 70.5446 67.0999 70.5446 65.7656C70.5446 64.4322 69.4639 63.3507 68.1297 63.3507Z" fill="#F3D25F"/>
<path d="M86.8474 59.4734C86.705 53.261 83.7829 47.4404 78.8864 43.6154C73.989 39.7912 67.6343 38.365 61.572 39.7322C55.5105 41.0993 50.3822 45.1139 47.6008 50.6701C46.7374 50.537 45.8656 50.4679 44.992 50.4646C38.5918 50.4646 32.6779 53.8794 29.4777 59.4221C26.2776 64.9647 26.2776 71.7936 29.4777 77.337C32.6779 82.8796 38.592 86.2937 44.992 86.2937H83.031C87.4609 86.2937 91.6161 84.1482 94.182 80.5371C96.7477 76.926 97.4065 72.2956 95.9501 68.1126C94.4928 63.9287 91.1007 60.7101 86.8468 59.4736L86.8474 59.4734ZM83.0189 81.4644H44.9799C41.2054 81.4762 37.6102 79.8564 35.1187 77.0227C32.6261 74.1881 31.4798 70.4161 31.9742 66.6745C32.4678 62.9327 34.5544 59.587 37.6971 57.4971C40.839 55.4064 44.7315 54.7763 48.373 55.7669C49.5591 56.0684 50.7839 55.4358 51.2236 54.2936C52.9689 49.5815 56.8404 45.9729 61.6636 44.562C66.4868 43.1511 71.6926 44.1046 75.7029 47.1329C79.7125 50.1611 82.0541 54.9078 82.0162 59.9331C82.0162 60.3677 82.0162 60.8023 81.9437 61.237C81.8376 62.5334 82.7777 63.6815 84.0698 63.8331C87.0636 64.2181 89.6554 66.1023 90.9451 68.8317C92.2347 71.5617 92.0444 74.76 90.4397 77.3175C88.835 79.8748 86.0376 81.4382 83.0186 81.4643L83.0189 81.4644Z" fill="#F3D25F"/>
</svg>
