<svg width="98" height="98" viewBox="0 0 98 98" fill="none" xmlns="http://www.w3.org/2000/svg">
<rect x="1" y="1" width="96" height="96" rx="29" fill="#CF92EE" fill-opacity="0.15" stroke="#231F20" stroke-width="2"/>
<path d="M41.57 65.7999C40.358 65.7999 39.1955 65.3186 38.3384 64.4615C37.4814 63.6039 37 62.4419 37 61.2294V36.77C37 35.558 37.4814 34.3954 38.3384 33.5384C39.1955 32.6813 40.3581 32.2 41.57 32.2H57.5662C58.7781 32.2 59.9407 32.6813 60.7978 33.5384C61.6548 34.3954 62.1367 35.558 62.1367 36.77V60.9696C62.1373 62.1194 61.7048 63.2273 60.9248 64.0725C60.1448 64.9173 59.0751 65.4375 57.9292 65.5289C56.7825 65.6203 55.6439 65.276 54.7401 64.5645L50.8247 61.5179H50.8253C50.2801 61.104 49.5267 61.104 48.9815 61.5179L44.2665 64.9764C43.4769 65.5279 42.5333 65.8154 41.57 65.7989L41.57 65.7999ZM41.57 35.2468C40.7289 35.2468 40.0467 35.929 40.0467 36.7701V61.2295C40.0483 61.8028 40.3708 62.3262 40.882 62.5849C41.3931 62.8442 42.0063 62.7943 42.4691 62.4558L47.1841 58.9973V58.9978C47.9886 58.4086 48.9636 58.0983 49.9609 58.1148C50.9576 58.1312 51.922 58.4734 52.7069 59.0892L56.6223 62.1359H56.6217C57.076 62.495 57.694 62.5657 58.2173 62.3186C58.7406 62.0716 59.0785 61.5493 59.0897 60.9706V36.771C59.0897 36.3672 58.9292 35.9799 58.6434 35.694C58.3581 35.4082 57.9702 35.2477 57.5664 35.2477L41.57 35.2468Z" fill="#CF92EE"/>
</svg>
