<svg width="98" height="98" viewBox="0 0 98 98" fill="none" xmlns="http://www.w3.org/2000/svg">
<rect x="1" y="1" width="96" height="96" rx="29" fill="#7084F2" fill-opacity="0.15" stroke="#231F20" stroke-width="2"/>
<path d="M39.9759 38.6319C39.0213 38.6319 38.248 37.8581 38.248 36.9041V29.1277C38.248 28.1737 39.0213 27.3999 39.9759 27.3999C40.9305 27.3999 41.7037 28.1737 41.7037 29.1277V36.9041C41.7037 37.3621 41.5217 37.802 41.1975 38.1257C40.8738 38.4499 40.4339 38.6319 39.9759 38.6319L39.9759 38.6319Z" fill="#7084F2"/>
<path d="M57.2555 38.6319C56.3009 38.6319 55.5276 37.8581 55.5276 36.9041V29.1277C55.5276 28.1737 56.3009 27.3999 57.2555 27.3999C58.2101 27.3999 58.9833 28.1737 58.9833 29.1277V36.9041C58.9833 37.3621 58.8013 37.802 58.4771 38.1257C58.1535 38.4499 57.7135 38.6319 57.2555 38.6319L57.2555 38.6319Z" fill="#7084F2"/>
<path d="M39.9756 61.9598C39.2789 61.9568 38.6521 61.5361 38.3857 60.8925C38.1199 60.2482 38.2664 59.5075 38.7576 59.0139C39.4314 58.3437 40.5198 58.3437 41.1936 59.0139C41.6848 59.5075 41.8312 60.2482 41.5654 60.8925C41.299 61.5361 40.6723 61.9568 39.9755 61.9598H39.9756Z" fill="#7084F2"/>
<path d="M57.2558 61.9598C56.5591 61.9568 55.9323 61.5361 55.6659 60.8925C55.4001 60.2482 55.5465 59.5075 56.0377 59.0139C56.7115 58.3437 57.8 58.3437 58.4738 59.0139C58.9649 59.5075 59.1114 60.2482 58.8456 60.8925C58.5792 61.5361 57.9524 61.9568 57.2557 61.9598H57.2558Z" fill="#7084F2"/>
<path d="M39.9757 54.184C39.2772 54.1846 38.6474 53.7646 38.3791 53.1203C38.1103 52.4755 38.2568 51.733 38.7486 51.2376C39.435 50.5891 40.5077 50.5891 41.1937 51.2376C41.6849 51.7318 41.8313 52.4725 41.5655 53.1162C41.2991 53.7598 40.6724 54.1811 39.9756 54.1841L39.9757 54.184Z" fill="#7084F2"/>
<path d="M48.6159 61.9598C47.9174 61.9604 47.2876 61.541 47.0194 60.8961C46.7506 60.2518 46.897 59.5087 47.3888 59.014C48.0764 58.3697 49.1463 58.3697 49.8339 59.014C50.1588 59.3364 50.342 59.7745 50.3438 60.232C50.3438 60.69 50.1618 61.13 49.8375 61.4536C49.5139 61.7778 49.0739 61.9598 48.6159 61.9598V61.9598Z" fill="#7084F2"/>
<path d="M48.6159 54.184C47.9174 54.1846 47.2876 53.7646 47.0194 53.1203C46.7506 52.4755 46.897 51.733 47.3888 51.2376C48.0752 50.5891 49.148 50.5891 49.8339 51.2376C50.3251 51.7318 50.4715 52.4725 50.2058 53.1162C49.9394 53.7598 49.3126 54.1811 48.6159 54.1841L48.6159 54.184Z" fill="#7084F2"/>
<path d="M57.2555 54.184C56.3009 54.184 55.5277 53.4102 55.5277 52.4562C55.527 51.9994 55.7073 51.5618 56.0285 51.2376C56.7149 50.5891 57.7876 50.5891 58.4736 51.2376C58.9648 51.7318 59.1112 52.4725 58.8455 53.1162C58.5791 53.7598 57.9523 54.1811 57.2555 54.1841L57.2555 54.184Z" fill="#7084F2"/>
<path d="M62.4397 70.5998H34.7917C33.417 70.5998 32.0984 70.0537 31.1262 69.0816C30.154 68.1095 29.6081 66.7908 29.6081 65.4161V37.7681C29.6081 36.3934 30.1541 35.0748 31.1262 34.1026C32.0983 33.1305 33.417 32.5845 34.7917 32.5845H62.4397C63.8144 32.5845 65.1331 33.1305 66.1052 34.1026C67.0774 35.0747 67.6234 36.3934 67.6234 37.7681V65.4161C67.6234 66.7908 67.0773 68.1095 66.1052 69.0816C65.1331 70.0538 63.8144 70.5998 62.4397 70.5998ZM34.7917 36.0398C33.8377 36.0398 33.0639 36.8136 33.0639 37.7676V65.4156C33.0639 65.8737 33.2459 66.313 33.5701 66.6373C33.8944 66.9615 34.3337 67.1435 34.7918 67.1435H62.4397C62.8978 67.1435 63.3371 66.9615 63.6614 66.6373C63.9856 66.313 64.1676 65.8737 64.1676 65.4156V37.7676C64.1676 37.3096 63.9856 36.8703 63.6614 36.546C63.3371 36.2218 62.8978 36.0398 62.4397 36.0398L34.7917 36.0398Z" fill="#7084F2"/>
<path d="M65.8957 45.544H31.3357C30.3811 45.544 29.6078 44.7701 29.6078 43.8161C29.6078 42.8615 30.3811 42.0876 31.3357 42.0876H65.8957C66.8503 42.0876 67.6235 42.8615 67.6235 43.8161C67.6235 44.7701 66.8503 45.544 65.8957 45.544Z" fill="#7084F2"/>
</svg>
