<svg width="124" height="124" viewBox="0 0 124 124" fill="none" xmlns="http://www.w3.org/2000/svg">
<rect x="1" y="1" width="122" height="122" rx="29" fill="#7084F2" fill-opacity="0.15" stroke="#231F20" stroke-width="2"/>
<path d="M50.5818 48.8812C49.3738 48.8812 48.3955 47.9021 48.3955 46.695V36.8556C48.3955 35.6484 49.3739 34.6693 50.5818 34.6693C51.7896 34.6693 52.768 35.6485 52.768 36.8556V46.695C52.768 47.2745 52.5377 47.8312 52.1275 48.2407C51.7179 48.651 51.1613 48.8813 50.5817 48.8813L50.5818 48.8812Z" fill="#7084F2"/>
<path d="M72.4457 48.8812C71.2378 48.8812 70.2595 47.9021 70.2595 46.695V36.8556C70.2595 35.6484 71.2378 34.6693 72.4457 34.6693C73.6536 34.6693 74.632 35.6485 74.632 36.8556V46.695C74.632 47.2745 74.4017 47.8312 73.9914 48.2407C73.5819 48.651 73.0252 48.8813 72.4457 48.8813L72.4457 48.8812Z" fill="#7084F2"/>
<path d="M50.5814 78.3983C49.6999 78.3945 48.9068 77.8622 48.5697 77.0478C48.2334 76.2326 48.4187 75.2954 49.0402 74.6708C49.8927 73.8228 51.27 73.8228 52.1225 74.6708C52.744 75.2953 52.9293 76.2325 52.593 77.0478C52.2559 77.8622 51.4628 78.3945 50.5813 78.3983H50.5814Z" fill="#7084F2"/>
<path d="M72.4461 78.3983C71.5646 78.3945 70.7715 77.8622 70.4344 77.0478C70.0981 76.2326 70.2834 75.2954 70.9049 74.6708C71.7575 73.8228 73.1347 73.8228 73.9872 74.6708C74.6087 75.2953 74.794 76.2325 74.4577 77.0478C74.1207 77.8622 73.3276 78.3945 72.446 78.3983H72.4461Z" fill="#7084F2"/>
<path d="M50.5815 68.5593C49.6977 68.56 48.9008 68.0285 48.5614 67.2133C48.2213 66.3974 48.4066 65.4579 49.0288 64.8311C49.8974 64.0106 51.2547 64.0106 52.1226 64.8311C52.7441 65.4564 52.9294 66.3936 52.5932 67.2081C52.2561 68.0225 51.463 68.5555 50.5814 68.5594L50.5815 68.5593Z" fill="#7084F2"/>
<path d="M61.514 78.3982C60.6302 78.399 59.8333 77.8683 59.4939 77.0523C59.1538 76.2371 59.3391 75.2969 59.9613 74.6708C60.8314 73.8556 62.1851 73.8556 63.0551 74.6708C63.4662 75.0788 63.698 75.6332 63.7003 76.212C63.7003 76.7916 63.47 77.3482 63.0597 77.7577C62.6502 78.168 62.0936 78.3983 61.514 78.3983V78.3982Z" fill="#7084F2"/>
<path d="M61.514 68.5593C60.6302 68.56 59.8333 68.0285 59.4939 67.2133C59.1538 66.3974 59.3391 65.4579 59.9613 64.8311C60.8299 64.0106 62.1872 64.0106 63.0551 64.8311C63.6766 65.4564 63.8619 66.3936 63.5257 67.2081C63.1886 68.0225 62.3955 68.5555 61.5139 68.5594L61.514 68.5593Z" fill="#7084F2"/>
<path d="M72.4457 68.5593C71.2378 68.5593 70.2595 67.5801 70.2595 66.373C70.2587 65.795 70.4867 65.2413 70.8932 64.8311C71.7617 64.0106 73.119 64.0106 73.987 64.8311C74.6085 65.4564 74.7938 66.3936 74.4575 67.2081C74.1204 68.0225 73.3274 68.5555 72.4458 68.5594L72.4457 68.5593Z" fill="#7084F2"/>
<path d="M79.0054 89.3305H44.0222C42.2828 89.3305 40.6143 88.6396 39.3842 87.4096C38.1541 86.1796 37.4633 84.511 37.4633 82.7716V47.7884C37.4633 46.049 38.1542 44.3805 39.3842 43.1504C40.6142 41.9203 42.2828 41.2295 44.0222 41.2295H79.0054C80.7448 41.2295 82.4133 41.9204 83.6434 43.1504C84.8734 44.3804 85.5643 46.049 85.5643 47.7884V82.7716C85.5643 84.511 84.8734 86.1795 83.6434 87.4096C82.4134 88.6396 80.7448 89.3305 79.0054 89.3305ZM44.0222 45.6015C42.815 45.6015 41.8359 46.5807 41.8359 47.7878V82.7709C41.8359 83.3505 42.0662 83.9064 42.4765 84.3167C42.8868 84.727 43.4427 84.9572 44.0222 84.9572H79.0054C79.585 84.9572 80.1409 84.7269 80.5511 84.3167C80.9614 83.9064 81.1917 83.3505 81.1917 82.7709V47.7878C81.1917 47.2082 80.9614 46.6523 80.5511 46.242C80.1409 45.8318 79.585 45.6015 79.0054 45.6015L44.0222 45.6015Z" fill="#7084F2"/>
<path d="M83.3782 57.6269H39.6493C38.4414 57.6269 37.463 56.6478 37.463 55.4407C37.463 54.2328 38.4414 53.2537 39.6493 53.2537H83.3782C84.5861 53.2537 85.5645 54.2328 85.5645 55.4407C85.5645 56.6478 84.5861 57.6269 83.3782 57.6269Z" fill="#7084F2"/>
</svg>
