<svg width="124" height="124" viewBox="0 0 124 124" fill="none" xmlns="http://www.w3.org/2000/svg">
<rect x="1" y="1" width="122" height="122" rx="29" fill="#CF92EE" fill-opacity="0.15" stroke="#231F20" stroke-width="2"/>
<path d="M52.599 83.2572C51.0655 83.2572 49.5945 82.6481 48.51 81.5637C47.4256 80.4786 46.8165 79.0082 46.8165 77.474V46.5254C46.8165 44.9919 47.4256 43.5209 48.51 42.4364C49.5944 41.352 51.0655 40.7429 52.599 40.7429H72.839C74.3725 40.7429 75.8435 41.352 76.928 42.4364C78.0124 43.5209 78.6222 44.9919 78.6222 46.5254V77.1453C78.6228 78.6002 78.0756 80.002 77.0886 81.0715C76.1017 82.1404 74.7483 82.7986 73.2983 82.9142C71.8475 83.0299 70.4067 82.5942 69.2632 81.694L64.309 77.8391H64.3097C63.6199 77.3154 62.6666 77.3154 61.9768 77.8391L56.0108 82.2152C55.0117 82.913 53.8178 83.2767 52.5989 83.2559L52.599 83.2572ZM52.599 44.5981C51.5347 44.5981 50.6715 45.4613 50.6715 46.5255V77.4742C50.6735 78.1996 51.0816 78.8618 51.7284 79.1892C52.3751 79.5173 53.151 79.4541 53.7366 79.0258L59.7025 74.6498V74.6505C60.7204 73.9049 61.9541 73.5123 63.216 73.5331C64.4772 73.5539 65.6974 73.9869 66.6905 74.7661L71.6447 78.621H71.644C72.2188 79.0755 73.0007 79.1649 73.6628 78.8523C74.325 78.5397 74.7526 77.8788 74.7668 77.1466V46.5267C74.7668 46.0158 74.5637 45.5257 74.202 45.164C73.841 44.8023 73.3502 44.5993 72.8393 44.5993L52.599 44.5981Z" fill="#CF92EE"/>
</svg>
