<svg width="124" height="124" viewBox="0 0 124 124" fill="none" xmlns="http://www.w3.org/2000/svg">
<rect x="1" y="1" width="122" height="122" rx="29" fill="#92EDC3" fill-opacity="0.15" stroke="#231F20" stroke-width="2"/>
<path d="M82.6076 53.1414L66.1734 39.1726H66.1741C65.06 38.2262 63.6458 37.7061 62.1834 37.7061C60.7219 37.7061 59.3075 38.2262 58.1935 39.1726L41.7593 53.1414C40.3801 54.3106 39.5842 56.0265 39.582 57.8349V80.5855C39.582 82.2197 40.2311 83.7873 41.3867 84.943C42.5424 86.0987 44.1101 86.7477 45.7443 86.7477H52.9346C54.2966 86.7477 55.6027 86.2068 56.5656 85.2439C57.5286 84.2803 58.0702 82.9742 58.0702 81.6121V72.8714C58.0752 71.4614 59.2172 70.3194 60.6272 70.3144H63.7087C64.39 70.3116 65.0442 70.5795 65.5278 71.0589C66.0107 71.5389 66.2844 72.1909 66.2865 72.8715V81.6122C66.2865 82.9742 66.8281 84.2803 67.7911 85.244C68.754 86.2069 70.0601 86.7478 71.4221 86.7478H78.6124C80.2467 86.7478 81.8143 86.0987 82.9699 84.9431C84.1256 83.7874 84.7747 82.2198 84.7747 80.5855V57.835C84.7754 56.0288 83.983 54.3129 82.6075 53.1415L82.6076 53.1414ZM80.6667 80.5855C80.6667 81.13 80.4504 81.6523 80.0649 82.0377C79.6794 82.4232 79.1572 82.6395 78.6126 82.6395H71.4223C70.8556 82.6395 70.3956 82.1796 70.3956 81.6121V72.8714C70.3927 71.1046 69.6899 69.411 68.4404 68.1606C67.1902 66.9111 65.4965 66.2082 63.7296 66.2054H60.6481C58.8778 66.2026 57.1783 66.904 55.9245 68.1535C54.67 69.4037 53.9642 71.1009 53.9614 72.8714V81.6121C53.9614 81.8844 53.8533 82.1459 53.6605 82.3386C53.4678 82.5314 53.207 82.6395 52.9348 82.6395H45.7444C44.6103 82.6395 43.6904 81.7196 43.6904 80.5855V57.8349C43.6904 57.2346 43.9533 56.6642 44.4097 56.2738L60.8439 42.305H60.8432C61.6105 41.6538 62.7367 41.6538 63.5034 42.305L79.9376 56.2738C80.3975 56.6621 80.664 57.2331 80.6669 57.8349L80.6667 80.5855Z" fill="#92EDC3"/>
</svg>
