<svg width="124" height="124" viewBox="0 0 124 124" fill="none" xmlns="http://www.w3.org/2000/svg">
<rect x="1" y="1" width="122" height="122" rx="29" fill="#CF92EE" fill-opacity="0.15" stroke="#231F20" stroke-width="2"/>
<path d="M80.9766 42.6356C79.8186 42.1542 79.6609 42.3113 77.0025 44.9516L72.7505 49.1945L67.9053 54.0578L56.881 43.0335C56.7621 42.9172 56.6277 42.8177 56.4823 42.7375L56.3802 42.682C56.2413 42.6005 56.0913 42.5385 55.9356 42.4965C55.776 42.4752 55.6138 42.4752 55.4542 42.4965H55.3333C55.1718 42.5152 55.0128 42.5559 54.861 42.6167C54.7188 42.68 54.585 42.7608 54.4629 42.8577L54.333 42.9689L54.2497 43.0432L41.873 55.4658C41.4536 55.8897 41.2643 56.4901 41.3638 57.0781V81.4043C41.367 82.1513 41.8181 82.8233 42.5082 83.109C43.199 83.394 43.9932 83.237 44.5225 82.7103L55.5841 71.6589L66.6084 82.711L66.6078 82.7103C66.7267 82.8266 66.8611 82.9268 67.0065 83.0069L67.0989 83.0625C67.3522 83.1892 67.6314 83.2557 67.9144 83.257H68.1458C68.3079 83.2383 68.4669 83.1976 68.6181 83.1368C68.7609 83.0735 68.8947 82.9927 69.0168 82.8958L69.1558 82.7847L69.2482 82.7103L81.5047 70.4358C81.8963 70.0874 82.1219 69.5892 82.1251 69.0645V44.3479C82.1251 43.5964 81.6715 42.9198 80.9768 42.6342L80.9766 42.6356ZM78.4196 48.7681V68.2869L69.7766 76.9299V57.4755C72.5275 54.669 75.9737 51.2137 78.4196 48.7679V48.7681ZM57.4185 48.8146L66.0614 57.4575V76.9119L57.4185 68.2502V48.7959V48.8146ZM45.0696 57.4673L53.7126 48.8243V68.2787L45.0696 76.9307V57.4673Z" fill="#CF92EE"/>
</svg>
