<svg width="124" height="124" viewBox="0 0 124 124" fill="none" xmlns="http://www.w3.org/2000/svg">
<rect x="1" y="1" width="122" height="122" rx="29" fill="#7084F2" fill-opacity="0.15" stroke="#231F20" stroke-width="2"/>
<path d="M90.8448 52.7674C90.8403 52.3693 90.8268 51.9734 90.7208 51.5842C90.1166 49.3725 88.0244 47.7956 85.6864 47.7956C83.3778 47.7956 81.0714 47.7956 78.7627 47.7956C77.8992 47.7956 77.4574 47.4749 77.2296 46.661C76.8576 45.3407 76.4924 44.0181 76.1204 42.6955C75.904 41.9303 75.7462 41.1407 75.3246 40.4463C74.2987 38.7566 72.8333 37.7613 70.7816 37.7061C64.9153 37.7061 59.049 37.7061 53.1827 37.7061C52.7859 37.7061 52.3891 37.7237 52.0058 37.8365C50.0038 38.4337 48.6984 39.7231 48.1235 41.6914C47.6365 43.3568 47.1878 45.031 46.7189 46.7008C46.5002 47.4749 46.0673 47.7934 45.2489 47.7956C43.159 47.7956 41.069 47.7956 38.979 47.7956C38.6003 47.7956 38.226 47.7978 37.8472 47.8398C35.9534 48.0455 34.5714 48.9788 33.6718 50.6155C33.3697 51.1639 33.2051 51.7567 33.151 52.3804V52.4865C33.2096 52.6104 33.1646 52.7409 33.1781 52.8691C33.1781 62.3438 33.1781 71.8186 33.1781 81.2955C33.1646 81.4215 33.2096 81.552 33.151 81.6759V81.782C33.2187 82.0187 33.1984 82.2708 33.266 82.5075C33.6132 83.7349 34.3031 84.7302 35.374 85.4556C36.0571 85.9156 36.8079 86.2164 37.6398 86.2938H86.2749C86.5094 86.2319 86.7528 86.2496 86.9873 86.1921C89.172 85.6591 90.9463 83.5845 90.8448 81.3132C90.8448 71.7987 90.8448 62.2841 90.8448 52.7696V52.7674ZM85.5309 82.576C77.6873 82.576 69.8438 82.576 61.9979 82.576C54.1521 82.576 46.3288 82.576 38.492 82.576C37.5248 82.576 36.9432 82.0098 36.9432 81.061C36.9432 71.7389 36.9432 62.4168 36.9432 53.0947C36.9432 52.1614 37.5271 51.5908 38.4763 51.5908C40.7669 51.5908 43.0575 51.5908 45.3459 51.5908C47.7492 51.5908 49.758 50.1001 50.4051 47.8354C50.8808 46.1634 51.361 44.4892 51.8051 42.8083C52.0374 41.9303 52.7678 41.4238 53.6268 41.4283C59.2158 41.4482 64.8071 41.4371 70.3961 41.4371C71.2776 41.4371 71.8751 41.8772 72.1141 42.7199C72.5988 44.4273 73.07 46.1391 73.557 47.8443C74.1905 50.0692 76.2219 51.5797 78.5779 51.5797C80.9046 51.5797 83.2312 51.5797 85.5557 51.5797C86.4598 51.5797 87.0392 52.1459 87.0392 53.0372C87.0392 62.3947 87.0392 71.7522 87.0392 81.1097C87.0392 82.0121 86.4598 82.5716 85.5309 82.5716V82.576Z" fill="#7084F2"/>
<path d="M62.0044 51.3713C54.3586 51.3993 48.4995 57.5205 48.3382 64.7211C48.1684 72.2764 54.1715 78.6018 61.8023 78.7007C69.5621 78.8018 75.5051 72.5903 75.662 65.3489C75.8276 57.7828 69.7728 51.3971 62.0044 51.3713ZM61.9915 75.0951C56.255 75.0714 51.8386 70.3349 51.9483 64.8372C52.0536 59.5824 56.3281 54.9877 62.0066 54.9899C67.7517 54.9899 72.1573 59.7458 72.0498 65.2392C71.9466 70.5069 67.6507 75.0757 61.9894 75.0951H61.9915Z" fill="#7084F2"/>
</svg>
