<svg width="98" height="98" viewBox="0 0 98 98" fill="none" xmlns="http://www.w3.org/2000/svg">
<rect x="1" y="1" width="96" height="96" rx="29" fill="#7084F2" fill-opacity="0.15" stroke="#231F20" stroke-width="2"/>
<path d="M71.7967 41.7034C71.7932 41.3887 71.7825 41.0759 71.6987 40.7682C71.2212 39.0203 69.5677 37.774 67.7199 37.774C65.8954 37.774 64.0726 37.774 62.248 37.774C61.5655 37.774 61.2163 37.5206 61.0363 36.8774C60.7423 35.8339 60.4537 34.7886 60.1597 33.7434C59.9886 33.1386 59.8639 32.5146 59.5307 31.9657C58.72 30.6303 57.5618 29.8437 55.9403 29.8C51.304 29.8 46.6678 29.8 42.0315 29.8C41.7179 29.8 41.4043 29.814 41.1014 29.9032C39.5191 30.3751 38.4874 31.3941 38.0331 32.9498C37.6482 34.266 37.2936 35.5892 36.923 36.9088C36.7502 37.5206 36.408 37.7723 35.7612 37.774C34.1095 37.774 32.4578 37.774 30.806 37.774C30.5067 37.774 30.2109 37.7758 29.9115 37.809C28.4148 37.9716 27.3226 38.7092 26.6116 40.0026C26.3728 40.4361 26.2428 40.9046 26.2 41.3975V41.4814C26.2463 41.5793 26.2107 41.6824 26.2214 41.7838C26.2214 49.2719 26.2214 56.7599 26.2214 64.2498C26.2107 64.3494 26.2463 64.4525 26.2 64.5504V64.6343C26.2535 64.8213 26.2374 65.0206 26.2909 65.2076C26.5653 66.1777 27.1105 66.9643 27.9569 67.5376C28.4968 67.9012 29.0901 68.1389 29.7476 68.2001H68.185C68.3703 68.1511 68.5627 68.1651 68.748 68.1196C70.4746 67.6984 71.8769 66.0589 71.7967 64.2637C71.7967 56.7442 71.7967 49.2247 71.7967 41.7051V41.7034ZM67.597 65.2618C61.398 65.2618 55.1991 65.2618 48.9984 65.2618C42.7976 65.2618 36.6147 65.2618 30.4211 65.2618C29.6567 65.2618 29.197 64.8143 29.197 64.0645C29.197 56.697 29.197 49.3295 29.197 41.9621C29.197 41.2244 29.6585 40.7735 30.4087 40.7735C32.219 40.7735 34.0293 40.7735 35.8379 40.7735C37.7373 40.7735 39.3249 39.5954 39.8363 37.8055C40.2122 36.4841 40.5918 35.1609 40.9428 33.8325C41.1263 33.1386 41.7036 32.7383 42.3825 32.7418C46.7996 32.7575 51.2185 32.7488 55.6356 32.7488C56.3323 32.7488 56.8045 33.0966 56.9934 33.7626C57.3765 35.112 57.7489 36.4649 58.1338 37.8125C58.6344 39.5709 60.2399 40.7647 62.1019 40.7647C63.9407 40.7647 65.7795 40.7647 67.6166 40.7647C68.3311 40.7647 68.789 41.2122 68.789 41.9166C68.789 49.3121 68.789 56.7075 68.789 64.1029C68.789 64.8161 68.3311 65.2583 67.597 65.2583V65.2618Z" fill="#7084F2"/>
<path d="M49.0035 40.6001C42.9608 40.6222 38.3302 45.4599 38.2028 51.1507C38.0685 57.1218 42.813 62.121 48.8438 62.1991C54.9765 62.279 59.6733 57.3699 59.7974 51.6469C59.9282 45.6672 55.143 40.6205 49.0035 40.6001ZM48.9933 59.3495C44.4596 59.3308 40.9692 55.5874 41.0559 51.2424C41.1392 47.0895 44.5174 43.4582 49.0052 43.4599C53.5457 43.4599 57.0275 47.2186 56.9426 51.5602C56.861 55.7233 53.4658 59.3342 48.9916 59.3495H48.9933Z" fill="#7084F2"/>
</svg>
