<svg width="98" height="98" viewBox="0 0 98 98" fill="none" xmlns="http://www.w3.org/2000/svg">
<rect x="1" y="1" width="96" height="96" rx="29" fill="#92EDC3" fill-opacity="0.15" stroke="#231F20" stroke-width="2"/>
<path d="M68.313 63.0915C67.2344 60.6777 65.6691 58.4852 63.7043 56.6361C61.7455 54.7816 59.4251 53.303 56.8712 52.282C56.8484 52.2712 56.8255 52.2658 56.8026 52.255C60.3649 49.8241 62.6808 45.8644 62.6808 41.397C62.6808 33.9962 56.3337 28 48.5 28C40.6663 28 34.3192 33.9962 34.3192 41.397C34.3192 45.8644 36.6351 49.8241 40.1974 52.2604C40.1745 52.2712 40.1517 52.2766 40.1288 52.2874C37.5671 53.3084 35.2684 54.7724 33.2957 56.6415C31.3328 58.492 29.7677 60.6842 28.687 63.0969C27.6253 65.4589 27.0526 67.9913 27.0001 70.557C26.9986 70.6147 27.0093 70.6721 27.0316 70.7257C27.0539 70.7794 27.0874 70.8283 27.13 70.8696C27.1726 70.9109 27.2236 70.9437 27.2798 70.9661C27.3361 70.9885 27.3965 71 27.4576 71H30.8884C31.14 71 31.3401 70.8109 31.3459 70.5786C31.4602 66.4083 33.2328 62.5026 36.3663 59.5423C39.6084 56.4794 43.9141 54.794 48.5 54.794C53.0859 54.794 57.3916 56.4794 60.6337 59.5423C63.7672 62.5026 65.5398 66.4083 65.6541 70.5786C65.6599 70.8163 65.86 71 66.1116 71H69.5424C69.6035 71 69.6639 70.9885 69.7202 70.9661C69.7764 70.9437 69.8274 70.9109 69.87 70.8696C69.9126 70.8283 69.9461 70.7794 69.9684 70.7257C69.9907 70.6721 70.0014 70.6147 69.9999 70.557C69.9427 67.9749 69.3766 65.4629 68.313 63.0915ZM48.5 50.6884C45.8754 50.6884 43.4052 49.7215 41.5469 47.9658C39.6885 46.2102 38.665 43.8765 38.665 41.397C38.665 38.9175 39.6885 36.5838 41.5469 34.8281C43.4052 33.0725 45.8754 32.1055 48.5 32.1055C51.1246 32.1055 53.5948 33.0725 55.4531 34.8281C57.3115 36.5838 58.335 38.9175 58.335 41.397C58.335 43.8765 57.3115 46.2102 55.4531 47.9658C53.5948 49.7215 51.1246 50.6884 48.5 50.6884Z" fill="#6BBB7C"/>
</svg>
