<svg width="124" height="124" viewBox="0 0 124 124" fill="none" xmlns="http://www.w3.org/2000/svg">
<rect x="1" y="1" width="122" height="122" rx="29" fill="#F3D25F" fill-opacity="0.15" stroke="#231F20" stroke-width="2"/>
<path d="M73.2559 86.2938C72.312 86.2899 71.3828 86.0541 70.5518 85.6065L61.83 80.9411V80.9403C61.4512 80.7432 61.0005 80.7432 60.6217 80.9403L51.8335 85.4844C50.5594 86.1462 49.083 86.3054 47.6968 85.9305C46.3115 85.5563 45.1163 84.675 44.3494 83.4612C43.5818 82.2475 43.2988 80.7902 43.5547 79.3778L45.2949 69.6362H45.2941C45.3552 69.2296 45.2191 68.8183 44.9285 68.5276L37.8911 61.5677C36.8714 60.5604 36.2661 59.2067 36.195 57.775C36.1239 56.3433 36.5923 54.937 37.5077 53.8339C38.4222 52.7299 39.7179 52.0094 41.1381 51.8146L50.9352 50.4625C51.3612 50.4022 51.7299 50.1379 51.9217 49.7536L56.3544 40.8872H56.3552C56.8252 39.931 57.555 39.1262 58.4603 38.5642C59.3648 38.0022 60.41 37.7045 61.4752 37.7061C62.5544 37.7015 63.6128 38.003 64.5265 38.5758C65.4411 39.1486 66.1739 39.9697 66.6402 40.943L70.9515 49.8094L70.9508 49.8086C71.1371 50.1959 71.502 50.4649 71.9264 50.5291L81.7012 52.0258C83.1213 52.2399 84.4086 52.979 85.309 54.0977C86.2089 55.2155 86.6573 56.6311 86.5637 58.0635C86.4702 59.4968 85.8424 60.8419 84.8042 61.8338L77.678 68.6832C77.385 68.9723 77.2451 69.3828 77.3015 69.791L78.9087 79.5549C79.2033 81.2263 78.7433 82.9417 77.6532 84.2421C76.5624 85.5424 74.9528 86.293 73.256 86.2938L73.2559 86.2938ZM61.2092 76.4077C62.1523 76.407 63.0816 76.6389 63.9134 77.0834L72.6351 81.7489V81.7496C73.0727 81.9862 73.6069 81.9522 74.0104 81.6623C74.414 81.3716 74.6157 80.8761 74.5307 80.3859L72.9235 70.622C72.6181 68.7597 73.2481 66.8664 74.608 65.5576L81.7457 58.675C82.1013 58.3325 82.2312 57.8169 82.0804 57.3461C81.9304 56.8753 81.5246 56.5313 81.036 56.4586L71.2612 54.9627C69.4089 54.6581 67.8226 53.4653 67.0163 51.7707L62.7049 42.9043C62.4892 42.4544 62.0347 42.1683 61.536 42.1683C61.0374 42.1683 60.5821 42.4543 60.3664 42.9043L55.9337 51.7707C55.0516 53.456 53.391 54.594 51.501 54.8074L41.7038 56.1595C41.2106 56.2252 40.7985 56.5661 40.6431 57.0384C40.487 57.5108 40.6153 58.0303 40.9717 58.3759L48.0314 65.3249C49.3766 66.65 49.9819 68.5532 49.6495 70.4117L47.9093 80.1533H47.91C47.8265 80.6411 48.0252 81.1351 48.4241 81.4281C48.823 81.7211 49.3534 81.7644 49.794 81.5386L58.5823 76.9945V76.9953C59.3986 76.5933 60.2993 76.3923 61.2091 76.4077L61.2092 76.4077Z" fill="#F3D25F"/>
</svg>
