<svg width="98" height="98" viewBox="0 0 98 98" fill="none" xmlns="http://www.w3.org/2000/svg">
<rect x="1" y="1" width="96" height="96" rx="29" fill="#F3D25F" fill-opacity="0.15" stroke="#231F20" stroke-width="2"/>
<path d="M57.8958 68.2C57.1498 68.197 56.4154 68.0106 55.7586 67.6569L48.8656 63.9697V63.969C48.5663 63.8132 48.2101 63.8132 47.9107 63.969L40.9651 67.5604C39.9583 68.0834 38.7914 68.2092 37.6959 67.9129C36.601 67.6172 35.6564 66.9207 35.0503 65.9614C34.4436 65.0021 34.22 63.8505 34.4223 62.7342L35.7976 55.0352H35.797C35.8452 54.7138 35.7377 54.3888 35.508 54.1591L29.9462 48.6584C29.1403 47.8623 28.6619 46.7925 28.6057 45.661C28.5495 44.5295 28.9197 43.4181 29.6431 42.5462C30.3659 41.6738 31.3899 41.1043 32.5123 40.9504L40.2552 39.8818C40.5919 39.8341 40.8833 39.6252 41.0349 39.3215L44.5381 32.3142H44.5387C44.9102 31.5584 45.487 30.9224 46.2025 30.4783C46.9173 30.0341 47.7434 29.7989 48.5852 29.8001C49.4381 29.7964 50.2746 30.0347 50.9968 30.4874C51.7195 30.9402 52.2987 31.589 52.6672 32.3583L56.0746 39.3656L56.074 39.365C56.2212 39.6711 56.5096 39.8837 56.845 39.9344L64.5703 41.1172C65.6927 41.2865 66.71 41.8706 67.4216 42.7547C68.1328 43.6382 68.4872 44.7569 68.4133 45.889C68.3393 47.0218 67.8432 48.0848 67.0227 48.8688L61.3907 54.282C61.1591 54.5105 61.0485 54.8349 61.0931 55.1575L62.3633 62.8741C62.5961 64.1951 62.2326 65.5508 61.3711 66.5785C60.509 67.6062 59.2369 68.1994 57.8958 68.2001L57.8958 68.2ZM48.375 60.3869C49.1204 60.3863 49.8548 60.5696 50.5122 60.9209L57.4052 64.6081V64.6087C57.751 64.7957 58.1732 64.7688 58.4921 64.5397C58.811 64.3099 58.9705 63.9183 58.9033 63.5309L57.6331 55.8143C57.3917 54.3424 57.8897 52.8461 58.9644 51.8118L64.6054 46.3723C64.8865 46.1016 64.9891 45.6941 64.87 45.322C64.7515 44.9499 64.4307 44.6781 64.0446 44.6206L56.3193 43.4384C54.8554 43.1977 53.6017 42.2549 52.9645 40.9156L49.5571 33.9083C49.3866 33.5527 49.0274 33.3267 48.6333 33.3267C48.2392 33.3267 47.8794 33.5527 47.7089 33.9083L44.2056 40.9156C43.5085 42.2476 42.1961 43.147 40.7024 43.3156L32.9594 44.3842C32.5696 44.4361 32.244 44.7056 32.1212 45.0789C31.9978 45.4522 32.0992 45.8628 32.3808 46.1359L37.9603 51.6279C39.0234 52.6751 39.5018 54.1792 39.2391 55.6481L37.8638 63.3471H37.8644C37.7984 63.7326 37.9554 64.123 38.2707 64.3546C38.5859 64.5861 39.0051 64.6203 39.3533 64.4419L46.2989 60.8506V60.8512C46.9441 60.5335 47.6559 60.3746 48.3749 60.3869L48.375 60.3869Z" fill="#F3D25F"/>
</svg>
