<svg width="98" height="98" viewBox="0 0 98 98" fill="none" xmlns="http://www.w3.org/2000/svg">
<rect x="1" y="1" width="96" height="96" rx="29" fill="#CF92EE" fill-opacity="0.15" stroke="#231F20" stroke-width="2"/>
<path d="M63.9976 33.696C63.0824 33.3155 62.9578 33.4396 60.8568 35.5264L57.4964 38.8796L53.6671 42.7232L44.9543 34.0104C44.8604 33.9185 44.7541 33.8399 44.6392 33.7765L44.5585 33.7326C44.4487 33.6682 44.3302 33.6192 44.2072 33.586C44.081 33.5692 43.9528 33.5692 43.8267 33.586H43.7312C43.6035 33.6008 43.4779 33.633 43.3578 33.681C43.2455 33.7311 43.1398 33.7949 43.0433 33.8715L42.9406 33.9593L42.8747 34.0181L33.0932 43.836C32.7617 44.171 32.6121 44.6455 32.6907 45.1102V64.3357C32.6933 64.9261 33.0498 65.4572 33.5952 65.683C34.1412 65.9082 34.7688 65.7841 35.1871 65.3679L43.9294 56.6337L52.6421 65.3684L52.6416 65.3679C52.7356 65.4598 52.8418 65.539 52.9567 65.6023L53.0298 65.6463C53.23 65.7464 53.4506 65.799 53.6743 65.8H53.8571C53.9853 65.7852 54.1109 65.753 54.2305 65.705C54.3433 65.6549 54.449 65.5911 54.5456 65.5145L54.6554 65.4267L54.7284 65.3679L64.415 55.667C64.7245 55.3918 64.9028 54.998 64.9053 54.5833V35.0492C64.9053 34.4553 64.5468 33.9206 63.9978 33.6949L63.9976 33.696ZM61.9768 38.5426V53.9688L55.146 60.7995V45.4243C57.3201 43.2063 60.0437 40.4755 61.9768 38.5425V38.5426ZM45.3791 38.5794L52.2098 45.4101V60.7853L45.3791 53.9398V38.5646V38.5794ZM35.6195 45.4178L42.4502 38.5871V53.9623L35.6195 60.8002V45.4178Z" fill="#CF92EE"/>
</svg>
