<svg width="106" height="105" viewBox="0 0 106 105" fill="none" xmlns="http://www.w3.org/2000/svg">
<circle cx="52.8286" cy="52.2368" r="51.2368" fill="#F3D25F" stroke="#231F20" stroke-width="2"/>
<path d="M46.8902 32.7976H38.1623C37.005 32.7976 35.8951 33.2573 35.0762 34.0755C34.258 34.8943 33.7983 36.0042 33.7983 37.1616V42.3986V42.398C33.7983 43.5554 34.258 44.6658 35.0762 45.4841C35.8951 46.3023 37.0049 46.762 38.1623 46.762H46.8902C48.0475 46.762 49.1574 46.3023 49.9756 45.4841C50.7945 44.6658 51.2541 43.5554 51.2541 42.398V37.1616C51.2541 36.0042 50.7945 34.8944 49.9756 34.0755C49.1574 33.2573 48.0476 32.7976 46.8902 32.7976V32.7976ZM47.7632 42.3986L47.7626 42.398C47.7626 42.6299 47.6707 42.8515 47.5075 43.0153C47.3438 43.1791 47.1215 43.271 46.8902 43.271H38.1623C37.6801 43.271 37.2893 42.8801 37.2893 42.398V37.1615C37.2893 36.6794 37.6801 36.2885 38.1623 36.2885H46.8902C47.1215 36.2885 47.3438 36.3804 47.5075 36.5442C47.6707 36.708 47.7626 36.9302 47.7626 37.1615V42.3986L47.7632 42.3986Z" fill="black"/>
<path d="M46.8902 50.2533H38.1623C37.005 50.2533 35.8951 50.7129 35.0762 51.5312C34.258 52.35 33.7983 53.4599 33.7983 54.6173V66.836C33.7983 67.9933 34.258 69.1032 35.0762 69.9221C35.8951 70.7403 37.0049 71.2 38.1623 71.2H46.8902C48.0475 71.2 49.1574 70.7403 49.9756 69.9221C50.7945 69.1032 51.2541 67.9934 51.2541 66.836V54.6173C51.2541 53.4599 50.7945 52.35 49.9756 51.5312C49.1574 50.7129 48.0476 50.2533 46.8902 50.2533ZM47.7632 66.8363H47.7626C47.7626 67.0676 47.6707 67.2898 47.5075 67.4536C47.3438 67.6174 47.1215 67.7093 46.8902 67.7093H38.1623C37.6801 67.7093 37.2893 67.3184 37.2893 66.8362V54.6175C37.2893 54.1353 37.6801 53.7445 38.1623 53.7445H46.8902C47.1215 53.7445 47.3438 53.8364 47.5075 54.0002C47.6707 54.164 47.7626 54.3862 47.7626 54.6175V66.8362L47.7632 66.8363Z" fill="black"/>
<path d="M67.837 32.7976H59.1091C57.9517 32.7976 56.8419 33.2573 56.0236 34.0755C55.2048 34.8943 54.7451 36.0042 54.7451 37.1616V49.3803C54.7451 50.5376 55.2048 51.6475 56.0236 52.4664C56.8419 53.2846 57.9517 53.7443 59.1091 53.7443H67.837C68.9943 53.7443 70.1042 53.2846 70.923 52.4664C71.7413 51.6475 72.2009 50.5377 72.2009 49.3803V37.1616C72.2009 36.0042 71.7413 34.8944 70.923 34.0755C70.1042 33.2573 68.9943 32.7976 67.837 32.7976ZM68.71 49.3806C68.71 49.6119 68.6181 49.8341 68.4543 49.9979C68.2905 50.1617 68.0683 50.2536 67.837 50.2536H59.1091C58.6269 50.2536 58.2367 49.8627 58.2367 49.3806V37.1618C58.2367 36.6797 58.6269 36.2888 59.1091 36.2888H67.837C68.0683 36.2888 68.2905 36.3807 68.4543 36.5445C68.6181 36.7083 68.71 36.9305 68.71 37.1618V49.3806Z" fill="black"/>
<path d="M67.837 57.2357H59.1091C57.9517 57.2357 56.8419 57.6954 56.0236 58.5136C55.2048 59.3318 54.7451 60.4423 54.7451 61.5997V66.8367V66.8361C54.7451 67.9935 55.2048 69.1033 56.0236 69.9222C56.8419 70.7404 57.9517 71.2001 59.1091 71.2001H67.837C68.9943 71.2001 70.1042 70.7404 70.923 69.9222C71.7413 69.1034 72.2009 67.9935 72.2009 66.8361V61.5997C72.2009 60.4424 71.7413 59.3319 70.923 58.5136C70.1042 57.6954 68.9943 57.2357 67.837 57.2357V57.2357ZM68.71 66.8367V66.8361C68.71 67.0674 68.6181 67.2897 68.4543 67.4534C68.2905 67.6172 68.0683 67.7091 67.837 67.7091H59.1091C58.6269 67.7091 58.2367 67.3183 58.2367 66.8361V61.5997C58.2367 61.1175 58.6269 60.7266 59.1091 60.7266H67.837C68.0683 60.7266 68.2905 60.8185 68.4543 60.9823C68.6181 61.1461 68.71 61.3677 68.71 61.5996V66.8367Z" fill="black"/>
</svg>
