<svg width="141" height="141" viewBox="0 0 141 141" fill="none" xmlns="http://www.w3.org/2000/svg">
<circle cx="70.5" cy="70.5" r="70.5" fill="#FED3A1"/>
<path d="M64.625 64.625C64.625 65.7522 64.1772 66.8332 63.3802 67.6302C62.5832 68.4272 61.5022 68.875 60.375 68.875C59.2478 68.875 58.1668 68.4272 57.3698 67.6302C56.5728 66.8332 56.125 65.7522 56.125 64.625C56.125 63.4978 56.5728 62.4168 57.3698 61.6198C58.1668 60.8228 59.2478 60.375 60.375 60.375C61.5022 60.375 62.5832 60.8228 63.3802 61.6198C64.1772 62.4168 64.625 63.4978 64.625 64.625ZM81.625 68.875C82.7522 68.875 83.8332 68.4272 84.6302 67.6302C85.4272 66.8332 85.875 65.7522 85.875 64.625C85.875 63.4978 85.4272 62.4168 84.6302 61.6198C83.8332 60.8228 82.7522 60.375 81.625 60.375C80.4978 60.375 79.4168 60.8228 78.6198 61.6198C77.8228 62.4168 77.375 63.4978 77.375 64.625C77.375 65.7522 77.8228 66.8332 78.6198 67.6302C79.4168 68.4272 80.4978 68.875 81.625 68.875ZM82.9128 79.5C77.4983 79.5 72.2027 81.1022 67.6977 84.107C67.2468 84.4267 66.9382 84.9096 66.8375 85.4532C66.7367 85.9967 66.8517 86.5581 67.1581 87.0182C67.4645 87.4783 67.9381 87.801 68.4785 87.9176C69.0188 88.0343 69.5833 87.9358 70.0523 87.643C73.8607 85.104 78.3356 83.7494 82.9128 83.75H86.3C86.8636 83.75 87.4041 83.5261 87.8026 83.1276C88.2011 82.7291 88.425 82.1886 88.425 81.625C88.425 81.0614 88.2011 80.5209 87.8026 80.1224C87.4041 79.7239 86.8636 79.5 86.3 79.5H82.9128ZM37 71C37 61.9826 40.5821 53.3346 46.9584 46.9584C53.3346 40.5821 61.9826 37 71 37C80.0174 37 88.6654 40.5821 95.0416 46.9584C101.418 53.3346 105 61.9826 105 71C105 80.0174 101.418 88.6654 95.0416 95.0416C88.6654 101.418 80.0174 105 71 105C61.9826 105 53.3346 101.418 46.9584 95.0416C40.5821 88.6654 37 80.0174 37 71ZM71 41.25C67.0932 41.25 63.2246 42.0195 59.6152 43.5146C56.0057 45.0097 52.7261 47.201 49.9636 49.9636C47.201 52.7261 45.0097 56.0057 43.5146 59.6152C42.0195 63.2246 41.25 67.0932 41.25 71C41.25 74.9068 42.0195 78.7754 43.5146 82.3848C45.0097 85.9943 47.201 89.2739 49.9636 92.0364C52.7261 94.799 56.0057 96.9903 59.6152 98.4854C63.2246 99.9805 67.0932 100.75 71 100.75C78.8902 100.75 86.4572 97.6156 92.0364 92.0364C97.6156 86.4572 100.75 78.8902 100.75 71C100.75 63.1098 97.6156 55.5428 92.0364 49.9636C86.4572 44.3844 78.8902 41.25 71 41.25Z" fill="black"/>
</svg>
