<svg width="78" height="78" viewBox="0 0 78 78" fill="none" xmlns="http://www.w3.org/2000/svg">
<path d="M65.1145 17.0056C64.6912 16.5815 64.1177 16.3439 63.519 16.3439C62.9203 16.3439 62.346 16.5815 61.9227 17.0056L35.2366 43.6917L26.676 36.0784C25.7414 35.25 24.3128 35.3357 23.4842 36.2704C22.6557 37.2042 22.7415 38.6337 23.6762 39.4622L33.8265 48.4854C34.7187 49.2768 36.0726 49.2367 36.9169 48.3949L65.1136 20.1982C65.5376 19.775 65.7752 19.2007 65.7752 18.6019C65.7752 18.0032 65.5376 17.4297 65.1136 17.0064L65.1145 17.0056Z" fill="#3AE295"/>
<path d="M59.0121 31.5671C57.8021 31.8519 57.0499 33.0627 57.3316 34.2736C58.6203 39.7808 57.5527 45.575 54.3877 50.2617C51.2218 54.9484 46.2449 58.1016 40.6559 58.963C35.0661 59.8245 29.371 58.3147 24.9417 54.7987C20.5124 51.282 17.7501 46.0777 17.3205 40.4392C16.8918 34.7999 18.8342 29.2377 22.6805 25.0915C26.5261 20.9446 31.9278 18.5908 37.5828 18.5962C41.7509 18.5931 45.8169 19.881 49.2226 22.2844C49.7104 22.6518 50.3264 22.806 50.9306 22.7108C51.5341 22.6164 52.073 22.2804 52.4247 21.7809C52.7763 21.2805 52.9101 20.6598 52.7952 20.0595C52.6811 19.4592 52.3279 18.9313 51.8165 18.5961C45.4007 14.0756 37.2328 12.8364 29.7647 15.2494C22.2962 17.663 16.3989 23.448 13.8418 30.8685C11.285 38.2883 12.3667 46.479 16.763 52.9808C21.1593 59.4825 28.3571 63.5372 36.1953 63.9289C44.0336 64.3199 51.5996 61.0015 56.6218 54.9704C61.6436 48.9386 63.5356 40.8965 61.73 33.259C61.5963 32.6729 61.2336 32.1647 60.7238 31.8476C60.2132 31.5298 59.5972 31.4291 59.0119 31.5675L59.0121 31.5671Z" fill="#3AE295"/>
</svg>
