<svg width="108" height="109" viewBox="0 0 108 109" fill="none" xmlns="http://www.w3.org/2000/svg">
<circle cx="52.8286" cy="56.2368" r="51.2368" fill="#CF92EE" stroke="#231F20" stroke-width="2"/>
<path d="M29.6816 49.7317C29.6816 43.5898 34.1134 38.5683 39.9609 37.6515C40.0849 37.6915 40.2127 37.712 40.343 37.712C47.1155 37.712 52.5363 43.1514 52.5363 49.95V52.0778H29.6816V49.7317ZM54.9153 49.95C54.9153 44.6785 52.1401 40.0638 47.9785 37.487H65.7218C72.4976 37.487 77.9226 42.9298 77.9226 49.7314V52.0776H72.4521V51.1056C72.4521 48.1938 70.2009 45.7349 67.3534 45.7349C64.5058 45.7349 62.258 48.1939 62.258 51.1056V52.0776H58.077C57.398 52.0483 56.8339 52.5937 56.8339 53.2732C56.8339 53.9537 57.3984 54.4957 58.0769 54.4673H62.258V55.4463C62.258 58.3573 64.5059 60.8128 67.3534 60.8128C70.2 60.8128 72.4521 58.3578 72.4521 55.4463V54.4673H77.9226V72.9091L54.9153 72.9095V53.6298C54.9879 53.4003 54.9878 53.1512 54.9153 52.9189V49.95ZM29.6812 54.4674H52.5359V72.9092H29.6812V54.4674ZM67.3528 48.1281C68.8327 48.1281 70.0696 49.3946 70.0696 51.1057V55.4464C70.0696 57.1575 68.8327 58.4249 67.3528 58.4249C65.8768 58.4249 64.6425 57.1578 64.6425 55.4464V51.1057C64.6425 49.3944 65.8768 48.1281 67.3528 48.1281ZM41.8789 35.101C33.824 35.101 27.2999 41.6447 27.2999 49.7327V74.1034C27.2999 74.7654 27.8359 75.2999 28.4929 75.2999H79.1082C79.7693 75.2999 80.2999 74.7658 80.2999 74.1034V49.7316C80.2999 41.6441 73.7812 35.1 65.7219 35.1L41.8789 35.101Z" fill="black" stroke="black" stroke-width="0.2"/>
<circle cx="91.88" cy="15.88" r="15.88" fill="#FF0000"/>
</svg>
