<svg width="125" height="125" viewBox="0 0 125 125" fill="none" xmlns="http://www.w3.org/2000/svg">
<circle cx="62.5" cy="62.5" r="62.5" fill="#F3D25F"/>
<g clip-path="url(#clip0_173_240)">
<path d="M95.9963 72.6473L62.6149 91.9709L29.0145 72.6473L62.3959 53.3236L95.9963 72.6473Z" fill="#979C5A"/>
<path d="M95.9963 72.6473L95.9817 77.6764L62.6003 97L62.6149 91.9709L95.9963 72.6473Z" fill="#835F40"/>
<path d="M62.615 91.9709L62.6004 97L29 77.6764L29.0146 72.6473L62.615 91.9709Z" fill="#A47657"/>
<path d="M96 72.0909L95.9963 72.6473L62.615 91.9709L62.6186 91.4109L96 72.0909Z" fill="#ACA659"/>
<path d="M62.6186 91.4109L62.6149 91.9709L29.0182 72.6473V72.0909L62.6186 91.4109Z" fill="#CDC773"/>
<path d="M95.9854 76.5491C95.1165 76.8836 94.2038 77.1164 93.408 77.88C93.2072 77.9855 93.0028 78.0909 92.802 78.2C90.9329 79.1927 89.082 80.2582 87.3005 81.4982C87.1399 81.6109 86.9756 81.7236 86.815 81.84C86.7274 81.9127 86.6251 81.9818 86.5083 82.0509C86.3951 82.12 86.271 82.1891 86.1396 82.2618C85.6103 82.6145 84.9093 82.6182 84.3983 83.3273C84.2157 83.4436 84.0332 83.5564 83.8507 83.6727C83.1716 84.0909 82.4963 84.5055 81.8173 84.9055C81.6493 85.0036 81.4814 85.1018 81.3135 85.2036C81.1382 85.2218 80.974 85.2545 80.8206 85.3018C81.1236 85.0836 81.4303 84.8509 81.7442 84.5855C81.9049 84.4836 82.0691 84.3782 82.2298 84.2727C82.3941 84.1673 82.5583 84.0582 82.719 83.9527C82.8942 83.8327 83.0731 83.7127 83.2483 83.5927L83.2629 83.5818L83.2739 83.5709C83.7995 83.0218 84.3946 82.6618 85.0043 82.3273C85.603 81.9964 86.2126 81.6909 86.7493 81.2436C86.9427 81.1455 87.1362 81.0436 87.3297 80.9455C89.0893 80.0073 90.8051 79.0836 92.5026 78.1455C92.7107 78.0291 92.9225 77.9127 93.1306 77.8L93.1525 77.7891L93.1707 77.7709C93.7293 77.2145 94.3389 76.9382 94.9741 76.6691C95.3063 76.5309 95.6495 76.3927 95.989 76.2218V75.8364C95.6203 76.0364 95.2333 76.1927 94.8427 76.3564C94.2075 76.6218 93.5504 76.92 92.948 77.5127C92.7436 77.6255 92.5428 77.7382 92.3384 77.8509C90.6408 78.7891 88.9287 79.7091 87.1691 80.6473C86.9719 80.7491 86.7748 80.8509 86.5777 80.9527L86.5594 80.96L86.5448 80.9709C86.0447 81.3927 85.4496 81.6909 84.8327 82.0327C84.223 82.3673 83.5951 82.7455 83.0366 83.3273C82.865 83.4436 82.6934 83.56 82.5218 83.6764C82.3612 83.7818 82.1969 83.8909 82.0363 83.9964C81.872 84.1018 81.7114 84.2073 81.5471 84.3127L81.5362 84.32L81.5289 84.3273C80.0102 85.6073 78.6595 86.28 76.8999 86.9309C76.7064 87.0073 76.5129 87.08 76.3231 87.1564C76.1332 87.2327 75.9434 87.3091 75.7536 87.3855H75.7463L75.739 87.3927C75.5309 87.5018 75.3191 87.6109 75.1074 87.72C73.1799 88.7164 71.2304 89.6764 69.2919 90.6618C69.1167 90.7527 68.9378 90.84 68.7626 90.9309C67.8865 91.2727 67.1417 91.7564 66.4591 92.2582C66.2875 92.3855 66.1195 92.5127 65.9553 92.64L65.937 92.6545L65.9224 92.6727C65.6888 92.9782 65.4296 93.2509 65.1521 93.5018C65.0134 93.6255 64.8747 93.7382 64.7287 93.8473C64.0679 94.1964 63.3451 94.5091 62.6113 94.84V95.2182C63.3925 94.8655 64.1774 94.5273 64.9039 94.1455L64.9148 94.1382L64.9258 94.1309C65.0828 94.0145 65.2361 93.8909 65.3821 93.76C65.6705 93.5055 65.937 93.2218 66.1816 92.9055C66.3422 92.7818 66.5029 92.6618 66.6635 92.5418C67.3352 92.0473 68.0617 91.5818 68.9013 91.2509H68.9086L68.9159 91.2436C69.0948 91.1527 69.27 91.0655 69.4453 90.9745C71.3838 89.9927 73.3332 89.0291 75.2644 88.0327C75.4725 87.9236 75.6805 87.8182 75.8886 87.7091C76.0748 87.6327 76.261 87.56 76.4472 87.4836C76.637 87.4073 76.8305 87.3345 77.0203 87.2582C77.7651 86.9818 78.4441 86.6982 79.0939 86.3636C78.6376 86.7309 78.163 87.1018 77.557 87.3455C77.3562 87.4291 77.1445 87.4982 76.9218 87.56H76.9108C76.783 87.6327 76.6553 87.6982 76.5275 87.7673C76.3997 87.8327 76.2719 87.9018 76.1478 87.9709C74.1582 89.0255 72.1832 90.0945 70.2448 91.2436C70.0695 91.3491 69.8943 91.4545 69.7191 91.56C68.4998 92.1745 67.5141 92.9164 66.4554 93.6618C66.2802 93.7855 66.1013 93.9127 65.9151 94.0364H65.9078C65.6778 94.2655 65.4332 94.4836 65.1813 94.6909C65.0572 94.7927 64.9294 94.8945 64.798 94.9891C63.9949 95.2727 63.2903 95.6764 62.6003 96.1091V96.2109C63.3049 95.7673 64.0204 95.3527 64.8345 95.0655H64.8418V95.0582C64.9806 94.96 65.112 94.8582 65.2397 94.7527C65.4916 94.5455 65.7362 94.3273 65.9699 94.1018C66.1524 93.9745 66.3313 93.8509 66.5102 93.7273C67.5725 92.9782 68.5509 92.24 69.7629 91.6291C69.9381 91.52 70.1133 91.4182 70.2886 91.3127C72.2234 90.1636 74.1984 89.0982 76.188 88.0436C76.3158 87.9745 76.4399 87.9091 76.5677 87.84C76.6918 87.7745 76.8195 87.7055 76.9473 87.64C77.17 87.5818 77.3854 87.5091 77.5862 87.4255C78.3419 87.1236 78.8931 86.6255 79.448 86.1891C79.4626 86.1782 79.4772 86.1673 79.4918 86.1527C79.8569 85.9527 80.211 85.7345 80.5724 85.4873C80.8024 85.3927 81.0506 85.3273 81.3281 85.3018H81.339L81.3463 85.2945C81.5179 85.1964 81.6858 85.0945 81.8574 84.9927C82.5364 84.5891 83.2154 84.1745 83.8945 83.7564C84.077 83.64 84.2632 83.5236 84.4457 83.4073H84.453V83.3964C84.9422 82.7127 85.6139 82.7127 86.1798 82.3491C86.3112 82.2764 86.439 82.2073 86.5521 82.1382C86.6653 82.0691 86.7712 81.9964 86.8624 81.9236C87.0231 81.8073 87.1837 81.6945 87.3443 81.5818C89.1185 80.3455 90.9694 79.2836 92.8349 78.2909C93.0393 78.1818 93.2437 78.0764 93.4445 77.9673H93.4518V77.96C94.2221 77.2182 95.1128 76.9891 95.978 76.6545V76.5636L95.9854 76.5491Z" fill="#755137"/>
<path d="M64.2942 93.6291C64.433 93.52 64.568 93.4073 64.6995 93.2945C64.9623 93.0691 65.2215 92.8364 65.4734 92.6036C65.6486 92.5055 65.8202 92.4073 65.9918 92.3127C66.8606 91.8327 67.7112 91.3673 68.3793 90.7782C68.5399 90.6545 68.6969 90.5309 68.8575 90.4109C70.6135 89.0873 72.552 88.0655 74.5488 87.1164C74.7642 87.0145 74.9833 86.9091 75.206 86.8073C75.4214 86.7382 75.6331 86.6691 75.8375 86.5964C77.7139 86.1309 79.437 85.0982 81.0798 84.0255C81.2624 83.9127 81.4485 83.8073 81.6347 83.7018C81.8209 83.5964 82.0071 83.4909 82.1933 83.3818C82.3649 83.28 82.5364 83.1782 82.708 83.0764C84.2413 82.0218 85.6212 81.6764 86.9135 80.5345C87.0924 80.4255 87.2749 80.3127 87.4575 80.2C87.6364 80.0873 87.8152 79.9745 87.9941 79.8655C89.2463 79.0836 90.5021 78.2945 91.7725 77.52C91.9733 77.3964 92.1741 77.2764 92.3785 77.1564C93.6635 76.4836 94.8902 75.9455 95.9817 75.2655V75.1636C94.8829 75.8509 93.6453 76.3964 92.3384 77.08C92.1339 77.2 91.9331 77.3236 91.7287 77.4473C90.4583 78.2255 89.1988 79.0109 87.9467 79.7964C87.7678 79.9091 87.5889 80.0218 87.41 80.1309C87.2275 80.2436 87.045 80.3564 86.8661 80.4655H86.8588C85.5847 81.6 84.2084 81.9418 82.6606 83.0036C82.489 83.1055 82.3174 83.2073 82.1458 83.3091C81.9633 83.4182 81.7771 83.5236 81.5873 83.6255C81.4011 83.7309 81.2149 83.8364 81.0287 83.9491C79.3859 85.0255 77.6701 86.0509 75.8083 86.5127H75.8047C75.5966 86.5891 75.3848 86.6582 75.1695 86.7273H75.1658C74.9431 86.8327 74.7241 86.9345 74.5087 87.04C72.5118 87.9927 70.566 89.0145 68.8028 90.3455C68.6421 90.4655 68.4852 90.5891 68.3245 90.7164C67.6638 91.2982 66.8205 91.7636 65.948 92.2436C65.7727 92.3418 65.5975 92.4364 65.4223 92.5382H65.4186V92.5455C65.1631 92.7782 64.9039 93.0109 64.6374 93.24C64.506 93.3527 64.3745 93.4618 64.2358 93.5673C63.6663 93.8618 63.1224 94.1273 62.6003 94.3891V94.4836C63.137 94.2145 63.6919 93.9418 64.2796 93.64L64.2942 93.6291Z" fill="#755137"/>
<path d="M62.6115 93.2618C63.0021 93.0327 63.3744 92.7782 63.7139 92.4655C63.8344 92.3673 63.9585 92.2655 64.079 92.1673C64.3199 91.9709 64.5536 91.7745 64.7945 91.5818C64.9552 91.4691 65.1121 91.36 65.2728 91.2545C65.9226 90.8291 66.6016 90.4618 67.4558 90.2291L67.4777 90.2218L67.496 90.2109C67.6749 90.1091 67.8501 90.0109 68.029 89.9127C69.9894 88.8255 71.9863 87.8109 73.9649 86.7709C74.173 86.6618 74.3811 86.5527 74.5892 86.4436C74.768 86.3709 74.9433 86.2945 75.1222 86.2145C75.301 86.1345 75.4763 86.0509 75.6551 85.9709C77.7835 85.2109 79.178 84.1673 80.7806 82.9927C80.9559 82.88 81.1384 82.7745 81.3173 82.6618C82.9491 81.7782 84.6722 80.7491 86.5304 79.4509C86.6946 79.3491 86.8589 79.2473 87.0232 79.1491C88.1805 78.4255 89.3304 77.7091 90.4804 77C90.6848 76.8727 90.8892 76.7491 91.09 76.6255C91.9917 76.1273 93.0504 75.7018 94.0543 75.2C94.7479 74.8545 95.416 74.4655 95.9928 73.9891V73.5345C95.4051 74.0764 94.6786 74.5055 93.901 74.8945C92.9117 75.3891 91.8493 75.8145 90.9221 76.3273H90.9148C90.7103 76.4582 90.5023 76.5818 90.2978 76.7091C89.1479 77.4182 87.9979 78.1382 86.8407 78.8582C86.6727 78.96 86.5085 79.0618 86.3442 79.1636H86.3369C84.4897 80.4582 82.7739 81.4836 81.1457 82.3636H81.1384C80.9559 82.48 80.7733 82.5891 80.5908 82.7055H80.5871V82.7127C78.9736 83.8945 77.6155 84.9091 75.531 85.6545H75.5237L75.5164 85.6618C75.3375 85.7455 75.1587 85.8291 74.9834 85.9091C74.8082 85.9891 74.6293 86.0655 74.4541 86.1382H74.4468L74.4395 86.1455C74.2278 86.2545 74.0197 86.3673 73.8116 86.4764C71.8329 87.5164 69.836 88.5309 67.8684 89.6218C67.6931 89.72 67.5215 89.8145 67.3463 89.9127C66.4556 90.1564 65.7473 90.5418 65.0866 90.9745C64.9186 91.0836 64.758 91.1964 64.5937 91.3127H64.5901V91.32C64.3418 91.5127 64.1046 91.7127 63.8636 91.9127C63.7431 92.0109 63.6227 92.1127 63.5022 92.2109H63.4986V92.2182C63.2284 92.4655 62.9327 92.6764 62.6224 92.8691V93.2691L62.6115 93.2618Z" fill="#755137"/>
<path d="M62.604 96.4182C62.2609 96.24 61.9067 96.0764 61.5307 95.9418C61.3993 95.8473 61.2715 95.7455 61.1474 95.6436C60.8955 95.4364 60.6509 95.2182 60.4209 94.9964H60.4136C60.2275 94.8655 60.0486 94.7418 59.8733 94.6146C58.8147 93.8691 57.829 93.1273 56.6097 92.5127C56.4345 92.4073 56.2592 92.3018 56.084 92.1964C54.1455 91.0473 52.1705 89.9782 50.1809 88.9236C50.0532 88.8545 49.929 88.7891 49.8013 88.72C49.6735 88.6545 49.5457 88.5855 49.4179 88.5164H49.407C49.1843 88.4546 48.9726 88.3818 48.7718 88.3018C48.1658 88.0582 47.6912 87.6873 47.2349 87.32C47.8883 87.6509 48.5637 87.9382 49.3084 88.2146C49.5019 88.2873 49.6917 88.3636 49.8816 88.44C50.0714 88.5127 50.2576 88.5891 50.4401 88.6655C50.6482 88.7746 50.8563 88.88 51.0644 88.9891C52.9956 89.9855 54.945 90.9491 56.8835 91.9309C57.0587 92.0218 57.2376 92.1091 57.4128 92.2H57.4201L57.4274 92.2073C58.2671 92.5346 58.9899 93 59.6653 93.4982C59.8295 93.6182 59.9902 93.7418 60.1471 93.8618C60.3881 94.1782 60.6582 94.4618 60.9466 94.7164C61.0927 94.8473 61.246 94.9709 61.403 95.0873L61.4139 95.0945L61.4249 95.1018C61.8009 95.3018 62.1951 95.4873 62.5967 95.6727V95.2982C62.2536 95.1418 61.9177 94.9782 61.6001 94.8109C61.4541 94.7018 61.3117 94.5855 61.1766 94.4655C60.8955 94.2182 60.6363 93.9418 60.4063 93.6364L60.3917 93.6182L60.3735 93.6036C60.2092 93.4764 60.0413 93.3491 59.8697 93.2218C59.187 92.72 58.4423 92.24 57.5661 91.8946C57.3873 91.8036 57.212 91.7164 57.0368 91.6255C55.0947 90.64 53.1489 89.68 51.2214 88.6836C51.0096 88.5746 50.8015 88.4655 50.5898 88.3564H50.5825L50.5752 88.3491C50.3854 88.2727 50.1955 88.1964 50.0057 88.12C49.8159 88.0436 49.6224 87.9673 49.4289 87.8946C47.6693 87.2436 46.3186 86.5709 44.7999 85.2873L44.7926 85.28L44.7816 85.2727C44.6174 85.1673 44.4531 85.0618 44.2925 84.9564C44.1282 84.8509 43.9676 84.7455 43.8033 84.6364C43.6317 84.52 43.4601 84.4036 43.2922 84.2873C42.7336 83.7055 42.1057 83.3309 41.4961 82.9927C40.8828 82.6545 40.2877 82.3527 39.7839 81.9309L39.7693 81.92L39.7511 81.9127C39.5539 81.8109 39.3568 81.7091 39.1597 81.6073C37.4037 80.6691 35.6879 79.7491 33.9904 78.8109C33.786 78.6982 33.5852 78.5855 33.3807 78.4727C32.7784 77.88 32.1213 77.5818 31.4861 77.3164C30.8399 77.0473 30.2193 76.8073 29.6425 76.3346L29.6315 76.3273L29.6206 76.32C29.4125 76.1964 29.2044 76.0727 28.9963 75.9491V76.3491C29.1424 76.4364 29.2884 76.5236 29.4344 76.6109C30.0587 77.1164 30.7194 77.3673 31.351 77.6327C31.9898 77.8982 32.5958 78.1782 33.1544 78.7346L33.1726 78.7527L33.1946 78.7636C33.4026 78.88 33.6144 78.9964 33.8225 79.1091C35.52 80.0473 37.2394 80.9673 38.9954 81.9055C39.1889 82.0073 39.3824 82.1055 39.5758 82.2073C40.1125 82.6509 40.7221 82.96 41.3209 83.2909C41.9269 83.6255 42.5256 83.9855 43.0512 84.5346L43.0622 84.5455L43.0768 84.5564C43.252 84.6764 43.4273 84.7964 43.6061 84.9164C43.7704 85.0255 43.9311 85.1309 44.0953 85.24C44.256 85.3455 44.4166 85.4473 44.5809 85.5527C44.8948 85.8146 45.1978 86.0509 45.5045 86.2691C45.3475 86.2255 45.1869 86.1891 45.0116 86.1709C44.8437 86.0727 44.6758 85.9745 44.5078 85.8727C43.8288 85.4691 43.1498 85.0545 42.4708 84.64C42.2883 84.5236 42.1057 84.4109 41.9232 84.2946C41.4121 83.5855 40.7112 83.5782 40.1819 83.2291C40.0504 83.1564 39.9263 83.0873 39.8131 83.0182C39.7 82.9491 39.5978 82.88 39.5065 82.8073C39.3459 82.6909 39.1852 82.5746 39.021 82.4618C37.2431 81.2218 35.3886 80.1564 33.5195 79.1636C33.3187 79.0545 33.1142 78.9491 32.9135 78.8436C31.7745 77.7527 30.3945 77.7491 29.2446 76.9673H29.2409C29.157 76.9236 29.073 76.88 28.9927 76.8364V76.9309C29.062 76.9673 29.1314 77.0036 29.2008 77.0364C30.3836 77.8327 31.7526 77.8327 32.8587 78.9055H32.8623L32.8696 78.9127C33.0741 79.0182 33.2785 79.1273 33.4793 79.2364C35.3448 80.2291 37.1956 81.2909 38.9698 82.5273C39.1305 82.64 39.2911 82.7527 39.4517 82.8691C39.543 82.9418 39.6489 83.0145 39.762 83.0836C39.8789 83.1527 40.003 83.2255 40.1344 83.2946C40.7002 83.6582 41.372 83.6582 41.8575 84.3418V84.3491H41.8684C42.051 84.4691 42.2372 84.5855 42.4197 84.7018C43.0987 85.12 43.7777 85.5346 44.4567 85.9382C44.6283 86.04 44.7963 86.1382 44.9678 86.24H44.9751L44.9861 86.2473C45.2635 86.2764 45.5118 86.3418 45.7418 86.4327C46.0995 86.6764 46.4573 86.8982 46.8223 87.0982C46.837 87.1091 46.8516 87.12 46.8662 87.1345C47.4211 87.5709 47.9686 88.0655 48.728 88.3709C48.9324 88.4546 49.1441 88.5273 49.3668 88.5855C49.4946 88.6509 49.6187 88.72 49.7465 88.7855C49.8743 88.8509 49.9984 88.92 50.1262 88.9855C52.1158 90.04 54.0907 91.1091 56.0256 92.2546C56.2008 92.36 56.376 92.4655 56.5513 92.5709C57.7633 93.1855 58.7453 93.92 59.804 94.6691C59.9792 94.7927 60.1581 94.9164 60.3443 95.0436C60.5743 95.2691 60.8189 95.4873 61.0744 95.6946C61.2022 95.8 61.3336 95.9018 61.465 96H61.4687L61.476 96.0073C61.8666 96.1455 62.2317 96.3164 62.5858 96.5018V96.4073L62.604 96.4182Z" fill="#976D4F"/>
<path d="M34.5526 78.4837C35.823 79.2618 37.0825 80.0473 38.331 80.8291C38.5099 80.9418 38.6888 81.0546 38.8677 81.1637C39.0502 81.2764 39.2327 81.3891 39.4116 81.4982C40.7039 82.64 42.0839 82.9818 43.6171 84.0364C43.7887 84.1382 43.9603 84.2437 44.1319 84.3455C44.318 84.4546 44.5042 84.56 44.6904 84.6655C44.8766 84.7709 45.0628 84.8764 45.2453 84.9891C46.8881 86.0655 48.6112 87.0946 50.4876 87.5637C50.6957 87.6364 50.9038 87.7091 51.1192 87.7746C51.3419 87.8764 51.5572 87.9818 51.7763 88.0837C53.7695 89.0364 55.7117 90.0546 57.4676 91.3782C57.6282 91.4982 57.7852 91.6218 57.9458 91.7455C58.6139 92.3346 59.4645 92.8 60.3334 93.28C60.5049 93.3746 60.6802 93.4727 60.8517 93.5709C61.1036 93.8037 61.3628 94.0364 61.6257 94.2618C61.7571 94.3746 61.8922 94.4873 62.0309 94.5927H62.0382C62.2317 94.6946 62.4142 94.7891 62.6004 94.8836V94.7891C62.4288 94.7018 62.2572 94.6182 62.082 94.5273C61.9469 94.4218 61.8119 94.3127 61.6804 94.2C61.4176 93.9709 61.1584 93.7382 60.9028 93.5055V93.4982C60.724 93.3964 60.5487 93.3018 60.3735 93.2037C59.5047 92.7237 58.6577 92.2582 57.9969 91.68C57.8363 91.5527 57.6793 91.4291 57.5187 91.3091C55.7555 89.9782 53.8097 88.9564 51.8128 88.0037C51.5937 87.8982 51.3784 87.7964 51.1557 87.6946H51.152C50.9366 87.6255 50.7249 87.5527 50.5168 87.48H50.5132C48.6513 87.0182 46.9355 85.9927 45.2928 84.9164C45.1066 84.8037 44.9204 84.6982 44.7342 84.5927C44.548 84.4873 44.3618 84.3818 44.1757 84.2727C44.0041 84.1709 43.8325 84.0691 43.6609 83.9673C42.1094 82.9055 40.7368 82.56 39.4627 81.4327H39.4554C39.2729 81.3164 39.094 81.2037 38.9078 81.0909C38.7289 80.9782 38.55 80.8691 38.3712 80.7564C37.119 79.9746 35.8632 79.1855 34.5891 78.4073C34.3883 78.2837 34.1839 78.16 33.9795 78.0437C32.1286 77.0764 30.4128 76.3927 29.0475 75.1782H29.0438V75.1709C29.0438 75.1709 29.0146 75.1564 29 75.1491V75.2473C30.3799 76.4691 32.0994 77.1564 33.9393 78.1164C34.1437 78.2364 34.3445 78.3564 34.5453 78.48L34.5526 78.4837Z" fill="#976D4F"/>
<path d="M29.011 73.92L29.0438 73.9382C29.2446 74.0509 29.4454 74.1636 29.6462 74.28C30.3362 75.0982 31.2817 75.6727 32.2783 76.1709C33.2822 76.6727 34.3409 77.0982 35.2426 77.5964C35.447 77.72 35.6515 77.8473 35.8523 77.9709C37.0022 78.68 38.1522 79.4 39.3094 80.12C39.4737 80.2218 39.638 80.3236 39.8022 80.4255C41.6604 81.72 43.3835 82.7527 45.0153 83.6364C45.1942 83.7455 45.3768 83.8546 45.552 83.9673C47.151 85.1418 48.5455 86.1855 50.6775 86.9455C50.8527 87.0255 51.0316 87.1091 51.2105 87.1891C51.3857 87.2691 51.5646 87.3455 51.7435 87.4182C51.9515 87.5273 52.1596 87.6364 52.3677 87.7455C54.3464 88.7855 56.3432 89.8 58.3036 90.8873C58.4825 90.9855 58.6614 91.0873 58.8366 91.1855L58.8549 91.1964L58.8768 91.2036C59.7347 91.4364 60.41 91.8036 61.0599 92.2291C61.2205 92.3346 61.3811 92.4436 61.5381 92.5564C61.7754 92.7455 62.0127 92.9418 62.2536 93.1418C62.3704 93.24 62.4909 93.3382 62.6077 93.4364V92.9927C62.5639 92.9564 62.5165 92.9164 62.4727 92.88C62.2317 92.68 61.9908 92.4836 61.7498 92.2873H61.7462V92.28C61.5782 92.1636 61.4176 92.0509 61.2497 91.9418C60.5889 91.5091 59.8807 91.1236 58.99 90.88C58.8147 90.7818 58.6431 90.6836 58.4679 90.5891C56.5002 89.4982 54.5033 88.4836 52.5247 87.4436C52.3166 87.3346 52.1049 87.2218 51.8968 87.1127H51.8895L51.8822 87.1055C51.7033 87.0327 51.5281 86.9564 51.3528 86.8764C51.1776 86.7964 50.9987 86.7127 50.8198 86.6291H50.8125L50.8052 86.6218C48.7171 85.8764 47.3627 84.8655 45.7528 83.68H45.7491V83.6727C45.5593 83.5564 45.3768 83.4473 45.1942 83.3382H45.1869C43.5624 82.4545 41.8466 81.4291 39.9957 80.1382H39.9884C39.8241 80.0291 39.6562 79.9273 39.4919 79.8291C38.3347 79.1091 37.1847 78.3891 36.0348 77.68C35.8304 77.5527 35.6223 77.4255 35.4178 77.3018H35.4105C34.4796 76.7855 33.4209 76.36 32.4316 75.8655C31.4423 75.3709 30.5296 74.8073 29.8871 74.0364L29.8689 74.0145L29.8433 74C29.6352 73.88 29.4235 73.76 29.2154 73.6436C29.1497 73.6073 29.0803 73.5709 29.0146 73.5309V73.9236L29.011 73.92Z" fill="#976D4F"/>
<path d="M55.029 34.5418L59.2747 32.08L59.2564 39.6946L55.0071 42.1527L55.029 34.5418Z" fill="#ACC5E8"/>
<path d="M50.995 32.2218L55.2443 29.7636L59.2746 32.08L55.0289 34.5418L50.995 32.2218Z" fill="#D2921B"/>
<path d="M55.029 34.5418L55.0071 42.1527L50.9768 39.8363L50.9951 32.2218L55.029 34.5418Z" fill="#94B1D3"/>
<path d="M55.7773 32.8801L60.0267 30.4219L60.023 32.5128L55.7737 34.971L55.7773 32.8801Z" fill="#E9E5D9"/>
<path d="M50.3124 29.7382L54.5617 27.28L60.0267 30.4218L55.7774 32.88L50.3124 29.7382Z" fill="#F9F8F7"/>
<path d="M52.0684 29.8619L54.7808 28.291L58.2708 30.2982L55.5584 31.8691L52.0684 29.8619Z" fill="#D8D0BC"/>
<path d="M55.7774 32.88L55.7737 34.9709L50.3124 31.8291V29.7382L55.7774 32.88Z" fill="#D8D0BC"/>
<path d="M54.7808 31.4219V28.291L52.0684 29.8619L54.7808 31.4219Z" fill="#E9E5D9"/>
<path d="M62.9216 84.9745L88.4103 70.2182L88.4067 71.5709L62.918 86.3236L62.9216 84.9745Z" fill="#ACAFB3"/>
<path d="M37.8674 70.5636L63.3561 55.8109L88.4104 70.2182L62.9217 84.9745L37.8674 70.5636Z" fill="#BCBEC2"/>
<path d="M62.9217 84.9745L62.918 86.3236L37.8601 71.9164L37.8674 70.5636L62.9217 84.9745Z" fill="#83858A"/>
<path d="M63.7466 61.7091L84.5187 49.6873L84.4567 70.5564L63.6882 82.5782L63.7466 61.7091Z" fill="#F9F8F7"/>
<path d="M63.7466 61.7091L84.5187 49.6873L84.4567 65.2764L63.6882 77.2982L63.7466 61.7091Z" fill="#ACC5E8"/>
<path d="M62.4982 59.5236L63.7467 61.7091L63.6883 82.5782L40.693 69.3527L40.7514 48.4836L42.0109 47.7418L62.4982 59.5236Z" fill="#E9E5D9"/>
<path d="M62.4982 59.5236L63.7467 61.7091L63.6883 77.2982L40.693 64.0727L40.7514 48.4836L42.0109 47.7418L62.4982 59.5236Z" fill="#94B1D3"/>
<path d="M52.2874 41.6655L62.4982 59.5236L42.0109 47.7418L52.2874 41.6655Z" fill="#94B1D3"/>
<path d="M52.2983 39.0218L35.5164 48.9164L37.7724 50.2473L40.7514 48.4836L42.0108 47.7418L52.2873 41.6655L62.4982 59.5236L63.7467 61.7091L66.711 66.8873L68.9817 68.1818L52.2983 39.0218Z" fill="#6D4B35"/>
<path d="M52.2983 39.0218L73.0668 27L89.7501 56.16L68.9817 68.1818L52.2983 39.0218Z" fill="#845E40"/>
<path d="M55.635 65.5236L55.6314 67.7164L53.4629 66.4691L53.4702 64.2764L55.635 65.5236Z" fill="#2F3F70"/>
<path d="M55.6386 64.52V65.2655L53.4701 64.0182L53.4737 63.2727L55.6386 64.52Z" fill="#2F3F70"/>
<path d="M53.2475 63.1455L53.2438 63.8873L51.079 62.6436L51.0826 61.8982L53.2475 63.1455Z" fill="#2F3F70"/>
<path d="M53.2438 64.1455L53.2365 66.3418L51.0717 65.0946L51.079 62.9018L53.2438 64.1455Z" fill="#2F3F70"/>
<path d="M50.8563 61.5091L55.865 64.3891L55.854 68.1018L50.8453 65.2218L50.8563 61.5091V61.5091ZM55.6313 67.7164L55.6386 65.5236L53.4738 64.2764L53.4665 66.4691L55.6313 67.7164M53.2402 66.3418L53.2475 64.1491L51.0826 62.9055L51.0753 65.0982L53.2402 66.3418M55.6386 65.2655V64.52L53.4738 63.2727V64.0182L55.6386 65.2655ZM53.2475 63.8909V63.1455L51.0826 61.9018V62.6473L53.2475 63.8909Z" fill="#989B9E"/>
<path d="M56.7119 64.8764L61.7205 67.7564L61.7096 71.4691L56.7009 68.5891L56.7119 64.8764ZM61.4869 71.0836L61.4942 68.8909L59.3294 67.6436L59.3221 69.8364L61.4869 71.0836M59.0957 69.7091L59.103 67.5164L56.9382 66.2727L56.9309 68.4655L59.0957 69.7091M61.4942 68.6327V67.8873L59.3294 66.64V67.3855L61.4942 68.6327ZM59.103 67.2582V66.5127L56.9382 65.2691V66.0146L59.103 67.2582" fill="#989B9E"/>
<path d="M61.4906 68.8909L61.4833 71.0836L59.3185 69.8364L59.3258 67.6436L61.4906 68.8909Z" fill="#2F3F70"/>
<path d="M61.4943 67.8873L61.4906 68.6327L59.3258 67.3855L59.3295 66.64L61.4943 67.8873Z" fill="#2F3F70"/>
<path d="M59.103 66.5091L59.0994 67.2545L56.9346 66.0109L56.9382 65.2654L59.103 66.5091Z" fill="#2F3F70"/>
<path d="M59.0994 67.5127L59.0921 69.7091L56.9272 68.4618L56.9345 66.2691L59.0994 67.5127Z" fill="#2F3F70"/>
<path d="M49.042 60.5782L49.0055 74.1091L43.2557 70.8L43.2959 57.2727L49.042 60.5782Z" fill="#6D4B35"/>
<path d="M48.4323 66.6L48.4286 67.8436L43.8945 65.2364L43.8982 63.9927L48.4323 66.6Z" fill="#845E40"/>
<path d="M51.8858 49.0436L51.8822 50.6764L49.3085 49.1964L49.3121 47.5636L51.8858 49.0436Z" fill="#31386C"/>
<path d="M48.8375 46.7455L55.394 50.5164L55.3794 55.4109L48.8229 51.64L48.8375 46.7455V46.7455ZM51.8748 52.8509V51.2182L49.3048 49.7382V51.3709L51.8748 52.8509ZM51.8821 50.6764V49.0473L49.3121 47.5673V49.1964L51.8821 50.6764M54.9085 54.5964V52.9636L52.3567 51.4945V53.1273L54.9085 54.5964ZM54.9158 52.4218V50.7927L52.364 49.3236V50.9527L54.9158 52.4218Z" fill="#96979A"/>
<path d="M51.8821 51.2218L51.8748 52.8509L49.3011 51.3709L49.3048 49.7382L51.8821 51.2218Z" fill="#31386C"/>
<path d="M54.9194 50.7891L54.9121 52.4182L52.3567 50.9491L52.3603 49.3164L54.9194 50.7891Z" fill="#31386C"/>
<path d="M54.9121 52.9636L54.9085 54.5964L52.3494 53.1236L52.3567 51.4945L54.9121 52.9636Z" fill="#31386C"/>
<path d="M71.8146 67.3164L71.8183 68.0618L69.6498 69.3091V68.5636L71.8146 67.3164Z" fill="#405591"/>
<path d="M69.4234 68.6945L69.427 69.44L67.2585 70.6836V69.9382L69.4234 68.6945Z" fill="#405591"/>
<path d="M67.0322 69.8109L72.0409 66.9309L72.0518 70.6436L67.0432 73.5236L67.0322 69.8109V69.8109ZM71.8255 70.5164L71.8182 68.32L69.6534 69.5673L69.6607 71.7636L71.8255 70.5164ZM69.4343 71.8909L69.427 69.6945L67.2622 70.9418L67.2695 73.1382L69.4343 71.8909M71.8182 68.0655V67.32L69.6497 68.5673V69.3127L71.8182 68.0655ZM69.427 69.44V68.6945L67.2586 69.9418V70.6873L69.427 69.44Z" fill="#C9CBCE"/>
<path d="M71.8183 68.32L71.8256 70.5164L69.6571 71.76L69.6534 69.5673L71.8183 68.32Z" fill="#405591"/>
<path d="M69.427 69.6945L69.4343 71.8909L67.2659 73.1382L67.2622 70.9418L69.427 69.6945Z" fill="#405591"/>
<path d="M75.2826 66.3309L75.2899 68.5236L73.1214 69.7709L73.1141 67.5745L75.2826 66.3309Z" fill="#405591"/>
<path d="M72.8878 66.4436L77.8965 63.5636L77.9074 67.2764L72.8988 70.1564L72.8878 66.4436ZM75.2899 68.5236L75.2826 66.3309L73.1178 67.5782L73.1251 69.7745L75.2899 68.5273M77.6811 67.1527L77.6738 64.9564L75.509 66.2L75.5163 68.3927L77.6811 67.1491M75.2826 66.0727V65.3273L73.1142 66.5745V67.32L75.2826 66.0727ZM77.6738 64.6982V63.9527L75.5053 65.1964V65.9418L77.6738 64.6982Z" fill="#C9CBCE"/>
<path d="M77.6702 63.9491L77.6738 64.6982L75.5054 65.9418V65.1964L77.6702 63.9491Z" fill="#405591"/>
<path d="M77.6739 64.9527L77.6812 67.1491L75.5127 68.3927L75.509 66.2L77.6739 64.9527Z" fill="#405591"/>
<path d="M75.279 65.3273L75.2826 66.0727L73.1141 67.3164V66.5709L75.279 65.3273Z" fill="#405591"/>
<path d="M48.9507 74.5491L49.4216 74.2764L49.418 75.2946L48.947 75.5673L48.9507 74.5491Z" fill="#ACAFB3"/>
<path d="M42.0692 70.5927L42.5438 70.32L49.4216 74.2764L48.9507 74.5491L42.0692 70.5927Z" fill="#BCBEC2"/>
<path d="M48.9506 74.5491L48.947 75.5673L42.0656 71.6109L42.0692 70.5927L48.9506 74.5491Z" fill="#83858A"/>
<path d="M48.4797 75.1564L48.9507 74.8836L48.947 75.5673L48.4761 75.84L48.4797 75.1564Z" fill="#ACAFB3"/>
<path d="M41.5983 71.2L42.0692 70.9273L48.9506 74.8836L48.4797 75.1564L41.5983 71.2Z" fill="#BCBEC2"/>
<path d="M48.4797 75.1564L48.476 75.84L41.5946 71.8836L41.5983 71.2L48.4797 75.1564Z" fill="#83858A"/>
<path d="M48.0052 75.7382L48.4798 75.4655L48.4762 75.84L48.0016 76.1127L48.0052 75.7382Z" fill="#ACAFB3"/>
<path d="M41.1274 71.7818L41.5984 71.5091L48.4798 75.4655L48.0052 75.7382L41.1274 71.7818Z" fill="#BCBEC2"/>
<path d="M48.0052 75.7382L48.0016 76.1127L41.1238 72.1564L41.1274 71.7818L48.0052 75.7382Z" fill="#83858A"/>
<path d="M55.1458 43.9964L75.9142 31.9746L75.7792 31.7455L55.0107 43.7673" fill="#6D4B35"/>
<path d="M57.9239 48.8582L78.6923 36.8328L78.5609 36.6073L57.7925 48.6291" fill="#6D4B35"/>
<path d="M60.7058 53.7164L81.4742 41.6946L81.3428 41.4655L60.5743 53.4873" fill="#6D4B35"/>
<path d="M63.4875 58.5782L84.2559 46.5528L84.1245 46.3273L63.3524 58.3491" fill="#6D4B35"/>
<path d="M66.2692 63.4364L87.0377 51.4146L86.9026 51.1855L66.1342 63.2073" fill="#6D4B35"/>
<path d="M68.3464 85.5564C68.0653 85.5564 67.8353 85.3273 67.8353 85.0473V79.7164C67.8353 79.4364 68.0653 79.2073 68.3464 79.2073C68.6275 79.2073 68.8575 79.4364 68.8575 79.7164V85.0473C68.8575 85.3273 68.6275 85.5564 68.3464 85.5564Z" fill="#835F40"/>
<path d="M68.3465 80.7891C70.9373 80.7891 73.0375 78.3226 73.0375 75.28C73.0375 72.2374 70.9373 69.7709 68.3465 69.7709C65.7557 69.7709 63.6554 72.2374 63.6554 75.28C63.6554 78.3226 65.7557 80.7891 68.3465 80.7891Z" fill="#7BA76D"/>
<g style="mix-blend-mode:multiply">
<path d="M69.668 70.0182C70.515 71.0146 71.037 72.3891 71.037 73.9091C71.037 76.9527 68.9379 79.4182 66.3459 79.4182C65.8823 79.4182 65.4479 79.3164 65.0244 79.1709C65.875 80.1709 67.0469 80.7891 68.3465 80.7891C70.9384 80.7891 73.0375 78.3236 73.0375 75.28C73.0375 72.7818 71.6101 70.6946 69.668 70.0182V70.0182Z" fill="#E5E6E6"/>
</g>
</g>
<defs>
<clipPath id="clip0_173_240">
<rect width="67" height="70" fill="white" transform="translate(29 27)"/>
</clipPath>
</defs>
</svg>
