<svg width="50" height="51" viewBox="0 0 50 51" fill="none" xmlns="http://www.w3.org/2000/svg">
<g clip-path="url(#clip0_317_9597)">
<circle cx="25" cy="25.5" r="24" transform="rotate(-180 25 25.5)" fill="white" stroke="#231F20" stroke-width="2"/>
<path d="M21.2283 12.1099C21.5514 12.1095 21.861 12.2394 22.0873 12.4703L34.101 24.7843C34.3264 25.0098 34.4534 25.3152 34.4534 25.6341C34.4534 25.953 34.3264 26.2588 34.101 26.4843L22.0873 38.1976C21.6071 38.6229 20.8781 38.5965 20.4301 38.1377C19.9822 37.6785 19.9742 36.949 20.4113 36.4797L31.5422 25.6009L20.3694 14.1524C20.0304 13.8067 19.932 13.2918 20.1197 12.8455C20.3074 12.3997 20.7444 12.1097 21.2284 12.1101L21.2283 12.1099Z" fill="#231F20"/>
</g>
<defs>
<clipPath id="clip0_317_9597">
<rect width="50" height="50" fill="white" transform="translate(50 50.5) rotate(-180)"/>
</clipPath>
</defs>
</svg>
