<svg width="106" height="105" viewBox="0 0 106 105" fill="none" xmlns="http://www.w3.org/2000/svg">
<circle cx="52.8286" cy="52.7632" r="51.2368" fill="white" stroke="#231F20" stroke-width="2"/>
<path d="M56.5358 33.094C54.3583 32.2179 51.9605 32.0496 49.6814 32.6134C47.4035 33.1771 45.3607 34.4439 43.8439 36.2343C42.8433 37.6188 43.0623 39.536 44.3488 40.6597C45.6341 41.7825 47.564 41.741 48.8008 40.564C49.4244 39.8263 50.2636 39.3018 51.1997 39.0643C52.1369 38.828 53.1236 38.8903 54.0228 39.2418C55.3784 39.741 56.2038 41.1162 56.0067 42.5467C55.858 44.9099 54.7675 45.9682 52.7018 47.7687C50.636 49.5704 47.6286 52.1976 47.5628 57.2053V58.2301H47.5616C47.5616 60.0561 49.0418 61.535 50.8665 61.535C52.6925 61.535 54.1726 60.056 54.1726 58.2301V57.2549C54.1726 55.3217 55.081 54.479 57.0649 52.743L57.0637 52.7441C60.2535 50.464 62.2836 46.8995 62.6165 42.9929C62.8124 40.9076 62.326 38.8142 61.2286 37.0285C60.1323 35.2429 58.485 33.862 56.5358 33.0942L56.5358 33.094Z" fill="black"/>
<path d="M50.935 66.0958C49.109 66.0958 47.6289 67.576 47.6289 69.4007C47.6289 71.2267 49.109 72.7068 50.935 72.7068C52.7598 72.7068 54.2399 71.2267 54.2399 69.4007V69.335C54.2041 67.5356 52.7344 66.0956 50.935 66.0956V66.0958Z" fill="black"/>
</svg>
