<svg width="125" height="125" viewBox="0 0 125 125" fill="none" xmlns="http://www.w3.org/2000/svg">
<circle cx="62.5" cy="62.5" r="61.5" fill="white" stroke="#231F20" stroke-width="2"/>
<path d="M66.9353 38.9664C64.3299 37.9181 61.461 37.7168 58.7341 38.3912C56.0087 39.0657 53.5646 40.5815 51.7497 42.7236C50.5525 44.3801 50.8146 46.6739 52.3538 48.0185C53.8917 49.3619 56.2007 49.3122 57.6805 47.904C58.4267 47.0213 59.4307 46.3938 60.5507 46.1096C61.672 45.8269 62.8526 45.9014 63.9285 46.322C65.5505 46.9192 66.538 48.5647 66.3022 50.2763C66.1242 53.1037 64.8195 54.3699 62.3479 56.5241C59.8763 58.6799 56.278 61.8233 56.1993 67.8148V69.041H56.1979C56.1979 71.2257 57.9688 72.9952 60.1521 72.9952C62.3369 72.9952 64.1078 71.2256 64.1078 69.041V67.8741C64.1078 65.5611 65.1946 64.5529 67.5683 62.4758L67.5669 62.4772C71.3834 59.749 73.8123 55.4843 74.2106 50.8101C74.4451 48.315 73.863 45.8104 72.55 43.6738C71.2384 41.5374 69.2674 39.8852 66.9352 38.9665L66.9353 38.9664Z" fill="black"/>
<path d="M60.2337 78.4521C58.049 78.4521 56.2781 80.223 56.2781 82.4063C56.2781 84.591 58.049 86.3619 60.2337 86.3619C62.4171 86.3619 64.1879 84.591 64.1879 82.4063V82.3277C64.1452 80.1747 62.3866 78.4518 60.2337 78.4518V78.4521Z" fill="black"/>
</svg>
