<svg width="106" height="105" viewBox="0 0 106 105" fill="none" xmlns="http://www.w3.org/2000/svg">
<circle cx="52.8286" cy="52.2368" r="51.2368" fill="#F1AE9C" stroke="#231F20" stroke-width="2"/>
<path d="M47.362 74.384C40.0844 74.384 29.2539 60.9752 29.2539 51.9671C29.2539 38.7942 38.4176 29.6 51.5363 29.6C65.4185 29.6 76.7139 39.4949 76.7139 51.6613C76.7139 58.2693 70.9226 59.1405 65.8195 59.9081C59.9609 60.7916 54.4263 61.6237 53.0381 68.7144C52.0713 73.6468 49.0684 74.3836 47.3624 74.3836L47.362 74.384ZM51.5356 32.6577C40.2158 32.6577 32.3111 40.5987 32.3111 51.9671C32.3111 59.752 42.1789 71.3262 47.3614 71.3262C47.921 71.3262 49.4069 71.3262 50.0369 68.1279C51.8408 58.9179 59.3386 57.7891 65.3624 56.884C71.2578 55.9975 73.6579 55.2757 73.6579 51.6582C73.6583 41.1823 63.7359 32.6573 51.5355 32.6573L51.5356 32.6577Z" fill="black"/>
<path d="M47.1239 48.3686C43.3659 48.3686 40.3081 45.3109 40.3081 41.5528C40.3081 37.7947 43.3659 34.7369 47.1239 34.7369C50.882 34.7369 53.9398 37.7947 53.9398 41.5528C53.9398 45.3109 50.882 48.3686 47.1239 48.3686V48.3686ZM47.1239 37.7949C45.0508 37.7949 43.3659 39.4797 43.3659 41.553C43.3659 43.6262 45.0507 45.311 47.1239 45.311C49.1972 45.311 50.882 43.6231 50.882 41.553C50.882 39.4828 49.1972 37.7949 47.1239 37.7949Z" fill="black"/>
<path d="M42.7287 63.4589C39.1481 63.4589 36.231 60.5448 36.231 56.9611C36.231 53.3774 39.1481 50.4634 42.7287 50.4634C46.3124 50.4634 49.2264 53.3774 49.2264 56.9611C49.2264 60.5448 46.3124 63.4589 42.7287 63.4589ZM42.7287 53.5211C40.833 53.5211 39.2887 55.0654 39.2887 56.9611C39.2887 58.8568 40.8299 60.4011 42.7287 60.4011C44.6275 60.4011 46.1687 58.8568 46.1687 56.9611C46.1687 55.0654 44.6244 53.5211 42.7287 53.5211Z" fill="black"/>
<path d="M63.1147 52.3837C59.7085 52.3837 56.9351 49.6133 56.9351 46.2041C56.9351 42.7948 59.7055 40.0244 63.1147 40.0244C66.5239 40.0244 69.2944 42.7979 69.2944 46.2041C69.2947 49.6102 66.5212 52.3837 63.1147 52.3837ZM63.1147 43.082C61.3934 43.082 59.9928 44.4825 59.9928 46.2039C59.9928 47.9252 61.3934 49.3258 63.1147 49.3258C64.8361 49.3258 66.2366 47.9252 66.2366 46.2039C66.2369 44.4822 64.8364 43.082 63.1147 43.082Z" fill="black"/>
</svg>
