<svg width="462" height="394" viewBox="0 0 462 394" fill="none" xmlns="http://www.w3.org/2000/svg">
<path d="M378.564 120.731L234.648 204.592L89.7842 120.731L233.7 36.8705L378.564 120.731Z" fill="url(#paint0_linear_231_3956)"/>
<path d="M342.201 120.731H124.867L233.547 51.1469L342.201 120.731Z" fill="#FFFBAB"/>
<path d="M342.201 120.731L234.52 183.485L126.147 120.731L233.828 57.9769L342.201 120.731Z" fill="url(#paint1_linear_231_3956)"/>
<g opacity="0.36">
<path d="M193.086 110.204C198.797 98.8801 206.325 88.0702 213.624 77.671C217.311 72.433 221.101 67.4773 225.326 62.9325L126.147 120.731L180.205 152.031C182.869 137.601 186.454 123.401 193.112 110.204H193.086Z" fill="#680540"/>
</g>
<g opacity="0.71">
<path d="M166.403 112.848C174.239 104.17 193.214 82.678 195.007 80.5982L126.147 120.705L152.472 135.932C154.7 127.202 160.334 119.524 166.403 112.823V112.848Z" fill="#680540"/>
</g>
<path d="M342.201 120.731L234.52 183.485L233.828 57.9769L342.201 120.731Z" fill="url(#paint2_linear_231_3956)"/>
<g opacity="0.46">
<path d="M249.295 149.618C238.898 139.912 237.951 108.458 234.033 95.311L234.52 183.485L292.214 149.874C292.214 149.874 260.332 159.965 249.295 149.643V149.618Z" fill="#680540"/>
</g>
<path d="M234.648 204.592L234.187 344.222L108.76 260.362L89.7842 120.731L234.648 204.592Z" fill="url(#paint3_linear_231_3956)"/>
<path opacity="0.37" d="M112.754 258.231C111.269 247.395 108.913 236.816 107.146 226.006C104.483 209.599 103.151 193.14 103.51 176.501C103.792 163.226 104.586 146.28 109.451 132.106L89.8098 120.731L108.785 260.336L113.728 263.648C113.343 261.877 113.011 260.079 112.78 258.231H112.754Z" fill="#FFFB64"/>
<path d="M234.648 204.592L234.187 344.197C234.187 344.197 230.166 325.607 229.321 286.116C228.476 246.625 227.682 209.907 227.682 209.907C227.682 209.907 181.358 181.046 154.06 165.512C126.711 149.977 89.7842 120.731 89.7842 120.731L234.648 204.592Z" fill="url(#paint4_linear_231_3956)"/>
<path d="M228.784 212.192C228.784 216.994 225.352 220.845 221.101 220.845C216.85 220.845 213.419 216.968 213.419 212.192C213.419 207.416 216.85 203.539 221.101 203.539C225.352 203.539 228.784 207.416 228.784 212.192Z" fill="#FFFB64"/>
<path d="M229.321 212.808C229.321 217.353 226.095 221.025 222.1 221.025C218.105 221.025 214.879 217.353 214.879 212.808C214.879 208.264 218.105 204.592 222.1 204.592C226.095 204.592 229.321 208.264 229.321 212.808Z" fill="#994900"/>
<path d="M222.1 204.592C221.28 204.592 220.512 204.771 219.795 205.054C218.54 206.543 217.772 208.546 217.772 210.754C217.772 215.299 220.999 218.971 224.994 218.971C225.813 218.971 226.581 218.791 227.298 218.483C228.553 217.019 229.347 214.991 229.347 212.783C229.347 208.238 226.12 204.566 222.126 204.566L222.1 204.592Z" fill="#601202"/>
<path d="M228.451 211.525C228.451 214.323 226.479 216.609 224.046 216.609C221.613 216.609 219.642 214.349 219.642 211.525C219.642 208.7 221.613 206.44 224.046 206.44C226.479 206.44 228.451 208.726 228.451 211.525Z" fill="url(#paint5_linear_231_3956)"/>
<path opacity="0.63" d="M226.863 207.673C227.298 208.777 227.196 209.47 226.889 210.626C226.607 211.704 226.044 212.86 224.942 213.348C222.715 214.349 220.384 213.656 219.616 211.499V211.55C219.616 214.349 221.588 216.634 224.021 216.634C226.453 216.634 228.425 214.375 228.425 211.55C228.425 210.01 227.81 208.623 226.837 207.699L226.863 207.673Z" fill="#D16800"/>
<path d="M221.229 211.499C221.306 211.679 221.409 211.858 221.537 211.987C222.663 213.194 224.354 210.908 224.917 209.958C225.864 208.289 224.174 206.44 222.587 207.647C221.69 208.315 220.794 210.266 221.255 211.499H221.229Z" fill="#FFCE00"/>
<path d="M222.739 209.545C223.097 209.596 223.634 209.109 223.711 208.699C223.788 208.135 223.174 207.853 222.765 208.186C222.305 208.545 222.126 209.494 222.765 209.571L222.739 209.545Z" fill="#FFFB64"/>
<path d="M225.915 215.35C226.76 214.914 227.477 213.758 227.785 212.885C228.118 211.884 227.938 210.934 227.682 209.933C227.734 211.679 226.274 214.092 224.558 214.657C223.508 214.991 222.433 214.734 221.434 214.272C221.024 214.092 220.743 213.758 220.359 213.553C220.307 213.553 220.512 214.015 220.538 214.015C220.666 214.221 220.768 214.4 220.896 214.58C221.588 215.504 222.561 215.864 223.662 215.941C224.507 215.992 225.147 215.736 225.915 215.35Z" fill="#994900"/>
<path d="M226.735 317.262C226.735 322.038 223.304 325.915 219.053 325.915C214.802 325.915 211.37 322.038 211.37 317.262C211.37 312.486 214.802 308.609 219.053 308.609C223.304 308.609 226.735 312.486 226.735 317.262Z" fill="#FFFB64"/>
<path d="M227.273 317.878C227.273 322.423 224.046 326.095 220.051 326.095C216.057 326.095 212.83 322.423 212.83 317.878C212.83 313.333 216.057 309.661 220.051 309.661C224.046 309.661 227.273 313.333 227.273 317.878Z" fill="#994900"/>
<path d="M220.051 309.661C219.232 309.661 218.464 309.841 217.747 310.124C216.492 311.613 215.724 313.616 215.724 315.824C215.724 320.369 218.95 324.04 222.945 324.04C223.764 324.04 224.533 323.861 225.25 323.578C226.505 322.115 227.273 320.086 227.273 317.878C227.273 313.359 224.046 309.661 220.051 309.661Z" fill="#601202"/>
<path d="M226.428 316.62C226.428 319.419 224.43 321.704 221.998 321.704C219.565 321.704 217.567 319.444 217.567 316.62C217.567 313.795 219.539 311.536 221.998 311.536C224.456 311.536 226.428 313.821 226.428 316.62Z" fill="url(#paint6_linear_231_3956)"/>
<path opacity="0.63" d="M224.84 312.743C225.275 313.821 225.173 314.54 224.866 315.695C224.584 316.774 224.021 317.929 222.919 318.417C220.692 319.419 218.361 318.725 217.567 316.568V316.62C217.567 319.419 219.539 321.704 221.998 321.704C224.456 321.704 226.428 319.444 226.428 316.62C226.428 315.054 225.787 313.693 224.84 312.768V312.743Z" fill="#D16800"/>
<path d="M219.181 316.568C219.257 316.748 219.36 316.928 219.488 317.056C220.615 318.263 222.305 315.978 222.843 315.028C223.79 313.359 222.1 311.536 220.512 312.717C219.616 313.385 218.694 315.336 219.155 316.568H219.181Z" fill="#FFCE00"/>
<path d="M220.691 314.615C221.049 314.666 221.586 314.179 221.662 313.769C221.739 313.205 221.126 312.923 220.716 313.256C220.256 313.615 220.077 314.563 220.716 314.615H220.691Z" fill="#FFFB64"/>
<path d="M223.867 320.42C224.712 319.983 225.429 318.828 225.736 317.955C226.069 316.954 225.89 316.004 225.634 315.002C225.685 316.748 224.225 319.162 222.51 319.727C221.46 320.06 220.384 319.804 219.385 319.342C219.001 319.162 218.694 318.828 218.31 318.623C218.259 318.623 218.464 319.085 218.489 319.085C218.592 319.29 218.72 319.47 218.848 319.65C219.514 320.574 220.512 320.934 221.613 320.985C222.458 321.036 223.124 320.779 223.867 320.394V320.42Z" fill="#994900"/>
<path d="M124.893 252.967C124.893 257.178 121.871 260.593 118.132 260.593C114.393 260.593 111.372 257.178 111.372 252.967C111.372 248.756 114.393 245.315 118.132 245.315C121.871 245.315 124.893 248.73 124.893 252.967Z" fill="#FFFB64"/>
<path d="M125.379 253.506C125.379 257.512 122.536 260.747 119.028 260.747C115.52 260.747 112.652 257.512 112.652 253.506C112.652 249.501 115.494 246.265 119.028 246.265C122.562 246.265 125.379 249.501 125.379 253.506Z" fill="#994900"/>
<path d="M119.003 246.265C118.286 246.265 117.594 246.419 116.954 246.676C115.853 247.986 115.162 249.757 115.162 251.709C115.162 255.714 118.004 258.95 121.512 258.95C122.229 258.95 122.895 258.796 123.561 258.539C124.662 257.229 125.354 255.458 125.354 253.506C125.354 249.501 122.511 246.265 119.003 246.265Z" fill="#601202"/>
<path d="M124.611 252.402C124.611 254.867 122.87 256.87 120.719 256.87C118.568 256.87 116.826 254.867 116.826 252.402C116.826 249.937 118.568 247.934 120.719 247.934C122.87 247.934 124.611 249.937 124.611 252.402Z" fill="url(#paint7_linear_231_3956)"/>
<path opacity="0.63" d="M123.228 248.987C123.612 249.937 123.535 250.579 123.254 251.58C122.998 252.53 122.511 253.532 121.538 253.994C119.566 254.893 117.518 254.251 116.826 252.351C116.826 254.867 118.568 256.87 120.719 256.87C122.87 256.87 124.611 254.867 124.611 252.402C124.611 251.041 124.048 249.809 123.228 248.987Z" fill="#D16800"/>
<path d="M118.235 252.351C118.311 252.505 118.388 252.659 118.491 252.787C119.489 253.866 120.975 251.837 121.461 250.99C122.306 249.526 120.795 247.909 119.412 248.936C118.619 249.526 117.825 251.247 118.235 252.325V252.351Z" fill="#FFCE00"/>
<path d="M119.566 250.628C119.898 250.654 120.358 250.244 120.409 249.885C120.486 249.398 119.949 249.116 119.566 249.423C119.156 249.757 119.003 250.577 119.566 250.628Z" fill="#FFFB64"/>
<path d="M122.383 255.766C123.126 255.381 123.766 254.353 124.048 253.583C124.355 252.71 124.201 251.863 123.945 250.99C123.996 252.53 122.716 254.662 121.205 255.149C120.283 255.432 119.31 255.201 118.465 254.79C118.107 254.636 117.851 254.328 117.518 254.148C117.492 254.148 117.671 254.559 117.671 254.559C117.774 254.739 117.876 254.893 118.004 255.072C118.619 255.894 119.464 256.202 120.437 256.254C121.18 256.279 121.769 256.074 122.409 255.74L122.383 255.766Z" fill="#994900"/>
<path d="M110.347 145.278C110.347 149.489 107.326 152.93 103.587 152.93C99.8481 152.93 96.8264 149.515 96.8264 145.278C96.8264 141.042 99.8481 137.627 103.587 137.627C107.326 137.627 110.347 141.042 110.347 145.278Z" fill="#FFFB64"/>
<path d="M110.808 145.817C110.808 149.823 107.966 153.058 104.458 153.058C100.949 153.058 98.0813 149.823 98.0813 145.817C98.0813 141.812 100.924 138.577 104.458 138.577C107.992 138.577 110.808 141.812 110.808 145.817Z" fill="#994900"/>
<path d="M104.458 138.577C103.741 138.577 103.075 138.731 102.409 138.987C101.308 140.297 100.616 142.069 100.616 144.02C100.616 148.026 103.459 151.261 106.967 151.261C107.684 151.261 108.376 151.107 109.016 150.85C110.117 149.541 110.808 147.769 110.808 145.817C110.808 141.812 107.966 138.577 104.458 138.577Z" fill="#601202"/>
<path d="M110.066 144.713C110.066 147.178 108.324 149.181 106.173 149.181C104.022 149.181 102.281 147.178 102.281 144.713C102.281 142.248 104.022 140.22 106.173 140.22C108.324 140.22 110.066 142.223 110.066 144.713Z" fill="url(#paint8_linear_231_3956)"/>
<path opacity="0.63" d="M108.657 141.298C109.041 142.274 108.965 142.89 108.683 143.892C108.427 144.842 107.94 145.843 106.967 146.305C105.021 147.204 102.947 146.562 102.255 144.662V144.713C102.255 147.178 103.997 149.181 106.148 149.181C108.299 149.181 110.04 147.178 110.04 144.713C110.04 143.352 109.477 142.12 108.632 141.298H108.657Z" fill="#D16800"/>
<path d="M103.689 144.662C103.741 144.816 103.843 144.97 103.945 145.099C104.944 146.177 106.429 144.148 106.916 143.301C107.761 141.838 106.25 140.22 104.867 141.273C104.099 141.863 103.28 143.584 103.689 144.662Z" fill="#FFCE00"/>
<path d="M105.02 142.965C105.353 142.991 105.813 142.581 105.864 142.222C105.941 141.709 105.404 141.478 105.046 141.76C104.637 142.068 104.484 142.914 105.046 142.965H105.02Z" fill="#FFFB64"/>
<path d="M107.812 148.077C108.555 147.692 109.195 146.665 109.451 145.894C109.758 145.021 109.579 144.174 109.374 143.301C109.425 144.842 108.145 146.973 106.609 147.461C105.687 147.769 104.714 147.512 103.869 147.127C103.51 146.947 103.254 146.665 102.921 146.485C102.87 146.485 103.075 146.896 103.075 146.896C103.177 147.076 103.28 147.23 103.408 147.409C103.997 148.231 104.867 148.565 105.84 148.591C106.583 148.642 107.172 148.411 107.812 148.077Z" fill="#994900"/>
<path d="M209.706 214.221C205.736 223.413 208.323 289.043 206.505 300.777C206.428 301.265 133.83 250.63 127.248 250.759C141.64 264.599 205.301 305.707 211.396 308.634C211.396 308.634 211.985 220.614 209.706 214.246V214.221Z" fill="#FFFB64"/>
<path d="M209.706 214.221L209.398 305.681L127.248 250.733L114.803 159.272L209.706 214.221Z" fill="url(#paint9_linear_231_3956)"/>
<path d="M120.974 162.841L114.803 159.272L127.248 250.733L209.398 305.681L209.424 299.468L132.575 248.063L120.974 162.841Z" fill="#6B0558"/>
<path d="M134.905 249.629L132.575 248.063L120.974 162.841L114.803 159.272L127.248 250.733L131.986 253.917C132.703 252.325 133.727 250.887 134.905 249.655V249.629Z" fill="#44002F"/>
<path d="M129.348 224.491L123.996 226.982L132.037 248.268L151.422 261.235C151.422 261.235 151.806 247.113 140.206 241.592C140.206 241.592 139.847 226.674 129.348 224.517V224.491Z" fill="#6B0558"/>
<path d="M124.022 226.982L127.248 250.759L146.608 263.726C146.608 263.726 146.992 249.603 135.417 244.083C135.417 244.083 134.521 229.164 124.022 227.008V226.982Z" fill="#FFCE00"/>
<path d="M124.022 226.982L127.248 250.759L127.043 231.501C127.043 231.501 130.526 233.119 135.417 244.057C135.417 244.057 134.521 229.139 124.022 226.982Z" fill="#FFFB64"/>
<path d="M136.057 176.27C141.23 178.119 145.968 180.353 150.577 183.408C156.646 187.414 162.715 192.986 163.074 200.946C163.663 214.118 160.667 217.79 155.135 221.924C149.809 225.904 138.516 225.082 134.393 219.356C130.449 213.887 136.57 206.492 139.463 208.7C140.129 209.214 138.798 211.807 142.306 211.807C144.79 211.807 147.504 208.649 145.353 205.465C143.919 203.359 141.051 202.024 137.031 203.975C130.219 207.262 129.195 218.611 133.625 223.233C145.353 235.532 166.249 225.904 167.35 208.495C167.837 200.843 166.787 195.553 162.664 189.109C161.819 187.799 160.667 186.413 159.361 185.052L141.973 174.986C139.361 174.37 137.005 174.447 136.083 176.27H136.057Z" fill="#6B0558"/>
<path d="M203.816 282.624C201.588 287.682 194.443 289.865 189.066 285.859C192.958 291.611 207.811 302.189 209.424 299.468V262.75C209.424 259.155 206.095 252.12 201.588 245.931C191.294 231.861 168.528 235.019 165.225 251.709C163.996 258 170.935 266.986 178.439 266.088C182.869 265.549 184.584 262.904 184.636 260.336C184.738 256.485 180.743 255.278 178.669 256.613C175.75 258.513 178.234 259.977 177.952 260.773C176.672 264.213 167.581 261.261 167.965 254.533C168.375 247.498 177.465 240.719 184.072 241.181C190.961 241.669 195.468 243.158 202.023 254.585C205.993 261.492 207.273 274.69 203.79 282.624H203.816Z" fill="#6B0558"/>
<path d="M188.093 201.69L209.706 214.221L209.629 238.768C209.629 238.768 198.899 236.354 200.077 220.486C200.077 220.486 189.014 217.096 188.093 201.69Z" fill="#FFCE00"/>
<path d="M188.093 201.69C189.04 217.071 200.077 220.486 200.077 220.486C200.077 220.486 190.013 211.807 190.653 205.465C190.781 204.361 204.43 213.425 209.706 214.323V214.246L188.093 201.716V201.69Z" fill="#FFFB64"/>
<path d="M120.59 167.977L123.689 190.855C124.841 179.557 131.192 176.399 140.155 178.684C142.28 179.223 143.945 179.223 145.225 178.992C136.826 175.757 129.015 171.135 120.59 167.951V167.977Z" fill="#44002F"/>
<path d="M209.398 278.336C209.296 274.304 208.989 268.732 208.015 264.804C205.557 254.97 204.533 253.84 200 247.652C189.706 233.581 166.94 236.765 163.663 253.429C162.433 259.72 169.373 268.707 176.876 267.808C181.306 267.269 183.022 264.624 183.073 262.057C183.176 258.179 179.181 256.998 177.107 258.333C174.162 260.233 176.671 261.697 176.39 262.493C175.135 265.934 166.019 262.981 166.403 256.254C166.812 249.218 175.878 242.439 182.51 242.902C189.399 243.389 193.906 244.879 200.461 256.305C204.43 263.212 205.48 272.199 205.019 280.03C204.712 284.832 203.406 288.196 201.024 289.633C195.8 292.792 187.836 291.251 187.836 291.251L209.398 305.681L209.501 278.259C209.501 278.259 209.449 278.31 209.398 278.31V278.336Z" fill="#FFCE00"/>
<path d="M169.092 265.317C171.345 267.089 174.059 268.142 176.876 267.808C181.306 267.269 183.022 264.624 183.073 262.057C183.073 261.928 183.048 261.825 183.022 261.697C179.821 270.607 169.604 265.6 169.066 265.317H169.092Z" fill="#FF8B00"/>
<path d="M177.337 241.284C184.892 239.666 193.189 241.9 198.822 246.163C188.067 233.838 166.838 237.355 163.663 253.429C163.125 256.177 164.149 259.463 166.096 262.185C161.358 254.662 169.348 243.004 177.312 241.284H177.337Z" fill="#FFFB64"/>
<path d="M188.528 291.354C192.369 293.382 197.337 294.024 201.204 291.713C205.711 289.017 206.684 284.858 206.479 279.851C206.3 275.229 205.532 270.915 204.174 266.807C205.045 271.223 205.25 275.819 204.994 280.056C204.687 284.858 203.381 288.221 200.999 289.659C196.697 292.253 190.525 291.662 188.502 291.379L188.528 291.354Z" fill="#FFFB64"/>
<path d="M171.832 263.597C174.136 265.266 177.465 264.804 177.824 262.416C177.977 261.415 178.285 260.516 179.616 259.874C180.666 259.36 181.819 259.36 182.869 260.516C182.023 257.923 178.925 257.229 177.132 258.359C174.187 260.259 176.697 261.723 176.415 262.519C175.878 263.982 173.906 264.239 171.857 263.597H171.832Z" fill="#FFFB64"/>
<path d="M180.999 228.446C180.999 235.532 176.006 241.284 169.886 241.284C163.765 241.284 158.772 235.532 158.772 228.446C158.772 221.359 163.74 215.607 169.886 215.607C176.031 215.607 180.999 221.359 180.999 228.446Z" fill="#6B0558"/>
<path d="M178.259 230.217C178.259 237.099 173.394 242.696 167.401 242.696C161.409 242.696 156.518 237.099 156.518 230.217C156.518 223.336 161.384 217.738 167.401 217.738C173.419 217.738 178.259 223.336 178.259 230.217Z" fill="#FFCE00"/>
<path d="M177.414 225.364C178.285 231.989 176.697 237.124 172.625 239.949C167.683 243.364 161.46 241.31 158.208 236.893C160.129 240.385 163.509 242.722 167.401 242.722C173.394 242.722 178.259 237.561 178.259 230.679C178.259 228.959 177.952 226.879 177.414 225.39V225.364Z" fill="#FF8B00"/>
<path d="M158.208 227.47C159.565 222.566 164.405 218.996 169.168 219.972C172.728 220.665 175.903 222.36 177.542 225.724C175.98 221.051 172.036 217.738 167.401 217.738C161.409 217.738 156.518 223.336 156.518 230.217C156.518 231.886 156.825 233.453 157.338 234.916C156.979 232.477 157.696 229.755 158.208 227.47Z" fill="#FFFB64"/>
<path d="M148.426 232.836C146.71 233.709 143.048 234.043 141.64 235.378C141.64 235.378 142.408 236.79 142.92 236.893C145.481 237.278 148.067 237.509 150.577 236.816C151.806 236.482 154.649 234.685 155.033 233.426C155.238 232.707 154.213 230.961 153.522 230.782C151.909 230.32 149.245 232.425 148.4 232.836H148.426Z" fill="#6B0558"/>
<path d="M147.146 231.321C145.071 232.374 143.202 233.684 141.64 235.378C144.226 235.738 146.787 235.995 149.322 235.301C150.551 234.967 153.368 233.17 153.778 231.912C154.546 229.447 148.349 230.731 147.171 231.321H147.146Z" fill="#FFCE00"/>
<path d="M153.189 232.811C153.471 232.502 153.676 232.194 153.752 231.912C154.521 229.447 148.324 230.731 147.146 231.321C145.071 232.374 143.202 233.684 141.64 235.378C142.05 235.43 142.459 235.481 142.895 235.532C145.404 233.196 149.527 232.657 153.189 232.785V232.811Z" fill="#FFFB64"/>
<path d="M179.719 211.831C181.178 210.496 182.792 207.158 184.559 206.311C184.559 206.311 185.609 207.543 185.532 208.057C184.943 210.624 184.277 213.166 182.715 215.323C181.947 216.376 179.258 218.404 177.901 218.327C177.132 218.276 175.878 216.658 175.929 215.965C176.082 214.245 179.027 212.473 179.693 211.831H179.719Z" fill="#6B0558"/>
<path d="M178.719 210.06C180.435 208.468 182.381 207.184 184.532 206.286C183.943 208.879 183.251 211.421 181.715 213.552C180.947 214.605 178.258 216.633 176.926 216.556C174.314 216.402 177.771 210.959 178.745 210.06H178.719Z" fill="#FFCE00"/>
<path d="M184.276 206.646C184.276 206.646 184.404 206.543 184.481 206.492C184.481 206.415 184.506 206.338 184.532 206.261C182.355 207.159 180.435 208.469 178.719 210.035C177.746 210.934 174.315 216.352 176.901 216.531C177.08 216.531 177.285 216.506 177.516 216.454C177.362 212.089 181.562 209.547 184.276 206.62V206.646Z" fill="#FFFB64"/>
<path d="M170.55 208.161C171.139 206.286 170.858 202.563 171.959 200.946C171.959 200.946 173.47 201.485 173.7 201.973C174.494 204.489 175.185 207.031 174.904 209.676C174.776 210.985 173.47 214.092 172.266 214.708C171.575 215.042 169.68 214.298 169.398 213.656C168.681 212.115 170.32 209.085 170.601 208.187L170.55 208.161Z" fill="#6B0558"/>
<path d="M168.81 207.134C169.501 204.9 170.526 202.794 171.934 200.946C172.728 203.462 173.419 206.004 173.138 208.649C173.01 209.958 171.704 213.065 170.5 213.681C168.17 214.837 168.426 208.418 168.81 207.159V207.134Z" fill="#FFCE00"/>
<path d="M170.372 206.235C170.628 204.617 170.935 202.563 172.036 201.228C172.011 201.125 171.985 201.048 171.959 200.946C170.525 202.794 169.527 204.926 168.835 207.134C168.451 208.392 168.195 214.631 170.449 213.681C169.783 211.319 170.013 208.572 170.397 206.235H170.372Z" fill="#FFFB64"/>
<path d="M185.762 219.818C187.606 219.176 190.448 216.763 192.369 216.686C192.369 216.686 192.856 218.226 192.574 218.689C191.012 220.82 189.373 222.874 187.094 224.209C185.967 224.851 182.689 225.647 181.486 225.031C180.82 224.671 180.282 222.694 180.615 222.078C181.435 220.589 184.84 220.126 185.737 219.818H185.762Z" fill="#6B0558"/>
<path d="M185.557 217.815C187.785 217.045 190.064 216.634 192.394 216.686C190.832 218.817 189.193 220.871 186.914 222.206C185.788 222.874 182.51 223.67 181.332 223.053C179.001 221.847 184.328 218.252 185.557 217.841V217.815Z" fill="#FFCE00"/>
<path d="M191.882 217.353C192.036 217.122 192.241 216.917 192.394 216.686C190.064 216.634 187.785 217.071 185.557 217.815C184.302 218.252 179.001 221.847 181.332 223.028C181.588 223.156 181.946 223.207 182.356 223.207C181.87 218.842 187.708 217.841 191.908 217.327L191.882 217.353Z" fill="#FFFB64"/>
<path d="M188.246 230.012C190.192 230.269 193.777 229.396 195.57 230.166C195.57 230.166 195.314 231.758 194.853 232.04C192.497 233.247 190.141 234.351 187.504 234.531C186.198 234.608 182.92 233.863 182.126 232.759C181.665 232.143 182.075 230.14 182.664 229.729C184.072 228.754 187.324 229.883 188.246 229.986V230.012Z" fill="#6B0558"/>
<path d="M188.937 228.137C191.267 228.446 193.495 229.087 195.569 230.192C193.213 231.398 190.832 232.502 188.22 232.682C186.914 232.759 183.636 232.015 182.842 230.911C181.305 228.805 187.656 227.958 188.962 228.137H188.937Z" fill="#FFCE00"/>
<path d="M183.943 231.655C186.12 230.14 188.962 228.959 191.753 228.728C190.832 228.471 189.91 228.266 188.937 228.137C187.631 227.958 181.28 228.805 182.816 230.911C183.021 231.193 183.405 231.45 183.892 231.681C183.892 231.681 183.892 231.655 183.943 231.629V231.655Z" fill="#FFFB64"/>
<path d="M151.115 241.849C149.783 243.261 146.48 244.853 145.635 246.573C145.635 246.573 146.813 247.626 147.35 247.575C149.886 247.036 152.395 246.368 154.521 244.853C155.571 244.108 157.594 241.464 157.542 240.128C157.491 239.358 155.929 238.1 155.238 238.151C153.548 238.305 151.781 241.181 151.14 241.849H151.115Z" fill="#6B0558"/>
<path d="M149.399 240.847C147.837 242.542 146.531 244.442 145.635 246.573C148.17 246.034 150.68 245.392 152.805 243.852C153.855 243.107 155.904 240.462 155.827 239.127C155.699 236.559 150.321 239.897 149.399 240.847Z" fill="#FFCE00"/>
<path d="M155.417 240.539C155.673 240 155.852 239.487 155.827 239.101C155.699 236.534 150.321 239.872 149.399 240.822C148.58 241.72 147.811 242.696 147.146 243.698C149.399 241.669 152.626 240.283 155.391 240.514L155.417 240.539Z" fill="#FFFB64"/>
<path d="M157.645 248.217C156.877 250.014 154.265 252.684 154.034 254.61C154.034 254.61 155.519 255.201 156.006 254.97C158.234 253.557 160.411 252.068 161.896 249.886C162.638 248.807 163.663 245.598 163.125 244.339C162.818 243.621 160.897 242.979 160.231 243.261C158.669 243.98 157.978 247.344 157.619 248.191L157.645 248.217Z" fill="#6B0558"/>
<path d="M155.673 247.857C154.751 250.014 154.162 252.273 154.034 254.61C156.262 253.198 158.439 251.734 159.924 249.552C160.641 248.473 161.691 245.264 161.153 244.005C160.154 241.617 156.185 246.65 155.647 247.883L155.673 247.857Z" fill="#FFCE00"/>
<path d="M161.23 245.906C161.358 245.135 161.358 244.442 161.179 244.006C160.18 241.618 156.211 246.65 155.673 247.883C155.443 248.448 155.212 248.987 155.033 249.552C156.595 247.78 158.797 246.548 161.23 245.931V245.906Z" fill="#FFFB64"/>
<path d="M174.136 230.217C174.136 234.685 170.987 238.28 167.094 238.28C163.202 238.28 160.052 234.659 160.052 230.217C160.052 225.775 163.202 222.155 167.094 222.155C170.987 222.155 174.136 225.775 174.136 230.217Z" fill="#03D8BE"/>
<path d="M171.627 224.08C172.318 225.826 172.165 226.931 171.678 228.754C171.217 230.474 170.321 232.297 168.554 233.093C165.02 234.685 161.307 233.555 160.078 230.14V230.217C160.078 234.685 163.227 238.28 167.12 238.28C171.012 238.28 174.162 234.659 174.162 230.217C174.162 227.752 173.163 225.57 171.652 224.08H171.627Z" fill="#00AF9A"/>
<path d="M162.664 230.14C162.766 230.423 162.92 230.705 163.15 230.936C164.943 232.862 167.632 229.241 168.503 227.727C170.013 225.082 167.325 222.155 164.789 224.029C163.381 225.082 161.921 228.189 162.664 230.14Z" fill="#4DFFE5"/>
<path d="M165.044 227.055C165.607 227.132 166.451 226.363 166.553 225.696C166.706 224.799 165.709 224.338 165.044 224.876C164.329 225.44 164.022 226.953 165.044 227.055Z" fill="white"/>
<path d="M170.09 236.303C171.422 235.609 172.6 233.761 173.061 232.374C173.599 230.782 173.317 229.267 172.907 227.701C172.984 230.5 170.679 234.351 167.939 235.224C166.275 235.763 164.533 235.327 162.997 234.608C162.357 234.3 161.896 233.786 161.281 233.453C161.204 233.427 161.537 234.171 161.563 234.197C161.742 234.505 161.921 234.813 162.152 235.096C163.227 236.585 164.79 237.15 166.531 237.253C167.862 237.33 168.912 236.919 170.09 236.328V236.303Z" fill="#007884"/>
<path d="M160.282 189.109C157.875 185.36 152.882 180.841 148.861 178.812L141.947 174.986L114.803 159.272L118.849 189.083C119.976 177.785 126.352 174.627 135.315 176.912C135.366 176.912 135.417 176.912 135.443 176.938C139.95 178.658 144.124 180.712 148.196 183.408C154.265 187.414 160.334 192.986 160.692 200.92C161.281 214.092 158.285 217.79 152.754 221.898C147.427 225.878 136.134 225.056 132.011 219.33C128.068 213.861 134.163 206.466 137.082 208.674C137.748 209.188 136.416 211.781 139.924 211.781C142.408 211.781 145.123 208.623 142.972 205.413C141.538 203.308 138.695 201.973 134.649 203.924C127.863 207.211 126.813 218.56 131.243 223.182C142.972 235.455 163.868 225.852 164.994 208.443C165.481 200.792 164.431 195.502 160.282 189.057V189.109Z" fill="#FFCE00"/>
<path d="M142.587 209.573C141.87 210.369 140.744 210.831 139.668 210.497C138.209 210.035 138.567 208.264 137.082 207.776C135.622 207.288 134.316 208.161 133.343 209.496C134.598 208.366 136.032 207.93 137.082 208.7C137.748 209.214 136.416 211.807 139.924 211.807C141.922 211.807 144.047 209.778 143.689 207.313C143.509 208.186 143.125 208.982 142.587 209.573Z" fill="#FF8B00"/>
<path d="M160.129 197.402C160.436 198.532 160.641 199.713 160.718 200.946C161.307 214.118 158.311 217.815 152.779 221.924C149.374 224.466 143.535 225.031 138.695 223.618C138.721 223.644 138.772 223.695 138.797 223.721C138.797 223.721 138.823 223.721 138.849 223.721C155.084 231.167 166.608 212.937 160.154 197.377L160.129 197.402Z" fill="#FFFB64"/>
<path d="M119.028 166.564C122.127 164.664 152.728 181.637 156.467 184.589C154.111 182.227 151.32 180.07 148.861 178.838L141.947 175.012L114.803 159.298L118.849 189.109C119.028 187.388 118.055 167.155 119.028 166.564Z" fill="#FFFB64"/>
<path d="M143.356 206.235C143.253 205.978 143.125 205.722 142.971 205.465C141.537 203.359 138.695 202.024 134.649 203.976C127.863 207.262 126.813 218.611 131.243 223.233C131.576 223.593 131.935 223.926 132.293 224.235C128.836 219.125 128.657 212.449 132.139 208.726C133.676 206.723 135.648 205.696 138.106 204.874C140.488 204.078 142.767 205.619 143.381 206.235H143.356Z" fill="#FFFB64"/>
<path d="M136.565 204.283C136.718 204.591 136.207 205.206 135.363 205.642C134.545 206.078 133.727 206.18 133.574 205.847C133.42 205.539 133.957 204.924 134.775 204.488C135.593 204.053 136.411 203.976 136.565 204.283Z" fill="white"/>
<path d="M178.589 258.718C179.407 259.308 177.975 260.385 177.438 260.487C177.131 260.564 176.799 260.436 176.646 260.128C176.185 259.205 177.847 258.18 178.589 258.718Z" fill="white"/>
<path d="M378.564 120.731L358.641 260.362L234.187 344.222L234.648 204.592L378.564 120.731Z" fill="url(#paint10_linear_231_3956)"/>
<g opacity="0.6">
<path d="M378.564 120.731L358.641 260.362L263.815 324.246L353.314 256.279L378.564 120.731Z" fill="#A35211"/>
</g>
<path d="M378.564 120.731L377.847 125.79L247.887 212.449L236.235 342.81L234.187 344.222L234.648 204.592L378.564 120.731Z" fill="#A35211"/>
<path d="M240.717 317.467C240.717 322.243 244.148 326.12 248.399 326.12C252.65 326.12 256.082 322.243 256.082 317.467C256.082 312.691 252.65 308.814 248.399 308.814C244.148 308.814 240.717 312.691 240.717 317.467Z" fill="#FFCE00"/>
<path d="M242.1 317.929C242.1 322.474 245.326 326.146 249.321 326.146C253.316 326.146 256.542 322.474 256.542 317.929C256.542 313.385 253.316 309.713 249.321 309.713C245.326 309.713 242.1 313.385 242.1 317.929Z" fill="#773600"/>
<path d="M249.295 309.738C250.115 309.738 250.883 309.918 251.6 310.201C252.855 311.664 253.623 313.693 253.623 315.901C253.623 320.446 250.397 324.117 246.427 324.117C245.608 324.117 244.84 323.938 244.123 323.655C242.868 322.192 242.074 320.163 242.074 317.955C242.074 313.41 245.301 309.738 249.295 309.738Z" fill="#490B01"/>
<path d="M242.945 316.671C242.945 319.47 244.916 321.755 247.375 321.755C249.833 321.755 251.805 319.496 251.805 316.671C251.805 313.847 249.807 311.587 247.375 311.587C244.942 311.587 242.945 313.872 242.945 316.671Z" fill="url(#paint11_linear_231_3956)"/>
<path opacity="0.63" d="M244.532 312.794C244.097 313.898 244.199 314.591 244.507 315.747C244.788 316.851 245.352 317.981 246.478 318.469C248.706 319.47 251.011 318.777 251.805 316.62V316.671C251.805 319.47 249.833 321.755 247.375 321.755C244.916 321.755 242.945 319.496 242.945 316.671C242.945 315.131 243.559 313.744 244.532 312.82V312.794Z" fill="#AA5202"/>
<path d="M250.166 316.62C250.089 316.8 249.987 316.954 249.859 317.108C248.732 318.314 247.042 316.055 246.504 315.079C245.557 313.41 247.247 311.561 248.834 312.768C249.705 313.436 250.627 315.387 250.166 316.62Z" fill="#D39700"/>
<path d="M248.654 314.666C248.296 314.717 247.759 314.23 247.708 313.82C247.631 313.256 248.245 312.974 248.654 313.307C249.114 313.666 249.293 314.615 248.654 314.692V314.666Z" fill="#E2AC13"/>
<path d="M245.505 320.471C244.66 320.035 243.918 318.879 243.636 318.006C243.303 317.005 243.482 316.055 243.738 315.079C243.687 316.825 245.147 319.239 246.863 319.804C247.912 320.138 248.988 319.881 249.987 319.419C250.371 319.239 250.678 318.905 251.062 318.7C251.113 318.7 250.909 319.162 250.883 319.162C250.781 319.367 250.653 319.547 250.524 319.727C249.833 320.651 248.86 321.011 247.759 321.062C246.914 321.113 246.248 320.856 245.531 320.471H245.505Z" fill="#723300"/>
<path d="M238.796 212.32C238.796 217.096 242.228 220.974 246.478 220.974C250.729 220.974 254.135 217.096 254.135 212.32C254.135 207.545 250.704 203.667 246.478 203.667C242.253 203.667 238.796 207.545 238.796 212.32Z" fill="#FFCE00"/>
<path d="M240.153 212.808C240.153 217.353 243.38 221.025 247.375 221.025C251.37 221.025 254.596 217.353 254.596 212.808C254.596 208.264 251.37 204.592 247.375 204.592C243.38 204.592 240.153 208.264 240.153 212.808Z" fill="#773600"/>
<path d="M247.375 204.592C248.194 204.592 248.962 204.771 249.679 205.054C250.934 206.518 251.702 208.546 251.702 210.754C251.702 215.299 248.476 218.971 244.507 218.971C243.687 218.971 242.919 218.791 242.202 218.509C240.947 217.019 240.153 215.017 240.153 212.808C240.153 208.264 243.38 204.592 247.375 204.592Z" fill="#490B01"/>
<path d="M241.024 211.524C241.024 214.323 242.996 216.609 245.454 216.609C247.913 216.609 249.884 214.323 249.884 211.524C249.884 208.726 247.887 206.44 245.454 206.44C243.022 206.44 241.024 208.726 241.024 211.524Z" fill="url(#paint12_linear_231_3956)"/>
<path opacity="0.63" d="M242.612 207.673C242.176 208.777 242.279 209.47 242.586 210.626C242.868 211.704 243.431 212.86 244.532 213.348C246.76 214.349 249.091 213.656 249.859 211.499C249.859 211.499 249.859 211.524 249.859 211.55C249.859 214.349 247.861 216.634 245.429 216.634C242.996 216.634 240.999 214.349 240.999 211.55C240.999 209.984 241.613 208.623 242.586 207.699L242.612 207.673Z" fill="#AA5202"/>
<path d="M248.246 211.473C248.169 211.653 248.066 211.833 247.938 211.961C246.812 213.168 245.121 210.908 244.584 209.933C243.636 208.264 245.326 206.415 246.914 207.622C247.81 208.289 248.707 210.241 248.246 211.473Z" fill="#D39700"/>
<path d="M246.733 209.545C246.375 209.596 245.838 209.109 245.787 208.699C245.685 208.135 246.299 207.853 246.733 208.186C247.193 208.545 247.372 209.494 246.733 209.571V209.545Z" fill="#E2AC13"/>
<path d="M243.559 215.35C242.714 214.914 241.997 213.758 241.69 212.885C241.357 211.884 241.536 210.934 241.792 209.933C241.741 211.679 243.201 214.118 244.917 214.657C245.966 214.991 247.042 214.734 248.015 214.272C248.425 214.092 248.706 213.758 249.116 213.553C249.142 213.553 248.937 214.015 248.937 214.041C248.835 214.221 248.706 214.426 248.578 214.606C247.887 215.53 246.914 215.89 245.813 215.967C244.968 216.018 244.302 215.761 243.559 215.376V215.35Z" fill="#723300"/>
<path d="M355.67 146.845C355.67 151.081 358.718 154.522 362.482 154.522C366.246 154.522 369.294 151.081 369.294 146.845C369.294 142.608 366.246 139.167 362.482 139.167C358.718 139.167 355.67 142.608 355.67 146.845Z" fill="#FFCE00"/>
<path d="M356.9 147.281C356.9 151.312 359.768 154.573 363.276 154.573C366.784 154.573 369.678 151.312 369.678 147.281C369.678 143.25 366.81 139.989 363.276 139.989C359.742 139.989 356.9 143.25 356.9 147.281Z" fill="#773600"/>
<path d="M363.276 139.989C363.993 139.989 364.684 140.169 365.325 140.4C366.451 141.709 367.143 143.481 367.143 145.458C367.143 149.489 364.275 152.75 360.741 152.75C360.024 152.75 359.332 152.596 358.692 152.339C357.565 151.03 356.874 149.258 356.874 147.281C356.874 143.25 359.742 139.989 363.25 139.989H363.276Z" fill="#490B01"/>
<path d="M357.642 146.151C357.642 148.642 359.409 150.645 361.56 150.645C363.711 150.645 365.478 148.642 365.478 146.151C365.478 143.661 363.737 141.658 361.56 141.658C359.383 141.658 357.642 143.661 357.642 146.151Z" fill="url(#paint13_linear_231_3956)"/>
<path opacity="0.63" d="M359.051 142.711C358.666 143.686 358.743 144.303 359.025 145.33C359.281 146.305 359.768 147.307 360.766 147.743C362.738 148.642 364.812 148 365.504 146.1V146.151C365.504 148.642 363.762 150.645 361.586 150.645C359.409 150.645 357.668 148.642 357.668 146.151C357.668 144.765 358.231 143.558 359.076 142.736L359.051 142.711Z" fill="#AA5202"/>
<path d="M364.044 146.1C363.967 146.254 363.89 146.408 363.788 146.536C362.789 147.615 361.278 145.586 360.792 144.739C359.947 143.25 361.458 141.632 362.866 142.685C363.66 143.275 364.479 144.996 364.07 146.1H364.044Z" fill="#D39700"/>
<path d="M362.711 144.377C362.379 144.403 361.918 143.993 361.867 143.608C361.791 143.096 362.327 142.839 362.711 143.147C363.12 143.48 363.273 144.3 362.711 144.377Z" fill="#E2AC13"/>
<path d="M359.896 149.541C359.153 149.155 358.487 148.128 358.231 147.358C357.924 146.485 358.077 145.612 358.333 144.739C358.282 146.305 359.563 148.436 361.099 148.924C362.021 149.207 362.994 148.976 363.865 148.565C364.223 148.411 364.479 148.103 364.812 147.923C364.863 147.923 364.659 148.334 364.659 148.334C364.556 148.514 364.454 148.668 364.326 148.847C363.737 149.669 362.866 150.003 361.893 150.054C361.15 150.105 360.561 149.874 359.896 149.541Z" fill="#723300"/>
<path d="M343.455 253.891C343.455 258.128 346.503 261.569 350.241 261.569C353.98 261.569 357.027 258.128 357.027 253.891C357.027 249.655 353.98 246.214 350.241 246.214C346.503 246.214 343.455 249.655 343.455 253.891Z" fill="#FFCE00"/>
<path d="M344.685 254.302C344.685 258.333 347.553 261.594 351.061 261.594C354.569 261.594 357.463 258.333 357.463 254.302C357.463 250.271 354.595 247.01 351.061 247.01C347.527 247.01 344.685 250.271 344.685 254.302Z" fill="#773600"/>
<path d="M351.061 247.036C351.778 247.036 352.469 247.215 353.11 247.446C354.236 248.756 354.928 250.528 354.928 252.505C354.928 256.536 352.06 259.797 348.526 259.797C347.809 259.797 347.117 259.643 346.477 259.386C345.35 258.077 344.685 256.305 344.685 254.328C344.685 250.297 347.553 247.036 351.061 247.036Z" fill="#490B01"/>
<path d="M345.453 253.172C345.453 255.663 347.194 257.666 349.371 257.666C351.547 257.666 353.289 255.663 353.289 253.172C353.289 250.682 351.547 248.679 349.371 248.679C347.194 248.679 345.453 250.682 345.453 253.172Z" fill="url(#paint14_linear_231_3956)"/>
<path opacity="0.63" d="M346.835 249.757C346.451 250.733 346.528 251.349 346.81 252.351C347.066 253.326 347.552 254.328 348.551 254.764C350.523 255.663 352.597 255.021 353.289 253.121V253.172C353.289 255.663 351.547 257.666 349.371 257.666C347.194 257.666 345.453 255.663 345.453 253.172C345.453 251.786 346.016 250.579 346.861 249.757H346.835Z" fill="#AA5202"/>
<path d="M351.855 253.147C351.803 253.301 351.701 253.455 351.599 253.583C350.6 254.662 349.089 252.633 348.602 251.786C347.757 250.322 349.268 248.679 350.677 249.732C351.445 250.322 352.264 252.043 351.855 253.147Z" fill="#D39700"/>
<path d="M350.496 251.424C350.189 251.45 349.704 251.04 349.652 250.655C349.576 250.142 350.113 249.886 350.496 250.194C350.905 250.527 351.084 251.347 350.496 251.424Z" fill="#E2AC13"/>
<path d="M347.681 256.562C346.938 256.177 346.298 255.149 346.042 254.379C345.734 253.48 345.888 252.633 346.119 251.76C346.067 253.326 347.348 255.458 348.884 255.945C349.832 256.228 350.779 255.997 351.65 255.586C352.008 255.432 352.264 255.124 352.597 254.944C352.623 254.944 352.444 255.355 352.444 255.355C352.341 255.535 352.239 255.689 352.111 255.868C351.496 256.69 350.651 257.024 349.678 257.075C348.935 257.101 348.346 256.895 347.681 256.562Z" fill="#723300"/>
<g opacity="0.58">
<path d="M257.541 212.011C256.005 214.296 255.441 276.537 258.13 305.783C264.173 304.371 354.902 161.325 355.03 157.782C355.209 153.109 259.231 209.495 257.541 212.011Z" fill="#A35211"/>
</g>
<path opacity="0.58" d="M354.876 156.807C354.876 156.807 320.434 243.364 314.979 249.501C304.736 261.081 261.1 298.62 258.36 306.169C272.906 299.031 342.917 252.171 343.276 250.887C343.788 249.09 354.902 156.91 354.876 156.781V156.807Z" fill="#FFCE00"/>
<path d="M258.028 212.86L258.361 306.195L342.175 250.143L354.876 156.807L258.028 212.86Z" fill="url(#paint15_linear_231_3956)"/>
<path d="M348.577 160.453L354.876 156.807L342.175 250.143L258.36 306.195L258.335 299.853L336.746 247.421L348.577 160.453Z" fill="#540048"/>
<path d="M334.339 249.013L336.746 247.421L348.577 160.453L354.876 156.807L342.175 250.142L337.335 253.378C336.592 251.76 335.568 250.297 334.339 249.013Z" fill="#44002F"/>
<path d="M340.024 223.336L345.478 225.878L337.284 247.6L317.515 260.824C317.515 260.824 317.105 246.419 328.961 240.796C328.961 240.796 329.32 225.57 340.05 223.362L340.024 223.336Z" fill="#540048"/>
<path d="M345.478 225.878L342.175 250.142L322.406 263.366C322.406 263.366 321.996 248.961 333.852 243.312C333.852 243.312 334.749 228.112 345.478 225.878Z" fill="#E8A207"/>
<path d="M322.636 263.186C324.249 256.587 327.041 250.091 332.982 246.753C335.696 245.238 337.079 245.495 337.335 242.157C337.489 240.051 337.694 237.895 338.257 235.866C339.461 231.604 341.509 228.112 345.427 225.929V225.878C334.697 228.112 333.801 243.312 333.801 243.312C321.945 248.961 322.354 263.366 322.354 263.366L322.585 263.212L322.636 263.186Z" fill="#FFCE00"/>
<path d="M333.161 174.139C327.886 176.039 323.071 178.324 318.36 181.431C312.188 185.514 305.965 191.188 305.607 199.302C304.992 212.757 308.065 216.506 313.725 220.717C319.153 224.774 330.677 223.926 334.877 218.098C338.897 212.526 332.674 204.977 329.704 207.236C329.012 207.75 330.37 210.395 326.81 210.42C324.275 210.42 321.509 207.211 323.712 203.924C325.146 201.767 328.091 200.406 332.188 202.409C339.128 205.773 340.177 217.327 335.67 222.052C323.712 234.582 302.38 224.774 301.254 207.005C300.767 199.2 301.817 193.807 306.042 187.234C306.913 185.899 308.065 184.487 309.422 183.1L327.143 172.829C329.832 172.188 332.239 172.265 333.161 174.139Z" fill="#540048"/>
<path d="M264.045 282.675C266.325 287.836 273.597 290.07 279.077 285.962C275.082 291.842 259.948 302.6 258.309 299.853V262.39C258.309 258.719 261.69 251.555 266.299 245.238C276.798 230.885 300.025 234.12 303.379 251.144C304.634 257.563 297.541 266.73 289.909 265.831C285.377 265.292 283.635 262.57 283.584 259.977C283.482 256.022 287.553 254.816 289.679 256.177C292.675 258.102 290.114 259.592 290.422 260.413C291.728 263.931 300.998 260.927 300.613 254.045C300.204 246.882 290.934 239.949 284.173 240.437C277.157 240.95 272.547 242.439 265.864 254.122C261.818 261.158 260.512 274.638 264.045 282.726V282.675Z" fill="#540048"/>
<path d="M280.102 200.098L258.028 212.86L258.104 237.895C258.104 237.895 269.039 235.455 267.835 219.253C267.835 219.253 279.128 215.787 280.076 200.098H280.102Z" fill="#E8A207"/>
<path d="M280.102 200.098L258.028 212.86L258.104 237.895C258.104 237.895 260.025 229.164 260.46 213.271C260.46 213.271 272.445 208.777 280.076 200.073L280.102 200.098Z" fill="#FFCE00"/>
<path d="M348.961 165.691L345.785 189.057C344.633 177.528 338.129 174.319 328.987 176.63C326.81 177.195 325.12 177.169 323.814 176.963C332.367 173.677 340.331 168.952 348.935 165.691H348.961Z" fill="#44002F"/>
<path d="M258.36 278.284C258.437 274.15 258.77 268.476 259.769 264.496C262.253 254.456 263.328 253.301 267.938 246.984C278.437 232.631 301.663 235.866 305.018 252.89C306.298 259.309 299.205 268.501 291.548 267.577C287.016 267.038 285.274 264.316 285.223 261.723C285.121 257.794 289.192 256.562 291.318 257.923C294.314 259.874 291.753 261.363 292.06 262.159C293.341 265.677 302.636 262.673 302.252 255.791C301.843 248.602 292.573 241.695 285.812 242.183C278.796 242.696 274.186 244.185 267.477 255.868C263.431 262.904 262.355 272.096 262.842 280.082C263.149 284.986 264.481 288.401 266.913 289.865C272.24 293.074 280.358 291.508 280.358 291.508L258.36 306.221L258.258 278.259C258.258 278.259 258.309 278.31 258.36 278.31V278.284Z" fill="#E8A207"/>
<path d="M262.074 262.185C263.815 255.381 267.835 247.755 273.751 243.544C279.999 239.076 288.04 238.434 295.774 240.334C287.144 235.712 274.801 237.561 267.912 246.984C263.303 253.301 262.227 254.456 259.743 264.496C258.745 268.501 258.412 274.176 258.335 278.284C258.309 278.284 258.258 278.233 258.232 278.233V286.475C259.334 278.284 260.025 270.196 262.048 262.211L262.074 262.185Z" fill="#FFCE00"/>
<path d="M288.578 261.158C289.704 259.438 291.318 259.283 292.752 259.977C292.777 259.361 292.47 258.667 291.292 257.897C289.167 256.536 285.095 257.743 285.197 261.697C285.249 263.828 286.452 265.985 289.32 267.012C288.014 265.318 287.297 263.109 288.603 261.132L288.578 261.158Z" fill="#FFCE00"/>
<path d="M296.951 263.186C298.36 263.212 301.202 262.185 302.662 258.128C304.147 253.994 301.151 249.398 298.488 248.037C300.613 250.297 302.073 253.018 302.227 255.766C302.457 259.592 299.691 262.211 296.951 263.186Z" fill="#FFCE00"/>
<path d="M287.349 227.393C287.349 234.634 292.419 240.488 298.693 240.488C304.967 240.488 310.037 234.634 310.037 227.393C310.037 220.152 304.967 214.272 298.693 214.272C292.419 214.272 287.349 220.152 287.349 227.393Z" fill="#540048"/>
<path d="M290.114 229.19C290.114 236.226 295.082 241.926 301.202 241.926C307.323 241.926 312.291 236.226 312.291 229.19C312.291 222.155 307.323 216.454 301.202 216.454C295.082 216.454 290.114 222.155 290.114 229.19Z" fill="#E8A207"/>
<path d="M291.036 229.986C291.676 226.34 292.393 222.489 295.261 220.255C300.562 216.121 306.324 218.74 309.858 221.23C307.835 218.329 304.711 216.48 301.202 216.48C295.082 216.48 290.114 222.18 290.114 229.216C290.114 230.988 290.422 232.682 291.011 234.223C290.831 232.862 290.78 231.475 291.036 230.012V229.986Z" fill="#FFCE00"/>
<path d="M310.319 221.975C311.292 225.981 312.162 234.634 305.376 238.768C299.077 242.593 293.238 236.893 291.369 235.096C293.213 239.153 296.926 241.952 301.202 241.952C307.348 241.952 312.29 236.251 312.29 229.216C312.29 226.545 311.548 224.055 310.319 222.001V221.975Z" fill="#D37800"/>
<path d="M320.562 231.886C322.303 232.784 326.042 233.118 327.476 234.479C327.476 234.479 326.708 235.917 326.196 236.045C323.558 236.431 320.946 236.687 318.36 235.968C317.105 235.609 314.211 233.811 313.827 232.502C313.597 231.757 314.647 229.986 315.338 229.806C317.002 229.344 319.717 231.475 320.562 231.911V231.886Z" fill="#540048"/>
<path d="M321.868 230.32C323.968 231.373 325.888 232.734 327.502 234.454C324.864 234.839 322.252 235.096 319.666 234.377C318.411 234.017 315.517 232.22 315.107 230.91C314.339 228.394 320.664 229.704 321.868 230.32Z" fill="#E8A207"/>
<path d="M323.123 231.013C321.535 232.58 319.051 232.862 316.721 232.734C317.719 233.504 318.949 234.197 319.666 234.377C322.226 235.096 324.864 234.813 327.502 234.454C326.221 233.093 324.736 231.963 323.123 231.013Z" fill="#D37800"/>
<path d="M288.629 210.42C287.169 209.06 285.479 205.67 283.712 204.771C283.712 204.771 282.637 206.03 282.713 206.569C283.302 209.214 283.994 211.807 285.581 213.989C286.375 215.068 289.115 217.148 290.498 217.071C291.266 217.019 292.572 215.376 292.496 214.657C292.342 212.911 289.346 211.088 288.629 210.446V210.42Z" fill="#540048"/>
<path d="M289.628 208.649C287.886 207.031 285.889 205.696 283.712 204.797C284.301 207.442 284.993 210.035 286.58 212.218C287.374 213.296 290.114 215.376 291.497 215.299C294.135 215.119 290.626 209.599 289.653 208.674L289.628 208.649Z" fill="#E8A207"/>
<path d="M286.042 211.293C286.222 211.602 286.375 211.91 286.58 212.192C287.374 213.271 290.114 215.35 291.497 215.273C293.085 215.171 292.444 213.116 291.497 211.319C289.986 212.269 287.758 212.038 286.068 211.319L286.042 211.293Z" fill="#D37800"/>
<path d="M297.976 206.672C297.387 204.771 297.643 200.971 296.542 199.302C296.542 199.302 294.98 199.842 294.775 200.355C293.981 202.923 293.264 205.516 293.546 208.212C293.674 209.522 295.005 212.706 296.26 213.322C296.951 213.681 298.898 212.911 299.205 212.243C299.922 210.651 298.257 207.57 297.976 206.672Z" fill="#540048"/>
<path d="M299.743 205.645C299.026 203.359 298.001 201.228 296.542 199.328C295.722 201.896 295.031 204.489 295.313 207.185C295.441 208.495 296.772 211.679 298.001 212.295C300.383 213.476 300.127 206.928 299.717 205.645H299.743Z" fill="#E8A207"/>
<path d="M299.743 205.645C299.512 204.926 299.256 204.232 298.974 203.539C298.488 205.722 297.54 207.904 295.825 208.957C296.362 210.343 297.208 211.91 298.027 212.32C300.409 213.502 300.152 206.954 299.743 205.67V205.645Z" fill="#D37800"/>
<path d="M282.457 218.586C280.562 217.944 277.669 215.479 275.697 215.377C275.697 215.377 275.21 216.943 275.492 217.431C277.08 219.613 278.744 221.693 281.075 223.054C282.227 223.721 285.556 224.543 286.785 223.901C287.477 223.542 288.014 221.513 287.656 220.871C286.811 219.331 283.354 218.869 282.457 218.56V218.586Z" fill="#540048"/>
<path d="M282.687 216.531C280.434 215.761 278.078 215.325 275.697 215.376C277.284 217.559 278.974 219.664 281.279 221.025C282.431 221.693 285.76 222.514 286.99 221.872C289.346 220.665 283.917 216.994 282.662 216.531H282.687Z" fill="#E8A207"/>
<path d="M285.044 217.969C283.046 219.099 280.537 219.125 278.207 218.509C279.128 219.484 280.127 220.357 281.279 221.025C282.432 221.693 285.761 222.514 286.99 221.872C288.501 221.076 286.785 219.279 285.018 217.969H285.044Z" fill="#D37800"/>
<path d="M279.948 229.01C277.976 229.267 274.289 228.369 272.47 229.19C272.47 229.19 272.727 230.808 273.187 231.116C275.569 232.348 278.002 233.478 280.716 233.658C282.048 233.735 285.377 232.965 286.196 231.861C286.657 231.219 286.222 229.19 285.633 228.754C284.199 227.752 280.895 228.908 279.948 229.036V229.01Z" fill="#540048"/>
<path d="M279.231 227.085C276.875 227.393 274.57 228.06 272.47 229.165C274.852 230.397 277.285 231.527 279.999 231.706C281.331 231.784 284.66 231.013 285.479 229.909C287.041 227.752 280.563 226.905 279.231 227.085Z" fill="#E8A207"/>
<path d="M283.431 227.624C281.689 229.421 279.461 230.525 277.105 231.142C278.027 231.424 279 231.655 279.999 231.706C281.331 231.784 284.66 231.013 285.479 229.909C286.273 228.831 285.044 228.086 283.431 227.624Z" fill="#D37800"/>
<path d="M317.796 241.054C319.153 242.492 322.534 244.11 323.404 245.881C323.404 245.881 322.201 246.96 321.663 246.908C319.077 246.343 316.516 245.676 314.339 244.135C313.289 243.365 311.189 240.669 311.266 239.308C311.292 238.538 312.905 237.228 313.622 237.305C315.338 237.434 317.156 240.386 317.796 241.08V241.054Z" fill="#540048"/>
<path d="M319.563 240.026C321.176 241.746 322.508 243.698 323.43 245.854C320.843 245.29 318.283 244.648 316.106 243.081C315.03 242.311 312.956 239.615 313.033 238.254C313.187 235.635 318.667 239.05 319.563 240V240.026Z" fill="#E8A207"/>
<path d="M319.947 240.514C319.845 241.027 319.614 241.515 319.23 241.9C318.334 242.825 316.951 242.902 315.568 242.645C315.748 242.825 315.927 242.979 316.081 243.107C318.257 244.673 320.792 245.315 323.404 245.88C322.559 243.903 321.381 242.131 319.947 240.514Z" fill="#D37800"/>
<path d="M311.138 247.549C311.932 249.398 314.595 252.094 314.826 254.071C314.826 254.071 313.289 254.662 312.803 254.431C310.524 252.993 308.321 251.478 306.785 249.244C306.042 248.14 304.967 244.853 305.505 243.595C305.812 242.876 307.784 242.208 308.449 242.491C310.037 243.21 310.754 246.65 311.113 247.523L311.138 247.549Z" fill="#540048"/>
<path d="M313.161 247.19C314.109 249.372 314.698 251.683 314.826 254.071C312.547 252.633 310.344 251.118 308.808 248.884C308.065 247.78 307.015 244.494 307.553 243.235C308.603 240.796 312.649 245.931 313.161 247.19Z" fill="#E8A207"/>
<path d="M310.78 251.093C312.009 252.222 313.392 253.172 314.826 254.071C314.698 251.683 314.109 249.372 313.161 247.19C313.084 246.984 312.905 246.702 312.675 246.342C312.47 248.063 311.83 249.911 310.78 251.093Z" fill="#D37800"/>
<path d="M308.68 229.19C308.68 233.735 305.479 237.432 301.51 237.432C297.541 237.432 294.34 233.735 294.34 229.19C294.34 224.645 297.566 220.948 301.51 220.948C305.453 220.948 308.68 224.645 308.68 229.19Z" fill="#02AF9A"/>
<path d="M306.094 222.925C306.811 224.697 306.631 225.852 306.145 227.701C305.684 229.473 304.762 231.321 302.969 232.117C299.359 233.761 295.594 232.605 294.314 229.113C294.314 229.113 294.314 229.164 294.314 229.19C294.314 233.735 297.541 237.432 301.484 237.432C305.428 237.432 308.654 233.735 308.654 229.19C308.654 226.674 307.656 224.44 306.094 222.925Z" fill="#008E7D"/>
<path d="M296.951 229.113C297.08 229.421 297.233 229.678 297.438 229.909C299.256 231.886 301.996 228.189 302.893 226.622C304.429 223.926 301.689 220.922 299.103 222.874C297.668 223.952 296.183 227.11 296.926 229.113H296.951Z" fill="#32CFB8"/>
<path d="M299.409 225.977C299.997 226.054 300.866 225.284 300.969 224.592C301.122 223.669 300.099 223.208 299.435 223.746C298.668 224.336 298.386 225.848 299.435 225.977H299.409Z" fill="white"/>
<path d="M304.557 235.404C305.914 234.711 307.092 232.811 307.579 231.398C308.117 229.781 307.835 228.214 307.425 226.622C307.502 229.473 305.146 233.401 302.355 234.274C300.639 234.813 298.898 234.377 297.285 233.658C296.619 233.35 296.158 232.811 295.518 232.477C295.441 232.425 295.799 233.221 295.825 233.247C296.004 233.555 296.209 233.889 296.414 234.171C297.515 235.686 299.103 236.277 300.895 236.354C302.278 236.431 303.328 236.02 304.532 235.404H304.557Z" fill="#00616B"/>
<path d="M308.475 187.26C310.933 183.434 316.029 178.812 320.101 176.758L327.143 172.855L354.851 156.807L350.702 187.234C349.55 175.705 343.046 172.496 333.904 174.832C333.852 174.832 333.827 174.832 333.776 174.858C329.192 176.604 324.915 178.709 320.767 181.457C314.57 185.54 308.654 192.267 308.014 199.328C306.785 212.731 310.472 216.531 316.132 220.742C321.586 224.799 333.084 223.952 337.309 218.123C341.33 212.552 335.107 205.003 332.137 207.262C331.445 207.776 332.802 210.42 329.243 210.446C326.708 210.446 323.942 207.236 326.144 203.95C327.604 201.793 330.523 200.432 334.621 202.435C341.56 205.799 342.585 217.353 338.103 222.078C326.144 234.608 304.813 224.799 303.686 207.031C303.2 199.225 304.25 193.833 308.501 187.26H308.475Z" fill="#E8A207"/>
<path d="M305.12 199.328C306.503 191.882 311.804 184.281 318.052 180.25C328.321 173.651 354.876 156.807 354.876 156.807L327.169 172.855L320.127 176.758C316.029 178.812 310.933 183.434 308.501 187.26C304.275 193.833 303.2 199.225 303.686 207.031C303.994 211.756 305.735 215.915 308.347 219.253C305.633 213.476 304.096 204.977 305.146 199.328H305.12Z" fill="#FFCE00"/>
<path d="M334.979 202.64C334.851 202.563 334.749 202.486 334.621 202.435C330.498 200.458 327.578 201.793 326.144 203.95C323.942 207.236 326.708 210.446 329.243 210.446H329.294C328.142 208.982 327.271 206.851 327.988 205.105C329.217 202.075 333.955 202.178 334.979 202.64Z" fill="#FFCE00"/>
<path d="M339.025 218.2C333.596 228.317 320.255 227.752 312.828 223.593C320.357 229.062 330.908 229.575 338.078 222.052C341.893 218.072 341.714 209.214 337.386 204.515C339.128 207.391 340.767 213.399 339 218.175L339.025 218.2Z" fill="#D37800"/>
<path d="M326.426 205.901C326.529 206.261 326.708 206.543 327.015 206.569C327.502 206.62 327.604 205.336 327.732 205.028C327.886 204.643 328.833 203.513 328.27 203.102C327.707 202.717 326.554 204.207 326.426 204.617C326.324 204.9 326.324 205.439 326.426 205.901Z" fill="white"/>
<path d="M289.781 258.282C288.937 258.871 290.42 259.999 290.957 260.102C291.289 260.179 291.596 260.051 291.775 259.743C292.235 258.82 290.548 257.743 289.781 258.307V258.282Z" fill="white"/>
<path d="M234.187 204.515C233.546 206.877 232.317 237.278 232.189 274.356C232.061 311.767 233.393 342.271 234.033 344.145L234.11 344.197C234.776 343.478 236.415 312.537 236.543 274.356C236.671 237.664 235.621 207.519 235.006 204.592H235.237L234.187 204.515Z" fill="#FFFB64"/>
<path d="M342.201 120.731L234.52 183.485L126.147 120.731H89.7842L234.648 204.592L378.564 120.731H342.201Z" fill="url(#paint16_linear_231_3956)"/>
<path d="M378.564 120.731L234.648 204.592L89.7842 120.731L234.187 197.402L378.564 120.731Z" fill="#FFFBAB"/>
<path opacity="0.08" d="M180.585 92.176C176.001 99.2884 178.024 108.789 185.118 113.385C192.211 117.981 201.686 115.953 206.27 108.84C210.854 101.728 208.831 92.2273 201.737 87.6312C194.644 83.035 185.169 85.0635 180.585 92.176Z" fill="white"/>
<path opacity="0.15" d="M181.252 92.6394C176.899 99.3668 178.82 108.354 185.529 112.719C192.238 117.084 201.226 115.158 205.58 108.405C209.933 101.678 207.987 92.6651 201.278 88.3257C194.568 83.9607 185.606 85.9121 181.252 92.6394Z" fill="white"/>
<path opacity="0.23" d="M181.944 93.0759C177.846 99.4438 179.664 107.917 185.99 112.025C192.34 116.134 200.791 114.311 204.914 107.969C209.011 101.626 207.193 93.1273 200.868 89.019C194.543 84.9107 186.066 86.7338 181.969 93.1016L181.944 93.0759Z" fill="white"/>
<path opacity="0.31" d="M182.635 93.5125C178.768 99.4952 180.484 107.481 186.451 111.332C192.417 115.209 200.381 113.489 204.248 107.506C208.115 101.524 206.399 93.5381 200.432 89.6609C194.466 85.7837 186.502 87.5041 182.661 93.4868L182.635 93.5125Z" fill="white"/>
<path opacity="0.38" d="M183.301 93.949C179.69 99.5465 181.278 107.018 186.86 110.639C192.443 114.259 199.92 112.667 203.531 107.044C207.142 101.447 205.528 93.9747 199.946 90.3285C194.363 86.7081 186.912 88.3001 183.301 93.9233V93.949Z" fill="white"/>
<path opacity="0.46" d="M183.992 94.4112C180.612 99.6492 182.123 106.608 187.321 109.997C192.545 113.386 199.485 111.871 202.865 106.659C206.245 101.447 204.735 94.4625 199.536 91.0732C194.338 87.6838 187.372 89.1988 184.018 94.4112H183.992Z" fill="white"/>
<path opacity="0.54" d="M184.684 94.8477C181.56 99.7006 182.942 106.171 187.757 109.304C192.597 112.436 199.05 111.05 202.174 106.197C205.298 101.344 203.915 94.8733 199.075 91.7408C194.261 88.6082 187.782 89.9947 184.658 94.8477H184.684Z" fill="white"/>
<path opacity="0.62" d="M185.349 95.2842C182.456 99.7519 183.736 105.709 188.192 108.61C192.648 111.512 198.589 110.228 201.482 105.76C204.376 101.293 203.096 95.3355 198.64 92.434C194.184 89.5326 188.243 90.8164 185.349 95.2842Z" fill="white"/>
<path opacity="0.69" d="M186.041 95.7206C183.403 99.8033 184.581 105.272 188.653 107.917C192.75 110.562 198.179 109.406 200.817 105.298C203.454 101.215 202.276 95.7463 198.205 93.1016C194.133 90.4569 188.679 91.638 186.041 95.7206Z" fill="white"/>
<path opacity="0.77" d="M186.707 96.1828C184.325 99.906 185.375 104.836 189.063 107.25C192.776 109.663 197.718 108.585 200.1 104.887C202.507 101.164 201.431 96.2342 197.718 93.8206C194.031 91.4326 189.088 92.4854 186.681 96.2085L186.707 96.1828Z" fill="white"/>
<path opacity="0.85" d="M187.398 96.6194C185.247 99.9574 186.195 104.399 189.524 106.556C192.853 108.713 197.283 107.763 199.434 104.425C201.585 101.087 200.638 96.645 197.309 94.4882C194.005 92.3313 189.549 93.2814 187.398 96.6194Z" fill="white"/>
<path opacity="0.92" d="M188.089 97.0559C186.195 100.009 187.04 103.963 189.959 105.863C192.929 107.789 196.847 106.941 198.768 103.963C200.689 101.01 199.843 97.0559 196.873 95.1558C193.928 93.2557 189.984 94.0773 188.089 97.0559Z" fill="white"/>
<path d="M188.755 97.4924C187.091 100.086 187.833 103.501 190.394 105.17C192.981 106.839 196.412 106.094 198.076 103.526C199.741 100.959 198.998 97.518 196.412 95.8491C193.851 94.1801 190.42 94.9247 188.755 97.4924Z" fill="white"/>
<path d="M187.065 96.9275C184.095 99.0843 176.284 100.959 176.284 100.959C176.284 100.959 186.067 100.753 189.088 103.039C192.161 105.375 194.133 116.005 194.133 116.005C194.133 116.005 194.927 106.916 197.129 103.835C199.639 100.343 209.549 99.7519 209.549 99.7519C209.549 99.7519 200.253 98.5708 197.565 96.2342C193.954 93.1273 194.005 84.2175 194.005 84.2175C192.52 91.3556 190.036 94.745 187.065 96.9018V96.9275Z" fill="white"/>
<path opacity="0.08" d="M207.682 141.158C203.098 148.27 205.121 157.771 212.214 162.367C219.308 166.963 228.783 164.935 233.366 157.822C237.95 150.71 235.927 141.209 228.834 136.613C221.741 132.017 212.266 134.046 207.682 141.158Z" fill="white"/>
<path opacity="0.15" d="M208.374 141.596C204.021 148.323 205.942 157.31 212.677 161.675C219.386 166.04 228.349 164.114 232.702 157.387C237.03 150.66 235.135 141.647 228.4 137.308C221.665 132.943 212.728 134.868 208.374 141.621V141.596Z" fill="white"/>
<path opacity="0.23" d="M209.066 142.032C204.968 148.4 206.761 156.874 213.112 160.982C219.437 165.09 227.913 163.293 232.01 156.925C236.108 150.557 234.289 142.084 227.964 137.975C221.614 133.867 213.163 135.69 209.066 142.032Z" fill="white"/>
<path opacity="0.31" d="M209.732 142.494C205.865 148.477 207.581 156.463 213.547 160.314C219.514 164.191 227.478 162.471 231.345 156.488C235.186 150.506 233.496 142.52 227.529 138.643C221.562 134.766 213.598 136.486 209.757 142.469L209.732 142.494Z" fill="white"/>
<path opacity="0.38" d="M210.423 142.931C206.812 148.529 208.4 156.001 213.982 159.621C219.565 163.241 227.017 161.649 230.653 156.052C234.264 150.454 232.676 142.982 227.068 139.336C221.486 135.716 214.034 137.308 210.423 142.931Z" fill="white"/>
<path opacity="0.46" d="M211.089 143.367C207.709 148.58 209.194 155.564 214.418 158.928C219.616 162.317 226.582 160.828 229.962 155.59C233.317 150.377 231.831 143.393 226.633 140.004C221.409 136.614 214.469 138.129 211.089 143.342V143.367Z" fill="white"/>
<path opacity="0.54" d="M211.78 143.804C208.656 148.657 210.039 155.127 214.879 158.26C219.719 161.393 226.172 160.006 229.296 155.153C232.42 150.3 231.037 143.83 226.197 140.697C221.358 137.565 214.904 138.951 211.78 143.804Z" fill="white"/>
<path opacity="0.62" d="M212.472 144.266C209.578 148.734 210.858 154.691 215.314 157.592C219.77 160.494 225.711 159.21 228.604 154.742C231.473 150.275 230.218 144.318 225.762 141.416C221.306 138.515 215.365 139.798 212.472 144.266Z" fill="white"/>
<path opacity="0.69" d="M213.137 144.703C210.5 148.785 211.678 154.254 215.749 156.899C219.821 159.544 225.276 158.388 227.913 154.28C230.551 150.198 229.373 144.728 225.301 142.084C221.204 139.439 215.775 140.594 213.137 144.703Z" fill="white"/>
<path opacity="0.77" d="M213.829 145.139C211.447 148.862 212.497 153.818 216.185 156.206C219.872 158.62 224.84 157.541 227.222 153.844C229.629 150.146 228.553 145.191 224.866 142.777C221.153 140.363 216.236 141.442 213.829 145.139Z" fill="white"/>
<path opacity="0.85" d="M214.52 145.576C212.369 148.914 213.317 153.356 216.646 155.513C219.975 157.67 224.405 156.719 226.556 153.381C228.707 150.043 227.76 145.601 224.431 143.445C221.102 141.288 216.671 142.238 214.52 145.576Z" fill="white"/>
<path opacity="0.92" d="M215.186 146.038C213.291 148.991 214.136 152.945 217.081 154.845C220.026 156.771 223.97 155.923 225.865 152.945C227.785 149.992 226.915 146.038 223.97 144.138C221.025 142.212 217.081 143.059 215.186 146.038Z" fill="white"/>
<path d="M215.878 146.474C214.213 149.042 214.956 152.508 217.516 154.152C220.077 155.821 223.534 155.076 225.199 152.508C226.863 149.941 226.121 146.5 223.56 144.831C220.974 143.162 217.568 143.907 215.878 146.474Z" fill="white"/>
<path d="M214.162 145.91C211.191 148.066 203.381 149.941 203.381 149.941C203.381 149.941 213.163 149.735 216.159 152.021C219.258 154.357 221.204 164.987 221.204 164.987C221.204 164.987 221.998 155.898 224.2 152.817C226.71 149.325 236.62 148.734 236.62 148.734C236.62 148.734 227.324 147.553 224.635 145.216C221.025 142.135 221.076 133.199 221.076 133.199C219.591 140.338 217.107 143.753 214.136 145.884L214.162 145.91Z" fill="white"/>
<path opacity="0.08" d="M256.638 104.682C252.054 111.795 254.077 121.295 261.171 125.891C268.264 130.487 277.739 128.459 282.323 121.346C286.907 114.234 284.884 104.734 277.79 100.137C270.697 95.5412 261.222 97.5697 256.638 104.682Z" fill="white"/>
<path opacity="0.15" d="M257.331 105.12C252.977 111.847 254.898 120.86 261.607 125.199C268.342 129.564 277.305 127.639 281.633 120.886C285.986 114.158 284.065 105.146 277.33 100.806C270.621 96.4412 261.658 98.3669 257.305 105.12H257.331Z" fill="white"/>
<path opacity="0.23" d="M257.997 105.556C253.899 111.924 255.717 120.398 262.043 124.506C268.393 128.614 276.87 126.791 280.941 120.449C285.038 114.107 283.22 105.608 276.895 101.5C270.544 97.3912 262.094 99.2143 257.997 105.556Z" fill="white"/>
<path opacity="0.31" d="M258.688 106.019C254.821 112.001 256.537 119.987 262.504 123.838C268.47 127.716 276.434 125.995 280.301 120.013C284.168 114.03 282.452 106.044 276.485 102.193C270.519 98.3156 262.555 100.036 258.714 106.019H258.688Z" fill="white"/>
<path opacity="0.38" d="M259.379 106.455C255.769 112.053 257.356 119.55 262.939 123.171C268.521 126.791 275.999 125.199 279.61 119.602C283.22 114.004 281.633 106.532 276.05 102.886C270.468 99.2656 263.016 100.858 259.379 106.455Z" fill="white"/>
<path opacity="0.46" d="M260.045 106.892C256.665 112.13 258.176 119.088 263.374 122.477C268.598 125.867 275.538 124.352 278.918 119.139C282.298 113.927 280.813 106.943 275.589 103.554C270.365 100.164 263.425 101.679 260.045 106.892Z" fill="white"/>
<path opacity="0.54" d="M260.737 107.328C257.613 112.181 258.995 118.652 263.81 121.784C268.65 124.917 275.103 123.53 278.227 118.677C281.351 113.824 279.968 107.354 275.128 104.221C270.288 101.089 263.835 102.475 260.711 107.328H260.737Z" fill="white"/>
<path opacity="0.62" d="M261.428 107.79C258.534 112.258 259.815 118.215 264.271 121.117C268.726 124.018 274.693 122.734 277.561 118.267C280.455 113.799 279.174 107.842 274.719 104.94C270.263 102.039 264.322 103.323 261.428 107.79Z" fill="white"/>
<path opacity="0.69" d="M262.094 108.227C259.456 112.335 260.634 117.779 264.706 120.423C268.803 123.068 274.232 121.913 276.87 117.804C279.507 113.722 278.355 108.253 274.258 105.608C270.186 102.963 264.732 104.144 262.094 108.227Z" fill="white"/>
<path opacity="0.77" d="M262.785 108.663C260.404 112.387 261.454 117.342 265.141 119.73C268.854 122.144 273.797 121.065 276.178 117.368C278.585 113.645 277.51 108.715 273.797 106.301C270.083 103.913 265.167 104.966 262.76 108.663H262.785Z" fill="white"/>
<path opacity="0.85" d="M263.477 109.1C261.326 112.438 262.273 116.88 265.602 119.037C268.931 121.194 273.387 120.244 275.538 116.906C277.689 113.568 276.742 109.126 273.412 106.969C270.083 104.812 265.653 105.762 263.502 109.1H263.477Z" fill="white"/>
<path opacity="0.92" d="M264.142 109.536C262.247 112.489 263.093 116.443 266.012 118.369C268.982 120.295 272.9 119.448 274.821 116.469C276.742 113.516 275.896 109.562 272.926 107.662C269.981 105.762 266.037 106.609 264.142 109.562V109.536Z" fill="white"/>
<path d="M264.834 109.999C263.169 112.592 263.912 116.033 266.473 117.702C269.059 119.371 272.491 118.626 274.155 116.058C275.82 113.465 275.077 110.05 272.491 108.355C269.93 106.686 266.498 107.431 264.834 109.999Z" fill="white"/>
<path d="M263.118 109.434C260.148 111.591 252.363 113.465 252.363 113.465C252.363 113.465 262.145 113.26 265.141 115.545C268.24 117.881 270.186 128.512 270.186 128.512C270.186 128.512 270.954 119.422 273.182 116.341C275.692 112.849 285.602 112.258 285.602 112.258C285.602 112.258 276.306 111.077 273.592 108.74C269.981 105.633 270.032 96.7236 270.032 96.7236C268.547 103.862 266.063 107.277 263.092 109.434H263.118Z" fill="white"/>
<path d="M381.135 120.715L237.332 204.654L92.5564 120.715L236.385 36.7509L381.135 120.715Z" fill="#601202"/>
<path d="M381.187 118.762L237.383 202.701C237.383 202.701 231.856 125.881 298.001 93.7039C363.915 61.655 381.187 118.762 381.187 118.762Z" fill="url(#paint17_linear_231_3956)"/>
<path d="M353.731 118.402L264.25 171.757C264.25 171.757 264.865 133.463 306.342 112.363C347.667 91.3395 353.757 118.402 353.757 118.402H353.731Z" fill="url(#paint18_linear_231_3956)"/>
<path d="M353.731 118.402C353.731 118.402 350.788 105.398 335.231 104.447C344.571 108.122 346.566 116.886 346.566 116.886L264.993 165.512C264.302 169.393 264.25 171.757 264.25 171.757L353.731 118.402Z" fill="#540048"/>
<g opacity="0.53">
<path d="M381.187 118.762L237.383 202.701C237.383 202.701 231.856 125.881 298.001 93.704C321.465 82.2928 338.737 82.1643 351.3 86.7648C351.3 86.7648 311.639 79.954 280.294 111.206C256.881 134.543 247.183 170.729 248.923 186.921L381.187 118.762Z" fill="#A35211"/>
</g>
<path d="M298.001 93.7039C323.23 81.4447 341.321 82.2414 354.063 87.8699L213.535 6.08986C200.69 -1.33767 181.423 -3.93345 153.276 9.76508C87.1061 41.9425 92.6074 118.762 92.6074 118.762L237.358 202.701C237.358 202.701 231.831 125.881 297.975 93.7039H298.001Z" fill="url(#paint19_linear_231_3956)"/>
<g opacity="0.51">
<path d="M242.373 162.094C241.503 162.248 240.633 162.351 239.737 162.402C185.67 165.615 133.343 137.472 93.5288 98.8441C92.0959 110.744 92.6588 118.762 92.6588 118.762L237.409 202.701C237.409 202.701 236.104 184.505 242.399 162.094H242.373Z" fill="url(#paint20_linear_231_3956)"/>
</g>
<g opacity="0.61">
<path opacity="0.37" d="M227.071 42.1994C191.351 21.5874 175.845 1.64355 175.845 1.64355C169.038 3.1599 161.541 5.72998 153.276 9.76501C125.641 23.2065 110.519 44.4097 102.28 64.5591C110.903 68.3629 131.348 73.8628 163.588 95.2973C186.668 110.641 224.334 138.706 243.524 158.213C250.689 135.442 265.914 109.304 298.026 93.6782C302.837 91.3394 307.366 89.4889 311.665 88.0497C300.508 81.9586 238.074 48.4961 227.097 42.1737L227.071 42.1994Z" fill="#FFFB64"/>
</g>
<g opacity="0.58">
<path d="M227.941 65.3817C208.878 56.1294 188.485 45.5921 172.825 31.0454C166.224 24.9029 159.059 17.7067 153.404 9.68802C153.353 9.68802 153.302 9.71372 153.276 9.73942C137.975 17.1927 126.511 27.0361 117.914 37.7533C172.134 52.8397 216.555 94.0638 251.943 138.038C260.873 121.255 275.176 104.807 298.026 93.6783C298.922 93.2414 299.792 92.8559 300.662 92.4446C275.688 85.454 251.226 76.6643 227.941 65.356V65.3817Z" fill="#FFFB64"/>
</g>
<path d="M167.273 44.3841C183.214 52.8653 197.697 63.4541 212.154 74.2227C230.679 88.024 248.924 102.339 265.709 118.145C271.492 111.592 278.426 105.449 286.768 100.078C259.926 89.4376 234.569 75.4306 208.955 61.3723C188.485 50.141 161.797 38.6785 147.391 18.7603C146.189 17.501 145.037 16.216 143.937 14.8795C136.747 19.3001 130.554 24.3117 125.232 29.6318C139.971 31.0196 154.53 37.5733 167.273 44.3583V44.3841Z" fill="#FFFB64"/>
<path d="M298.001 93.7039C323.23 81.4446 341.321 82.2413 354.064 87.8698C354.064 87.8698 320.339 65.3302 272.004 105.989C230.654 140.762 233.264 195.479 233.264 195.479L92.6077 118.762L237.358 202.701C237.358 202.701 231.831 125.881 297.975 93.7039H298.001Z" fill="#FFFB64"/>
<path d="M236.846 204.552C236.206 206.916 234.978 237.346 234.85 274.458C234.748 311.904 236.078 342.436 236.692 344.313L236.795 344.364C237.46 343.644 239.098 312.675 239.226 274.458C239.354 237.731 238.304 207.559 237.69 204.629H237.921L236.846 204.552Z" fill="#FFFB64"/>
<path d="M137.258 146.211C134.879 142.484 130.989 137.318 133.727 133.463C136.465 129.634 145.293 127.68 149.387 132.05C146.879 133.026 144.679 135.108 144.986 138.089C145.267 140.916 147.468 141.97 150.052 140.762C152.585 139.554 149.771 138.089 151.971 136.367C154.632 134.311 159.622 130.893 165.123 132.744C168.808 133.977 172.39 138.963 172.953 142.767C173.542 146.828 170.906 151.351 175.794 153.947C179.043 155.669 176.792 154.872 177.738 152.353C177.969 151.762 182.216 150.426 182.344 149.757C187.999 149.603 192.093 157.956 191.479 162.813C190.711 168.982 181.986 174.996 177.61 174.662C176.305 174.584 140.406 151.222 137.233 146.236L137.258 146.211Z" fill="#A35211"/>
<path d="M190.148 156.131C187.973 157.468 184.979 157.442 182.267 156.517C182.19 156.517 182.114 156.568 182.037 156.568C181.525 156.645 181.192 156.388 181.039 156.054C179.657 155.412 178.429 154.563 177.508 153.535C177.431 155.052 178.455 155.386 175.793 153.972C170.906 151.377 173.542 146.853 172.953 142.793C172.672 140.839 171.546 138.603 170.062 136.701C166.966 140.685 159.161 140.325 154.248 137.729C153.737 137.524 153.251 137.344 152.739 137.138C152.381 136.984 151.997 136.856 151.639 136.727C150.129 138.295 152.457 139.683 150.078 140.814C147.493 142.021 145.293 140.942 145.011 138.141C144.807 136.239 145.651 134.697 146.93 133.592C146.93 133.592 146.879 133.566 146.854 133.54C146.802 133.54 146.751 133.54 146.7 133.566C144.065 135.493 140.559 135.519 137.386 134.491C136.618 134.722 135.851 134.8 135.109 134.748C134.444 134.825 133.753 134.825 133.087 134.825C131.859 138.475 135.16 142.921 137.258 146.236C140.431 151.222 176.331 174.584 177.636 174.662C182.011 174.996 190.737 168.956 191.504 162.813C191.76 160.86 191.197 158.419 190.148 156.131Z" fill="#7A3100"/>
<path d="M151.178 150.58C148.849 149.809 147.698 149.398 147.314 151.968C146.905 154.538 147.135 157.391 147.058 160.012C146.879 165.435 146.802 170.961 147.877 176.306C148.542 179.545 157.217 196.944 160.671 196.944C160.671 196.944 163.972 197.021 169.192 193.834C173.337 191.316 173.439 188.077 173.772 184.171C174.181 179.365 174.514 174.61 174.335 169.804C174.258 167.388 174.616 164.433 173.465 162.222C172.211 159.806 169.396 158.213 167.145 156.928C162.181 154.075 156.577 152.43 151.152 150.631L151.178 150.58Z" fill="#A35211"/>
<path d="M169.806 186.51C170.011 184.042 170.753 175.844 174.361 175.612C174.437 173.659 174.437 171.732 174.361 169.778C174.284 167.362 174.642 164.407 173.491 162.197C172.237 159.781 169.422 158.187 167.17 156.902C162.206 154.049 156.603 152.405 151.178 150.606C148.849 149.835 147.698 149.423 147.314 151.993C146.905 154.563 147.135 157.416 147.058 160.038C146.879 165.461 146.802 170.986 147.877 176.332C148.542 179.57 157.217 196.97 160.671 196.97C160.671 196.97 163.332 196.996 167.631 194.734C168.219 192.241 169.55 189.182 169.78 186.561L169.806 186.51Z" fill="#7A3100"/>
<path d="M145.395 152.662C143.041 151.891 141.915 151.479 141.531 154.049C141.148 156.62 141.378 159.498 141.275 162.094C141.096 167.517 141.02 173.042 142.12 178.388C142.785 181.626 143.169 185.045 145.139 187.872C148.107 192.112 157.217 199.052 162.744 196.379C166.556 194.503 167.682 190.133 168.015 186.227C168.424 181.447 168.782 176.666 168.578 171.86C168.475 169.444 168.859 166.489 167.708 164.278C166.479 161.862 163.665 160.269 161.387 158.984C156.398 156.131 150.82 154.486 145.395 152.687V152.662Z" fill="#FFCE00"/>
<path d="M132.653 148.806C130.273 145.08 129.096 139.092 131.808 135.236C134.546 131.407 141.634 131.15 144.781 134.671C142.274 135.648 140.073 137.704 140.38 140.685C140.687 143.512 142.862 144.592 145.446 143.384C147.98 142.176 148.312 139.014 150.513 137.318C153.174 135.262 157.294 134.337 160.518 135.365C164.228 136.521 167.785 141.585 168.322 145.388C168.91 149.449 166.3 153.972 171.188 156.568C175.179 158.676 177.022 155.926 177.738 152.379C183.393 152.225 187.564 160.577 186.873 165.435C186.259 169.676 180.246 175.175 175.87 174.841C174.565 174.739 135.8 153.844 132.627 148.832L132.653 148.806Z" fill="#FFCE00"/>
<path d="M177.764 152.353C177.047 155.9 175.205 158.676 171.213 156.542C166.326 153.947 168.962 149.423 168.348 145.363C167.81 141.559 164.254 136.496 160.543 135.339C157.319 134.337 153.2 135.236 150.538 137.293C148.338 139.015 148.005 142.176 145.472 143.358C142.888 144.566 140.687 143.486 140.406 140.659C140.099 137.678 142.299 135.622 144.807 134.645C141.659 131.15 134.546 131.381 131.834 135.211C129.096 139.066 130.299 145.054 132.678 148.781C132.806 148.986 132.985 149.192 133.216 149.449C132.064 146.622 131.041 143.743 131.629 140.788C132.243 137.704 134.213 135.288 137.207 135.134C137.924 134.825 138.768 134.645 139.74 134.568C140.406 134.543 140.917 135.391 140.534 135.93C137.975 139.554 139.382 146.365 145.037 145.825C147.724 145.568 148.363 142.587 150.078 140.736C152.202 138.475 153.43 137.421 158.547 137.498C166.966 137.601 166.377 145.902 166.787 153.484C166.863 155.026 168.348 157.185 169.601 158.213C171.572 159.781 177.15 160.912 177.969 156.877C178.224 155.617 178.404 155.155 179.453 154.486C181.73 153.021 183.905 158.085 184.442 159.292C185.926 162.788 186.029 166.489 184.852 169.65C185.952 168.262 186.72 166.746 186.924 165.358C187.615 160.526 183.444 152.173 177.789 152.302L177.764 152.353Z" fill="#FFFB64"/>
<path d="M181.986 165.049C181.986 167.131 180.502 168.827 178.659 168.827C176.817 168.827 175.333 167.157 175.333 165.049C175.333 162.942 176.843 161.297 178.659 161.297C180.476 161.297 181.986 162.993 181.986 165.049Z" fill="#FFFB64"/>
<path d="M182.216 165.332C182.216 167.311 180.809 168.905 179.094 168.905C177.38 168.905 175.973 167.311 175.973 165.332C175.973 163.353 177.38 161.76 179.094 161.76C180.809 161.76 182.216 163.353 182.216 165.332Z" fill="#994900"/>
<path d="M179.094 161.76C178.736 161.76 178.403 161.837 178.096 161.965C177.559 162.608 177.201 163.482 177.201 164.433C177.201 166.412 178.608 168.005 180.322 168.005C180.681 168.005 181.013 167.928 181.32 167.8C181.858 167.157 182.216 166.283 182.216 165.307C182.216 163.328 180.809 161.734 179.094 161.734V161.76Z" fill="#601202"/>
<path d="M181.858 164.767C181.858 166 180.988 166.977 179.939 166.977C178.89 166.977 178.02 165.975 178.02 164.767C178.02 163.559 178.89 162.556 179.939 162.556C180.988 162.556 181.858 163.533 181.858 164.767Z" fill="url(#paint21_linear_231_3956)"/>
<path opacity="0.63" d="M181.167 163.096C181.346 163.559 181.321 163.867 181.167 164.381C181.039 164.869 180.809 165.358 180.323 165.563C179.35 166 178.352 165.692 177.994 164.767C177.994 166 178.864 167.003 179.913 167.003C180.962 167.003 181.832 166 181.832 164.792C181.832 164.124 181.551 163.507 181.141 163.122L181.167 163.096Z" fill="#D16800"/>
<path d="M178.711 164.741C178.711 164.741 178.787 164.895 178.839 164.947C179.325 165.486 180.067 164.484 180.297 164.073C180.706 163.353 179.964 162.556 179.273 163.07C178.89 163.353 178.48 164.201 178.685 164.741H178.711Z" fill="#FFCE00"/>
<path d="M179.376 163.919C179.529 163.919 179.76 163.713 179.785 163.533C179.836 163.276 179.555 163.148 179.376 163.302C179.171 163.456 179.094 163.867 179.376 163.893V163.919Z" fill="#FFFB64"/>
<path d="M180.758 166.437C181.116 166.257 181.448 165.743 181.576 165.358C181.73 164.921 181.653 164.51 181.525 164.073C181.525 164.818 180.911 165.872 180.169 166.129C179.708 166.283 179.248 166.155 178.813 165.975C178.634 165.898 178.506 165.743 178.352 165.666L178.429 165.872C178.48 165.949 178.531 166.052 178.583 166.129C178.89 166.54 179.299 166.694 179.785 166.72C180.143 166.72 180.425 166.643 180.758 166.463V166.437Z" fill="#994900"/>
<path d="M160.441 143.178C160.441 145.26 158.957 146.956 157.114 146.956C155.272 146.956 153.788 145.26 153.788 143.178C153.788 141.096 155.272 139.426 157.114 139.426C158.957 139.426 160.441 141.096 160.441 143.178Z" fill="#FFFB64"/>
<path d="M157.549 147.008C159.273 147.008 160.671 145.408 160.671 143.435C160.671 141.462 159.273 139.863 157.549 139.863C155.825 139.863 154.427 141.462 154.427 143.435C154.427 145.408 155.825 147.008 157.549 147.008Z" fill="#994900"/>
<path d="M157.549 139.888C157.191 139.888 156.858 139.966 156.551 140.094C156.014 140.737 155.656 141.61 155.656 142.587C155.656 144.566 157.063 146.159 158.777 146.159C159.136 146.159 159.468 146.082 159.775 145.954C160.313 145.311 160.671 144.437 160.671 143.461C160.671 141.482 159.264 139.888 157.549 139.888Z" fill="#601202"/>
<path d="M160.313 142.895C160.313 144.103 159.443 145.106 158.394 145.106C157.345 145.106 156.475 144.129 156.475 142.895C156.475 141.662 157.345 140.685 158.394 140.685C159.443 140.685 160.313 141.662 160.313 142.895Z" fill="url(#paint22_linear_231_3956)"/>
<path opacity="0.63" d="M159.622 141.225C159.827 141.687 159.775 141.996 159.622 142.51C159.494 142.972 159.264 143.461 158.778 143.692C157.805 144.129 156.807 143.821 156.475 142.895C156.475 144.129 157.345 145.131 158.394 145.131C159.443 145.131 160.313 144.155 160.313 142.921C160.313 142.227 160.057 141.636 159.622 141.251V141.225Z" fill="#D16800"/>
<path d="M157.165 142.87C157.165 142.87 157.242 143.024 157.293 143.075C157.78 143.589 158.522 142.613 158.752 142.201C159.161 141.482 158.419 140.685 157.728 141.199C157.345 141.482 156.935 142.33 157.14 142.87H157.165Z" fill="#FFCE00"/>
<path d="M157.831 142.022C157.984 142.022 158.214 141.842 158.24 141.662C158.291 141.405 158.01 141.302 157.831 141.43C157.626 141.585 157.549 141.996 157.831 142.022Z" fill="#FFFB64"/>
<path d="M159.212 144.566C159.596 144.36 159.903 143.872 160.031 143.487C160.185 143.05 160.108 142.638 159.98 142.201C159.98 142.973 159.366 144.001 158.624 144.258C158.163 144.386 157.703 144.258 157.268 144.078C157.089 144.001 156.961 143.846 156.807 143.769L156.884 143.975C156.935 144.052 156.986 144.129 157.037 144.232C157.319 144.643 157.754 144.797 158.24 144.823C158.598 144.823 158.905 144.72 159.212 144.566Z" fill="#994900"/>
<path d="M138.128 140.736C138.128 142.484 136.875 143.898 135.339 143.898C133.804 143.898 132.525 142.484 132.525 140.736C132.525 138.989 133.778 137.575 135.339 137.575C136.9 137.575 138.128 138.989 138.128 140.736Z" fill="#FFFB64"/>
<path d="M138.307 140.968C138.307 142.613 137.13 143.975 135.672 143.975C134.213 143.975 133.036 142.638 133.036 140.968C133.036 139.297 134.213 137.961 135.672 137.961C137.13 137.961 138.307 139.297 138.307 140.968Z" fill="#994900"/>
<path d="M135.698 137.961C135.39 137.961 135.109 138.038 134.853 138.115C134.393 138.655 134.111 139.4 134.111 140.197C134.111 141.867 135.288 143.204 136.747 143.204C137.054 143.204 137.335 143.127 137.591 143.05C138.052 142.51 138.333 141.764 138.333 140.968C138.333 139.297 137.156 137.961 135.698 137.961Z" fill="#601202"/>
<path d="M138 140.479C138 141.507 137.284 142.33 136.388 142.33C135.493 142.33 134.776 141.507 134.776 140.479C134.776 139.451 135.493 138.629 136.388 138.629C137.284 138.629 138 139.451 138 140.479Z" fill="url(#paint23_linear_231_3956)"/>
<path opacity="0.63" d="M137.437 139.092C137.591 139.477 137.565 139.734 137.437 140.171C137.335 140.557 137.13 140.994 136.721 141.173C135.902 141.559 135.058 141.302 134.776 140.505C134.776 141.533 135.493 142.356 136.388 142.356C137.284 142.356 138 141.533 138 140.505C138 139.94 137.77 139.426 137.412 139.092H137.437Z" fill="#D16800"/>
<path d="M135.365 140.48C135.365 140.48 135.416 140.608 135.467 140.659C135.877 141.096 136.491 140.274 136.695 139.914C137.028 139.297 136.414 138.629 135.851 139.066C135.518 139.297 135.186 140.017 135.365 140.48Z" fill="#FFCE00"/>
<path d="M135.928 139.76C136.056 139.76 136.26 139.606 136.286 139.451C136.312 139.246 136.081 139.143 135.928 139.272C135.749 139.4 135.698 139.734 135.928 139.76Z" fill="#FFFB64"/>
<path d="M137.079 141.893C137.386 141.739 137.668 141.328 137.745 140.994C137.872 140.634 137.796 140.274 137.719 139.914C137.719 140.557 137.207 141.43 136.567 141.636C136.184 141.765 135.8 141.636 135.416 141.482C135.288 141.405 135.16 141.302 135.032 141.225C135.032 141.225 135.083 141.405 135.109 141.405C135.16 141.482 135.186 141.559 135.237 141.61C135.493 141.944 135.851 142.099 136.235 142.099C136.542 142.099 136.772 142.022 137.054 141.867L137.079 141.893Z" fill="#994900"/>
<path d="M160.671 164.073C160.671 161.477 158.573 159.37 155.989 159.37C153.404 159.37 151.306 161.477 151.306 164.073C151.306 166.026 152.483 167.671 154.146 168.391C153.686 169.701 153.2 171.012 152.765 172.297C152.662 172.606 152.56 172.914 152.458 173.222C151.536 176.049 150.743 179.236 149.464 181.806C148.926 182.912 158.036 186.33 158.778 186.51C158.624 186.484 157.78 178.08 157.626 177.232C157.14 174.405 156.705 171.577 156.296 168.725C158.727 168.545 160.646 166.54 160.646 164.047L160.671 164.073Z" fill="#490B01"/>
<rect y="364" width="462" height="30" rx="15" fill="#F3D25F" fill-opacity="0.15"/>
<rect y="364" width="232" height="30" rx="15" fill="#F3D25F"/>
<defs>
<linearGradient id="paint0_linear_231_3956" x1="181.87" y1="190.315" x2="286.837" y2="51.4184" gradientUnits="userSpaceOnUse">
<stop offset="0.11" stop-color="#FFE600"/>
<stop offset="0.3" stop-color="#FFDE00"/>
<stop offset="0.59" stop-color="#FFCB00"/>
<stop offset="0.93" stop-color="#FFAB01"/>
<stop offset="1" stop-color="#FFA302"/>
</linearGradient>
<linearGradient id="paint1_linear_231_3956" x1="182.049" y1="174.858" x2="286.589" y2="66.8855" gradientUnits="userSpaceOnUse">
<stop stop-color="#7F104E"/>
<stop offset="0.16" stop-color="#861255"/>
<stop offset="0.4" stop-color="#991968"/>
<stop offset="0.68" stop-color="#B92488"/>
<stop offset="0.88" stop-color="#D52FA5"/>
</linearGradient>
<linearGradient id="paint2_linear_231_3956" x1="211.805" y1="158.168" x2="302.599" y2="76.6302" gradientUnits="userSpaceOnUse">
<stop stop-color="#8D1568"/>
<stop offset="0.14" stop-color="#93176F"/>
<stop offset="0.34" stop-color="#A41F82"/>
<stop offset="0.58" stop-color="#C02CA3"/>
<stop offset="0.85" stop-color="#E73DCF"/>
<stop offset="0.88" stop-color="#ED40D6"/>
</linearGradient>
<linearGradient id="paint3_linear_231_3956" x1="157.082" y1="113.644" x2="181.951" y2="349.729" gradientUnits="userSpaceOnUse">
<stop offset="0.11" stop-color="#EAB226"/>
<stop offset="0.36" stop-color="#E5AA20"/>
<stop offset="0.72" stop-color="#D99711"/>
<stop offset="1" stop-color="#CE8402"/>
</linearGradient>
<linearGradient id="paint4_linear_231_3956" x1="157.082" y1="113.644" x2="181.951" y2="349.729" gradientUnits="userSpaceOnUse">
<stop offset="0.11" stop-color="#CE8712"/>
<stop offset="0.42" stop-color="#C87F0E"/>
<stop offset="0.88" stop-color="#B96C04"/>
<stop offset="1" stop-color="#B56601"/>
</linearGradient>
<linearGradient id="paint5_linear_231_3956" x1="219.616" y1="211.55" x2="228.451" y2="211.55" gradientUnits="userSpaceOnUse">
<stop offset="0.11" stop-color="#EAB226"/>
<stop offset="0.36" stop-color="#E5AA20"/>
<stop offset="0.72" stop-color="#D99711"/>
<stop offset="1" stop-color="#CE8402"/>
</linearGradient>
<linearGradient id="paint6_linear_231_3956" x1="217.567" y1="316.62" x2="226.428" y2="316.62" gradientUnits="userSpaceOnUse">
<stop offset="0.11" stop-color="#EAB226"/>
<stop offset="0.36" stop-color="#E5AA20"/>
<stop offset="0.72" stop-color="#D99711"/>
<stop offset="1" stop-color="#CE8402"/>
</linearGradient>
<linearGradient id="paint7_linear_231_3956" x1="116.826" y1="252.376" x2="124.611" y2="252.376" gradientUnits="userSpaceOnUse">
<stop offset="0.11" stop-color="#EAB226"/>
<stop offset="0.36" stop-color="#E5AA20"/>
<stop offset="0.72" stop-color="#D99711"/>
<stop offset="1" stop-color="#CE8402"/>
</linearGradient>
<linearGradient id="paint8_linear_231_3956" x1="102.255" y1="144.713" x2="110.066" y2="144.713" gradientUnits="userSpaceOnUse">
<stop offset="0.11" stop-color="#EAB226"/>
<stop offset="0.36" stop-color="#E5AA20"/>
<stop offset="0.72" stop-color="#D99711"/>
<stop offset="1" stop-color="#CE8402"/>
</linearGradient>
<linearGradient id="paint9_linear_231_3956" x1="114.803" y1="232.477" x2="209.706" y2="232.477" gradientUnits="userSpaceOnUse">
<stop stop-color="#8D1568"/>
<stop offset="0.14" stop-color="#93176F"/>
<stop offset="0.34" stop-color="#A41F82"/>
<stop offset="0.58" stop-color="#C02CA3"/>
<stop offset="0.85" stop-color="#E73DCF"/>
<stop offset="0.88" stop-color="#ED40D6"/>
</linearGradient>
<linearGradient id="paint10_linear_231_3956" x1="202.945" y1="294.127" x2="407.271" y2="166.802" gradientUnits="userSpaceOnUse">
<stop stop-color="#C86A03"/>
<stop offset="0.28" stop-color="#CB7103"/>
<stop offset="0.7" stop-color="#D38403"/>
<stop offset="0.88" stop-color="#D99003"/>
</linearGradient>
<linearGradient id="paint11_linear_231_3956" x1="251.805" y1="316.671" x2="242.945" y2="316.671" gradientUnits="userSpaceOnUse">
<stop offset="0.11" stop-color="#C6870B"/>
<stop offset="0.46" stop-color="#C17F08"/>
<stop offset="0.97" stop-color="#B46C01"/>
<stop offset="1" stop-color="#B46B01"/>
</linearGradient>
<linearGradient id="paint12_linear_231_3956" x1="249.884" y1="211.524" x2="241.024" y2="211.524" gradientUnits="userSpaceOnUse">
<stop offset="0.11" stop-color="#C6870B"/>
<stop offset="0.46" stop-color="#C17F08"/>
<stop offset="0.97" stop-color="#B46C01"/>
<stop offset="1" stop-color="#B46B01"/>
</linearGradient>
<linearGradient id="paint13_linear_231_3956" x1="365.504" y1="146.151" x2="357.642" y2="146.151" gradientUnits="userSpaceOnUse">
<stop offset="0.11" stop-color="#C6870B"/>
<stop offset="0.46" stop-color="#C17F08"/>
<stop offset="0.97" stop-color="#B46C01"/>
<stop offset="1" stop-color="#B46B01"/>
</linearGradient>
<linearGradient id="paint14_linear_231_3956" x1="353.289" y1="253.172" x2="345.453" y2="253.172" gradientUnits="userSpaceOnUse">
<stop offset="0.11" stop-color="#C6870B"/>
<stop offset="0.46" stop-color="#C17F08"/>
<stop offset="0.97" stop-color="#B46C01"/>
<stop offset="1" stop-color="#B46B01"/>
</linearGradient>
<linearGradient id="paint15_linear_231_3956" x1="237.388" y1="272.558" x2="373.955" y2="187.462" gradientUnits="userSpaceOnUse">
<stop stop-color="#7F104E"/>
<stop offset="0.16" stop-color="#861255"/>
<stop offset="0.4" stop-color="#991968"/>
<stop offset="0.68" stop-color="#B92488"/>
<stop offset="0.88" stop-color="#D52FA5"/>
</linearGradient>
<linearGradient id="paint16_linear_231_3956" x1="89.7842" y1="162.661" x2="378.564" y2="162.661" gradientUnits="userSpaceOnUse">
<stop offset="0.11" stop-color="#FFE600"/>
<stop offset="0.3" stop-color="#FFDE00"/>
<stop offset="0.59" stop-color="#FFCB00"/>
<stop offset="0.93" stop-color="#FFAB01"/>
<stop offset="1" stop-color="#FFA302"/>
</linearGradient>
<linearGradient id="paint17_linear_231_3956" x1="264.199" y1="119.687" x2="336.649" y2="176.048" gradientUnits="userSpaceOnUse">
<stop stop-color="#C86A03"/>
<stop offset="0.28" stop-color="#CB7103"/>
<stop offset="0.7" stop-color="#D38403"/>
<stop offset="0.88" stop-color="#D99003"/>
</linearGradient>
<linearGradient id="paint18_linear_231_3956" x1="284.024" y1="126.086" x2="329.851" y2="155.558" gradientUnits="userSpaceOnUse">
<stop stop-color="#8D145F"/>
<stop offset="0.14" stop-color="#931666"/>
<stop offset="0.35" stop-color="#A51E79"/>
<stop offset="0.6" stop-color="#C32A9A"/>
<stop offset="0.88" stop-color="#ED3CC7"/>
</linearGradient>
<linearGradient id="paint19_linear_231_3956" x1="250.51" y1="20.6365" x2="185.229" y2="181.529" gradientUnits="userSpaceOnUse">
<stop offset="0.11" stop-color="#FCE300"/>
<stop offset="0.28" stop-color="#FADB00"/>
<stop offset="0.53" stop-color="#F4C800"/>
<stop offset="0.83" stop-color="#EBA801"/>
<stop offset="1" stop-color="#E69302"/>
</linearGradient>
<linearGradient id="paint20_linear_231_3956" x1="222.389" y1="9.22537" x2="157.082" y2="170.118" gradientUnits="userSpaceOnUse">
<stop offset="0.11" stop-color="#CE8712"/>
<stop offset="0.42" stop-color="#C87F0E"/>
<stop offset="0.88" stop-color="#B96C04"/>
<stop offset="1" stop-color="#B56601"/>
</linearGradient>
<linearGradient id="paint21_linear_231_3956" x1="178.02" y1="164.767" x2="181.858" y2="164.767" gradientUnits="userSpaceOnUse">
<stop offset="0.11" stop-color="#EAB226"/>
<stop offset="0.36" stop-color="#E5AA20"/>
<stop offset="0.72" stop-color="#D99711"/>
<stop offset="1" stop-color="#CE8402"/>
</linearGradient>
<linearGradient id="paint22_linear_231_3956" x1="156.475" y1="142.895" x2="160.313" y2="142.895" gradientUnits="userSpaceOnUse">
<stop offset="0.11" stop-color="#EAB226"/>
<stop offset="0.36" stop-color="#E5AA20"/>
<stop offset="0.72" stop-color="#D99711"/>
<stop offset="1" stop-color="#CE8402"/>
</linearGradient>
<linearGradient id="paint23_linear_231_3956" x1="134.776" y1="140.479" x2="138" y2="140.479" gradientUnits="userSpaceOnUse">
<stop offset="0.11" stop-color="#EAB226"/>
<stop offset="0.36" stop-color="#E5AA20"/>
<stop offset="0.72" stop-color="#D99711"/>
<stop offset="1" stop-color="#CE8402"/>
</linearGradient>
</defs>
</svg>
