<svg width="66" height="66" viewBox="0 0 66 66" fill="none" xmlns="http://www.w3.org/2000/svg">
<circle cx="33" cy="33" r="33" fill="#353535"/>
<path d="M50.4015 23.0318L44.292 17.2068C43.4946 16.4927 42.4498 16.083 41.3562 16.0555C40.2626 16.0281 39.1965 16.3849 38.3609 17.058L18.2931 36.1913C17.5723 36.8842 17.1236 37.7925 17.0221 38.7636L16.0633 47.6287C16.0333 47.9401 16.0757 48.2539 16.1874 48.5479C16.2992 48.8419 16.4776 49.1087 16.71 49.3294C16.9183 49.5265 17.1654 49.6823 17.4371 49.7881C17.7087 49.8939 17.9996 49.9476 18.2931 49.9459L18.4938 49.9459L27.7918 49.1381C28.8104 49.0413 29.763 48.6135 30.4898 47.9263L50.5576 28.7931C51.3365 28.0085 51.7575 26.9616 51.7282 25.8817C51.6989 24.8018 51.2219 23.777 50.4015 23.0318ZM27.3905 44.8863L20.7012 45.4815L21.3032 39.1038L33.9014 27.2412L39.9217 32.9811L27.3905 44.8863ZM42.8204 30.1324L36.8446 24.4349L41.1927 20.1831L47.2799 25.9869L42.8204 30.1324Z" fill="white"/>
</svg>
